<svg width="304" height="68" viewBox="0 0 304 68" fill="none" xmlns="http://www.w3.org/2000/svg">
<g clip-path="url(#clip0_37_774)">
<path d="M94.1202 3.2381H99.4871L112.037 44.8543H106.706L103.336 32.7358H89.7833L86.4041 44.8543H81.0372L94.1202 3.2381ZM91.256 27.7234H102.008L96.6772 8.67632L91.256 27.7234Z" fill="#A99893"/>
<path d="M119.518 3.2381H124.786L134.824 38.937L144.564 3.2381H149.886L137.236 44.8543H132.186L119.518 3.2381Z" fill="#A99893"/>
<path d="M170.522 3.2381H175.88L188.394 44.8543H183.108L179.729 32.7358H166.176L162.779 44.8543H157.412L170.522 3.2381ZM167.649 27.7234H178.41L173.097 8.67632L167.649 27.7234Z" fill="#A99893"/>
<path d="M219.448 15.3033C219.519 13.047 218.701 10.8508 217.162 9.17314C216.363 8.42457 215.416 7.84594 214.379 7.47347C213.342 7.101 212.238 6.9427 211.136 7.00849C208.455 7.00849 206.443 7.59992 205.1 8.78279C203.757 9.96566 203.088 11.7754 203.094 14.2121C203.04 14.977 203.177 15.7433 203.492 16.445C203.806 17.1466 204.29 17.7626 204.901 18.2398C206.076 19.127 208.425 19.952 211.967 20.7859C216.912 21.9688 220.316 23.4474 222.177 25.2217C224.038 26.996 224.969 29.6574 224.969 33.206C224.969 37.1095 223.725 40.2027 221.237 42.4856C218.743 44.7744 215.391 45.91 211.154 45.91C206.916 45.91 203.447 44.668 201.052 42.1662C198.658 39.6645 197.438 36.1159 197.348 31.5204H201.757C201.793 34.5604 202.631 36.9113 204.269 38.5733C205.907 40.2352 208.202 41.0662 211.154 41.0662C214.214 41.0662 216.503 40.4747 218.021 39.2919C219.538 38.109 220.297 36.314 220.297 33.9069C220.297 31.7422 219.695 30.1572 218.49 29.1517C217.316 28.1493 214.967 27.2355 211.425 26.4104C206.492 25.2276 203.091 23.8022 201.224 22.1344C199.357 20.4665 198.423 17.9648 198.423 14.6291C198.423 10.7966 199.568 7.75961 201.857 5.51808C204.145 3.27655 207.238 2.15283 211.136 2.14691C215.084 2.14691 218.147 3.29133 220.352 5.57131C222.556 7.85128 223.722 11.0894 223.857 15.33L219.448 15.3033Z" fill="#756660"/>
<path d="M264.335 27.8121C264.335 34.2114 263.272 38.8305 261.146 41.6694C259.02 44.5083 255.526 45.9277 250.665 45.9277C245.846 45.9277 242.368 44.5083 240.229 41.6694C238.091 38.8305 237.013 34.2114 236.995 27.8121V3.2381H241.666V28.0783C241.666 32.6264 242.389 35.9059 243.834 37.9168C245.28 39.9276 247.635 40.936 250.9 40.9419C254.162 40.9419 256.52 39.9306 257.956 37.9168C259.393 35.9029 260.125 32.5939 260.125 28.0783V3.2381H264.335V27.8121Z" fill="#756660"/>
<path d="M298.498 15.3033C298.569 13.047 297.75 10.8508 296.212 9.17314C295.413 8.42457 294.465 7.84594 293.428 7.47347C292.391 7.101 291.287 6.9427 290.185 7.00849C287.499 7.00849 285.487 7.59992 284.15 8.78279C282.812 9.96566 282.144 11.7754 282.144 14.2121C282.09 14.977 282.226 15.7433 282.541 16.445C282.856 17.1466 283.34 17.7626 283.951 18.2398C285.125 19.127 287.475 19.952 291.016 20.7859C295.962 21.9688 299.365 23.4474 301.226 25.2217C303.087 26.996 304.018 29.6574 304.018 33.206C304.018 37.1095 302.774 40.2027 300.287 42.4856C297.793 44.7744 294.441 45.91 290.203 45.91C285.966 45.91 282.496 44.668 280.102 42.1662C277.707 39.6645 276.488 36.1159 276.397 31.5204H280.807C280.843 34.5604 281.68 36.9113 283.318 38.5733C284.957 40.2352 287.252 41.0662 290.203 41.0662C293.263 41.0662 295.552 40.4747 297.07 39.2919C298.588 38.109 299.347 36.314 299.347 33.9069C299.347 31.7422 298.745 30.1572 297.54 29.1517C296.365 28.1493 294.016 27.2355 290.474 26.4104C285.541 25.2276 282.141 23.8022 280.273 22.1344C278.406 20.4665 277.473 17.9648 277.473 14.6291C277.473 10.7966 278.617 7.75961 280.906 5.51808C283.195 3.27655 286.288 2.15283 290.185 2.14691C294.134 2.14691 297.196 3.29133 299.401 5.57131C301.606 7.85128 302.771 11.0894 302.907 15.33L298.498 15.3033Z" fill="#756660"/>
<path d="M85.6451 65.5692C85.624 66.2192 85.3823 66.8437 84.9585 67.3435C84.7564 67.5538 84.5106 67.7189 84.2377 67.8275C83.9649 67.9362 83.6714 67.986 83.3773 67.9734C83.0394 67.9794 82.7056 67.9012 82.4069 67.7461C82.1082 67.5909 81.8546 67.3639 81.6696 67.0862C81.2124 66.3807 80.9913 65.5525 81.0372 64.7175C80.9997 63.8923 81.2342 63.0772 81.7058 62.3932C81.9076 62.109 82.1787 61.8789 82.4944 61.724C82.81 61.569 83.1601 61.4941 83.5128 61.5061C83.7775 61.5083 84.0391 61.562 84.2826 61.664C84.5261 61.766 84.7465 61.9144 84.9313 62.1004C85.3199 62.5023 85.5587 63.0213 85.609 63.5731H84.9313C84.8883 63.2354 84.7289 62.9224 84.4796 62.686C84.3154 62.5499 84.124 62.4492 83.9177 62.3903C83.7114 62.3314 83.4948 62.3157 83.2819 62.3441C83.0691 62.3725 82.8646 62.4445 82.6818 62.5553C82.4991 62.6662 82.342 62.8134 82.2208 62.9876C81.8853 63.5446 81.725 64.1866 81.76 64.8329C81.7269 65.4542 81.8808 66.0713 82.2027 66.6072C82.341 66.8124 82.531 66.979 82.7542 67.0909C82.9774 67.2028 83.2263 67.2562 83.4767 67.2459C83.6713 67.253 83.865 67.2168 84.0434 67.1399C84.2218 67.0631 84.3802 66.9477 84.5067 66.8023C84.787 66.4421 84.945 66.0046 84.9585 65.5514L85.6451 65.5692Z" fill="#A99893"/>
<path d="M88.699 67.1217C88.2022 66.4547 87.9535 65.6405 87.9943 64.8151C87.9516 63.9701 88.1928 63.1348 88.681 62.4376C88.9007 62.1611 89.1817 61.9374 89.5026 61.7836C89.8236 61.6297 90.176 61.5497 90.5332 61.5497C90.8904 61.5497 91.2428 61.6297 91.5638 61.7836C91.8847 61.9374 92.1657 62.1611 92.3854 62.4376C92.8736 63.1348 93.1148 63.9701 93.0721 64.8151C93.1129 65.6405 92.8642 66.4547 92.3674 67.1217C92.1493 67.3947 91.8708 67.6155 91.5531 67.7673C91.2353 67.9191 90.8866 67.998 90.5332 67.998C90.1798 67.998 89.8311 67.9191 89.5133 67.7673C89.1956 67.6155 88.9171 67.3947 88.699 67.1217ZM91.8523 66.5894C92.2039 66.064 92.3777 65.4432 92.3493 64.8151C92.3853 64.1653 92.2148 63.5205 91.8614 62.9699C91.7112 62.7612 91.5122 62.5909 91.281 62.4734C91.0499 62.3559 90.7935 62.2946 90.5332 62.2946C90.2729 62.2946 90.0165 62.3559 89.7853 62.4734C89.5542 62.5909 89.3552 62.7612 89.205 62.9699C88.8591 63.5233 88.6921 64.1667 88.7261 64.8151C88.695 65.4422 88.8657 66.063 89.214 66.5894C89.3622 66.7981 89.5596 66.9685 89.7892 67.0861C90.0189 67.2038 90.2741 67.2653 90.5332 67.2653C90.7922 67.2653 91.0475 67.2038 91.2771 67.0861C91.5068 66.9685 91.7042 66.7981 91.8523 66.5894Z" fill="#A99893"/>
<path d="M96.3609 67.8403H95.6743V61.7101H96.5055L99.1167 66.6959V61.7101H99.8034V67.8403H99.0534L96.3429 62.8811L96.3609 67.8403Z" fill="#A99893"/>
<path d="M102.677 61.7101H103.381V64.2207H106.092V61.7101H106.788V67.8403H106.092V64.9659H103.381V67.8403H102.677V61.7101Z" fill="#A99893"/>
<path d="M109.742 67.8403V61.7101H113.546V62.4375H110.447V64.3183H113.311V65.0546H110.447V67.1128H113.582V67.8403H109.742Z" fill="#A99893"/>
<path d="M120.657 65.5692C120.628 66.2176 120.387 66.8397 119.97 67.3435C119.768 67.5533 119.522 67.7181 119.249 67.8267C118.976 67.9354 118.683 67.9854 118.389 67.9734C118.05 67.981 117.714 67.9035 117.413 67.7482C117.113 67.593 116.858 67.3652 116.672 67.0862C116.219 66.3791 115.998 65.5521 116.04 64.7175C116 63.8908 116.238 63.0742 116.717 62.3932C116.919 62.1084 117.19 61.8779 117.505 61.7229C117.821 61.5678 118.172 61.4933 118.524 61.506C119.055 61.487 119.572 61.6752 119.961 62.0295C120.356 62.4267 120.596 62.9482 120.639 63.5021H119.952C119.913 63.1634 119.753 62.8492 119.5 62.615C119.334 62.4843 119.142 62.389 118.937 62.3354C118.731 62.2817 118.517 62.2708 118.306 62.3034C118.096 62.336 117.895 62.4113 117.717 62.5245C117.538 62.6378 117.385 62.7864 117.269 62.961C116.926 63.5154 116.762 64.1587 116.799 64.8062C116.768 65.4284 116.925 66.0456 117.25 66.5805C117.387 66.787 117.577 66.9546 117.801 67.0667C118.024 67.1787 118.274 67.2314 118.524 67.2193C118.719 67.2251 118.912 67.1883 119.09 67.1116C119.269 67.0348 119.427 66.9201 119.554 66.7757C119.835 66.4155 119.993 65.978 120.006 65.5248L120.657 65.5692Z" fill="#A99893"/>
<path d="M123.385 61.7101H124.081V67.8403H123.385V61.7101Z" fill="#A99893"/>
<path d="M127.722 67.8403H127.036V61.7101H128.039L129.529 66.8644L131.011 61.7101H132.014V67.8403H131.354V62.6771L129.873 67.8403H129.204L127.713 62.6771L127.722 67.8403Z" fill="#A99893"/>
<path d="M134.941 67.8403V61.7101H138.736V62.4375H135.637V64.3183H138.501V65.0546H135.637V67.1128H138.772V67.8403H134.941Z" fill="#A99893"/>
<path d="M142.152 67.8403H141.465V61.7101H142.296L144.907 66.6959V61.7101H145.594V67.8403H144.844L142.134 62.8811L142.152 67.8403Z" fill="#A99893"/>
<path d="M149.777 62.4375H147.97V61.7101H152.199V62.4375H150.392V67.8403H149.696L149.777 62.4375Z" fill="#A99893"/>
<path d="M155.09 67.1217C154.6 66.452 154.355 65.6391 154.394 64.8151C154.348 63.9697 154.589 63.133 155.081 62.4376C155.3 62.1612 155.58 61.9375 155.9 61.7837C156.22 61.6298 156.572 61.5499 156.929 61.5499C157.285 61.5499 157.637 61.6298 157.957 61.7837C158.277 61.9375 158.558 62.1612 158.776 62.4376C159.268 63.133 159.51 63.9697 159.463 64.8151C159.503 65.6391 159.258 66.452 158.767 67.1217C158.548 67.3949 158.269 67.6156 157.951 67.7674C157.632 67.9192 157.283 67.9981 156.929 67.9981C156.575 67.9981 156.225 67.9192 155.907 67.7674C155.588 67.6156 155.309 67.3949 155.09 67.1217ZM158.243 66.5894C158.599 66.0658 158.773 65.4436 158.74 64.8151C158.776 64.1653 158.606 63.5205 158.252 62.9699C158.106 62.7575 157.908 62.5845 157.676 62.4667C157.444 62.3489 157.185 62.2901 156.924 62.2956C156.664 62.29 156.407 62.3488 156.177 62.4667C155.946 62.5845 155.749 62.7576 155.605 62.9699C155.252 63.5205 155.081 64.1653 155.117 64.8151C155.084 65.4436 155.259 66.0658 155.614 66.5894C155.761 66.798 155.958 66.9685 156.187 67.0863C156.416 67.204 156.67 67.2655 156.929 67.2655C157.187 67.2655 157.442 67.204 157.671 67.0863C157.9 66.9685 158.096 66.798 158.243 66.5894Z" fill="#A99893"/>
<path d="M165.851 67.8403V61.7101H166.547V67.1128H169.185V67.8403H165.851Z" fill="#A99893"/>
<path d="M171.769 61.7101H172.465V67.8403H171.769V61.7101Z" fill="#A99893"/>
<path d="M175.031 61.7101H175.817L177.317 66.9709L178.78 61.7101H179.576L177.678 67.8403H176.928L175.031 61.7101Z" fill="#A99893"/>
<path d="M182.124 61.7101H184.59C184.813 61.6938 185.037 61.724 185.248 61.799C185.458 61.8739 185.649 61.9918 185.81 62.1448C186.114 62.4973 186.267 62.9524 186.235 63.4135C186.247 63.6384 186.212 63.8634 186.131 64.0741C186.05 64.2849 185.925 64.4768 185.765 64.6377C185.693 64.7096 185.614 64.775 185.53 64.8329L185.656 64.9127C185.819 65.0402 185.947 65.2045 186.031 65.3915C186.114 65.5785 186.15 65.7826 186.135 65.9862V67.0951C186.133 67.2365 186.155 67.3773 186.198 67.5121C186.242 67.5975 186.316 67.664 186.406 67.6984V67.8403H185.503C185.471 67.715 185.45 67.5875 185.439 67.4589C185.439 67.246 185.439 67.0064 185.439 66.7403V66.2612C185.457 65.9762 185.381 65.6932 185.223 65.4539C185.13 65.3682 185.021 65.3026 184.901 65.2613C184.781 65.22 184.653 65.204 184.527 65.2144H182.792V67.8758H182.096L182.124 61.7101ZM182.819 64.5047H184.536C184.67 64.5163 184.806 64.5002 184.933 64.4574C185.061 64.4146 185.178 64.3461 185.277 64.2563C185.43 64.0189 185.512 63.7435 185.512 63.4623C185.512 63.1811 185.43 62.9057 185.277 62.6683C185.184 62.577 185.072 62.5067 184.949 62.4623C184.826 62.4179 184.694 62.4004 184.563 62.411H182.819V64.5047Z" fill="#A99893"/>
<path d="M189.108 67.8403V61.7101H192.912V62.4375H189.813V64.3183H192.677V65.0546H189.813V67.1128H192.948V67.8403H189.108Z" fill="#A99893"/>
<path d="M199.498 67.8403V61.7101H203.293V62.4375H200.194V64.3183H203.058V65.0546H200.194V67.1128H203.338V67.8403H199.498Z" fill="#A99893"/>
<path d="M211.316 61.7101H212.121L213.991 67.8403H213.232L212.726 66.066H210.702L210.196 67.8403H209.392L211.316 61.7101ZM210.883 65.3208H212.491L211.705 62.5085L210.883 65.3208Z" fill="#A99893"/>
<path d="M216.394 61.7101H218.653C218.854 61.7032 219.054 61.7374 219.241 61.8108C219.428 61.8841 219.597 61.9948 219.737 62.1359C220.018 62.4447 220.164 62.8493 220.144 63.2626C220.158 63.461 220.128 63.6599 220.058 63.8465C219.988 64.033 219.879 64.2029 219.737 64.3449C219.657 64.427 219.562 64.4932 219.457 64.5401C219.64 64.6151 219.808 64.7201 219.954 64.8506C220.104 65.0064 220.22 65.1907 220.294 65.3921C220.369 65.5935 220.401 65.8077 220.388 66.0217C220.402 66.2663 220.367 66.5114 220.285 66.7427C220.203 66.9741 220.075 67.1873 219.909 67.3701C219.728 67.5354 219.514 67.6624 219.281 67.7432C219.048 67.8241 218.8 67.8572 218.554 67.8403H216.385L216.394 61.7101ZM217.099 64.3183H218.4C218.54 64.3312 218.681 64.3158 218.815 64.273C218.948 64.2303 219.072 64.1612 219.177 64.0699C219.269 63.9694 219.339 63.8514 219.383 63.7232C219.426 63.595 219.442 63.4593 219.43 63.3247C219.443 63.1996 219.429 63.0732 219.388 62.9539C219.348 62.8346 219.282 62.7252 219.195 62.6327C218.992 62.4714 218.733 62.3921 218.472 62.411H217.099V64.3183ZM217.099 67.1395H218.355C218.712 67.1691 219.068 67.0715 219.358 66.8645C219.476 66.7502 219.566 66.6108 219.621 66.457C219.676 66.3032 219.694 66.1391 219.674 65.9773C219.687 65.8351 219.669 65.6917 219.621 65.557C219.572 65.4222 219.495 65.2993 219.394 65.1966C219.15 65.01 218.843 64.9213 218.536 64.9482H217.099V67.1395Z" fill="#A99893"/>
<path d="M223.089 67.8403V61.7101H226.884V62.4375H223.785V64.3183H226.649V65.0546H223.785V67.1128H226.92V67.8403H223.089Z" fill="#A99893"/>
<path d="M229.694 61.7101H232.206C232.429 61.6943 232.653 61.7248 232.863 61.7997C233.073 61.8746 233.265 61.9922 233.426 62.1448C233.727 62.4986 233.876 62.9536 233.841 63.4134C233.853 63.6375 233.819 63.8617 233.739 64.0722C233.66 64.2827 233.538 64.4751 233.38 64.6377C233.305 64.7096 233.223 64.7749 233.137 64.8329L233.272 64.9127C233.433 65.0416 233.56 65.2062 233.643 65.3928C233.726 65.5794 233.763 65.7828 233.751 65.9862V67.0951C233.745 67.2368 233.766 67.3783 233.814 67.5121C233.857 67.5975 233.931 67.6639 234.022 67.6984V67.8403H233.118C233.1 67.7021 233.097 67.5622 233.109 67.4234C233.109 67.2104 233.109 66.9709 233.109 66.7048V66.2257C233.136 65.94 233.059 65.6542 232.893 65.4184C232.801 65.3338 232.693 65.2689 232.575 65.2276C232.457 65.1864 232.331 65.1698 232.206 65.1789H230.399V67.8403H229.694V61.7101ZM230.399 64.5046H232.116C232.249 64.5191 232.383 64.5043 232.51 64.4613C232.637 64.4184 232.752 64.3483 232.847 64.2562C233.025 64.0319 233.109 63.7496 233.082 63.4667C233.108 63.1825 233.028 62.8988 232.856 62.6682C232.764 62.577 232.652 62.5067 232.528 62.4623C232.405 62.4179 232.274 62.4003 232.143 62.411H230.399V64.5046Z" fill="#A99893"/>
<path d="M237.925 62.4375H236.163V61.7101H240.392V62.4375H238.585V67.8403H237.889L237.925 62.4375Z" fill="#A99893"/>
<path d="M243.238 67.1217C242.748 66.452 242.502 65.6391 242.542 64.8151C242.495 63.9697 242.737 63.133 243.229 62.4376C243.448 62.1612 243.728 61.9375 244.048 61.7837C244.368 61.6298 244.72 61.5499 245.077 61.5499C245.433 61.5499 245.785 61.6298 246.105 61.7837C246.425 61.9375 246.706 62.1612 246.924 62.4376C247.416 63.133 247.658 63.9697 247.611 64.8151C247.651 65.6391 247.406 66.452 246.915 67.1217C246.696 67.3949 246.417 67.6156 246.099 67.7674C245.78 67.9192 245.431 67.9981 245.077 67.9981C244.723 67.9981 244.373 67.9192 244.055 67.7674C243.736 67.6156 243.457 67.3949 243.238 67.1217ZM246.391 66.5894C246.747 66.0658 246.921 65.4436 246.888 64.8151C246.924 64.1653 246.754 63.5205 246.4 62.9699C246.251 62.7612 246.053 62.5909 245.823 62.4733C245.592 62.3557 245.336 62.2943 245.077 62.2943C244.817 62.2943 244.561 62.3557 244.331 62.4733C244.1 62.5909 243.902 62.7612 243.753 62.9699C243.4 63.5205 243.229 64.1653 243.265 64.8151C243.232 65.4436 243.406 66.0658 243.762 66.5894C243.909 66.798 244.106 66.9685 244.335 67.0863C244.564 67.204 244.818 67.2655 245.077 67.2655C245.335 67.2655 245.59 67.204 245.819 67.0863C246.048 66.9685 246.244 66.798 246.391 66.5894Z" fill="#A99893"/>
<path d="M254.071 67.8403V61.7101H257.875V62.4375H254.794V64.3183H257.658V65.0546H254.794V67.1128H257.929V67.8403H254.071Z" fill="#A99893"/>
<path d="M261.263 67.8403H260.586V61.7101H261.58L263.079 66.8644L264.561 61.7101H265.564V67.8403H264.905V62.6771L263.414 67.8403H262.754L261.263 62.6771V67.8403Z" fill="#A99893"/>
<path d="M275.304 63.4844C275.311 63.1562 275.188 62.8382 274.961 62.5973C274.84 62.4868 274.698 62.4015 274.542 62.3466C274.387 62.2917 274.222 62.2683 274.057 62.2779C273.733 62.2559 273.412 62.3505 273.154 62.5441C273.049 62.6503 272.968 62.7771 272.916 62.9163C272.865 63.0555 272.844 63.2037 272.855 63.3514C272.847 63.4635 272.867 63.576 272.914 63.6784C272.962 63.7808 273.035 63.8697 273.127 63.9369C273.452 64.1275 273.81 64.2568 274.184 64.3184C274.739 64.4074 275.264 64.6298 275.711 64.966C275.859 65.124 275.972 65.3103 276.044 65.5134C276.115 65.7164 276.143 65.9317 276.126 66.1459C276.138 66.3997 276.094 66.653 275.997 66.8888C275.901 67.1245 275.754 67.337 275.566 67.5121C275.149 67.8667 274.608 68.0481 274.057 68.0178C273.781 68.0328 273.504 67.9917 273.244 67.8971C272.985 67.8025 272.748 67.6563 272.548 67.4677C272.165 67.0337 271.968 66.4711 271.997 65.8975H272.657C272.645 66.086 272.672 66.2749 272.735 66.4531C272.799 66.6314 272.898 66.7953 273.027 66.9354C273.164 67.0622 273.326 67.1598 273.504 67.2224C273.681 67.285 273.869 67.3111 274.057 67.2992C274.42 67.3284 274.783 67.2379 275.087 67.0419C275.203 66.9456 275.294 66.8241 275.354 66.687C275.414 66.5499 275.44 66.4011 275.431 66.2523C275.44 66.1232 275.421 65.9935 275.374 65.8724C275.327 65.7513 275.254 65.6418 275.16 65.5515C274.841 65.3417 274.481 65.2025 274.102 65.1434C273.551 65.0523 273.028 64.8367 272.575 64.5135C272.429 64.3688 272.316 64.1949 272.244 64.0035C272.173 63.8122 272.144 63.6079 272.16 63.4046C272.146 63.1584 272.185 62.9122 272.274 62.6815C272.362 62.4509 272.499 62.2409 272.675 62.065C272.86 61.8959 273.078 61.7649 273.315 61.6796C273.552 61.5943 273.805 61.5564 274.057 61.5682C274.311 61.5523 274.565 61.5891 274.803 61.6762C275.042 61.7633 275.258 61.8988 275.44 62.0739C275.793 62.467 275.981 62.9779 275.964 63.5022L275.304 63.4844Z" fill="#A99893"/>
<path d="M280.301 61.7101H281.105L282.975 67.8403H282.18L281.683 66.066H279.65L279.144 67.8403H278.34L280.301 61.7101ZM279.867 65.3208H281.484L280.689 62.5085L279.867 65.3208Z" fill="#A99893"/>
<path d="M289.508 65.3297C289.574 66.0426 289.407 66.7578 289.029 67.3701C288.613 67.7743 288.051 68.0009 287.466 68.0009C286.88 68.0009 286.319 67.7743 285.902 67.3701C285.534 66.7537 285.364 66.0425 285.415 65.3297V61.7101H286.119V65.3652C286.079 65.871 286.192 66.3774 286.445 66.8201C286.581 66.9602 286.745 67.0716 286.927 67.1478C287.109 67.224 287.304 67.2632 287.502 67.2632C287.699 67.2632 287.895 67.224 288.076 67.1478C288.258 67.0716 288.422 66.9602 288.559 66.8201C288.811 66.3774 288.925 65.871 288.884 65.3652V61.7101H289.508V65.3297ZM286.932 61.2133L287.574 60.0068H288.36L287.456 61.2133H286.932Z" fill="#A99893"/>
<path d="M292.426 61.7101H294.423C294.75 61.6928 295.076 61.754 295.374 61.8885C295.671 62.023 295.931 62.2267 296.13 62.4819C296.566 63.1362 296.775 63.9108 296.727 64.6909C296.776 65.5091 296.571 66.3228 296.139 67.0241C295.95 67.2884 295.696 67.5018 295.401 67.6444C295.106 67.787 294.779 67.8544 294.45 67.8403H292.426V61.7101ZM293.122 67.1394H294.45C294.681 67.1499 294.911 67.0994 295.116 66.9934C295.321 66.8873 295.493 66.7295 295.615 66.5362C295.91 65.9917 296.045 65.3773 296.004 64.7619C296.045 64.1454 295.907 63.5302 295.606 62.9876C295.478 62.7964 295.302 62.6411 295.094 62.5369C294.887 62.4327 294.655 62.3832 294.423 62.3932H293.122V67.1394Z" fill="#A99893"/>
<path d="M299.464 67.8403V61.7101H303.268V62.4375H300.169V64.3183H303.033V65.0546H300.169V67.1128H303.304V67.8403H299.464Z" fill="#A99893"/>
<path d="M39.4569 44.9873L22.299 67.1572L0 22.4804L17.0676 0L39.4569 44.9873Z" fill="#A99893"/>
<g style="mix-blend-mode:multiply">
<path d="M33.9093 33.8802L67.8095 45.2712L45.5105 0.58551L33.9093 33.8802Z" fill="#E94E1B"/>
</g>
<g style="mix-blend-mode:multiply">
<path d="M39.7099 17.2285L33.9093 33.8802L56.66 22.924L39.7099 17.2285Z" fill="#F39200"/>
</g>
<g style="mix-blend-mode:multiply">
<path d="M50.8142 39.558L56.6149 22.915L33.8641 33.8625L50.8142 39.558Z" fill="#F9B233"/>
</g>
<path d="M45.5106 0.58551L0 22.4804L33.9093 33.8802L45.5106 0.58551Z" fill="#E6332A"/>
<g style="mix-blend-mode:multiply">
<path d="M22.299 67.1661L67.8095 45.2712L33.9093 33.8802L22.299 67.1661Z" fill="#E94E1B"/>
</g>
<path d="M22.299 67.1661L67.8095 45.2712L33.9093 33.8802L22.299 67.1661Z" fill="#E6332A"/>
<path d="M0 22.4803L22.299 67.1661L33.9093 33.8802L0 22.4803Z" fill="#BE1622"/>
<g style="mix-blend-mode:multiply">
<path d="M22.7508 11.533L16.9592 28.1759L39.7099 17.2285L22.7508 11.533Z" fill="#E6332A"/>
</g>
<g style="mix-blend-mode:multiply">
<path d="M33.9093 33.8802L39.7099 17.2285L16.9592 28.1847L33.9093 33.8802Z" fill="#BE1622"/>
</g>
<g style="mix-blend-mode:multiply">
<path d="M16.9501 28.1758L11.1495 44.8276L33.9093 33.8802L16.9501 28.1758Z" fill="#BE1622"/>
</g>
<path d="M28.1087 50.5232L33.9093 33.8802L11.1495 44.8277L28.1087 50.5232Z" fill="#B61620"/>
<g style="mix-blend-mode:multiply">
<path d="M33.9093 33.8713L28.1087 50.5231L50.8594 39.5757L33.9093 33.8713Z" fill="#BE1622"/>
</g>
<g style="mix-blend-mode:multiply">
<path d="M45.0588 56.2187L50.8594 39.5757L28.1087 50.5232L45.0588 56.2187Z" fill="#D74918"/>
</g>
</g>
<defs>
<clipPath id="clip0_37_774">
<rect width="304" height="68" fill="white"/>
</clipPath>
</defs>
</svg>
