<svg width="34" height="34" viewBox="0 0 34 34" fill="none" xmlns="http://www.w3.org/2000/svg">
<path d="M22.1 17.0001C22.1 18.3527 21.5627 19.6499 20.6062 20.6063C19.6498 21.5627 18.3526 22.1001 17 22.1001C15.6474 22.1001 14.3502 21.5627 13.3937 20.6063C12.4373 19.6499 11.9 18.3527 11.9 17.0001C11.9 16.7094 11.9306 16.4255 11.9833 16.1501H10.2V22.945C10.2 23.4176 10.5825 23.8001 11.0551 23.8001H22.9466C23.1731 23.7996 23.3901 23.7093 23.5501 23.549C23.7101 23.3887 23.8 23.1714 23.8 22.945V16.1501H22.0167C22.0694 16.4255 22.1 16.7094 22.1 17.0001ZM17 20.4001C17.4466 20.3999 17.8888 20.3119 18.3014 20.1409C18.7139 19.9698 19.0888 19.7192 19.4045 19.4034C19.7202 19.0875 19.9706 18.7125 20.1414 18.2999C20.3123 17.8872 20.4001 17.445 20.4 16.9984C20.3999 16.5517 20.3118 16.1095 20.1408 15.697C19.9698 15.2844 19.7192 14.9096 19.4033 14.5938C19.0874 14.2781 18.7125 14.0277 18.2998 13.8569C17.8872 13.6861 17.4449 13.5982 16.9983 13.5984C16.0963 13.5986 15.2314 13.9571 14.5938 14.595C13.9562 15.233 13.5981 16.0981 13.5983 17.0001C13.5985 17.902 13.957 18.7669 14.595 19.4046C15.2329 20.0422 16.098 20.4003 17 20.4001ZM21.08 13.4301H23.1183C23.2537 13.4301 23.3836 13.3764 23.4795 13.2808C23.5754 13.1852 23.6295 13.0555 23.63 12.9201V10.8818C23.63 10.746 23.5761 10.6159 23.4801 10.5199C23.3842 10.424 23.254 10.3701 23.1183 10.3701H21.08C20.9443 10.3701 20.8141 10.424 20.7182 10.5199C20.6222 10.6159 20.5683 10.746 20.5683 10.8818V12.9201C20.57 13.2006 20.7995 13.4301 21.08 13.4301ZM17 0.680054C12.6717 0.680054 8.5206 2.39948 5.46001 5.46007C2.39942 8.52066 0.679993 12.6717 0.679993 17.0001C0.679993 21.3284 2.39942 25.4794 5.46001 28.54C8.5206 31.6006 12.6717 33.3201 17 33.3201C19.1432 33.3201 21.2654 32.8979 23.2454 32.0778C25.2254 31.2576 27.0245 30.0555 28.54 28.54C30.0554 27.0246 31.2575 25.2255 32.0777 23.2454C32.8979 21.2654 33.32 19.1432 33.32 17.0001C33.32 14.8569 32.8979 12.7347 32.0777 10.7547C31.2575 8.77463 30.0554 6.97552 28.54 5.46007C27.0245 3.94462 25.2254 2.7425 23.2454 1.92234C21.2654 1.10218 19.1432 0.680054 17 0.680054ZM25.5 23.6114C25.5 24.6501 24.65 25.5001 23.6113 25.5001H10.3887C9.34999 25.5001 8.49999 24.6501 8.49999 23.6114V10.3888C8.49999 9.35005 9.34999 8.50005 10.3887 8.50005H23.6113C24.65 8.50005 25.5 9.35005 25.5 10.3888V23.6114Z" fill="#4A4951"/>
</svg>
