<svg width="399" height="210" viewBox="0 0 399 210" fill="none" xmlns="http://www.w3.org/2000/svg">
<path d="M145.244 19.1519H151.872C152.617 19.1519 153.332 19.448 153.858 19.975C154.385 20.502 154.681 21.2167 154.681 21.962V92.7607C154.681 93.2339 154.869 93.6878 155.203 94.0224C155.538 94.3571 155.991 94.545 156.464 94.545H198.438C199.183 94.545 199.898 94.8411 200.424 95.3681C200.951 95.8951 201.247 96.6098 201.247 97.3551V102.385C201.247 103.13 200.951 103.845 200.424 104.372C199.898 104.899 199.183 105.195 198.438 105.195H145.244C144.499 105.195 143.785 104.899 143.258 104.372C142.732 103.845 142.436 103.13 142.436 102.385V21.976C142.434 21.6058 142.505 21.2389 142.645 20.8964C142.786 20.5538 142.992 20.2424 143.253 19.9799C143.514 19.7175 143.825 19.5093 144.166 19.3672C144.508 19.2251 144.874 19.1519 145.244 19.1519Z" fill="#055B8D"/>
<path d="M269.424 83.7124H226.088C225.737 83.7125 225.393 83.8148 225.099 84.0069C224.805 84.199 224.573 84.4725 224.431 84.7942L216.188 103.537C215.97 104.045 215.607 104.477 215.145 104.779C214.683 105.081 214.142 105.241 213.59 105.237H207.173C206.688 105.253 206.208 105.143 205.779 104.918C205.35 104.693 204.986 104.36 204.723 103.953C204.46 103.546 204.307 103.077 204.279 102.593C204.25 102.109 204.347 101.626 204.561 101.191L240.96 20.7677C241.183 20.2703 241.546 19.8487 242.005 19.5543C242.464 19.2599 242.999 19.1055 243.544 19.1098H252.068C252.61 19.1082 253.142 19.2639 253.598 19.5581C254.054 19.8524 254.415 20.2725 254.637 20.7677L291.149 101.177C291.354 101.608 291.446 102.084 291.416 102.56C291.386 103.037 291.236 103.498 290.979 103.9C290.722 104.302 290.366 104.632 289.946 104.858C289.526 105.085 289.056 105.201 288.579 105.195H281.908C281.359 105.196 280.821 105.035 280.362 104.733C279.902 104.431 279.542 104 279.325 103.495L271.025 84.7942C270.888 84.4811 270.664 84.2134 270.381 84.022C270.098 83.8305 269.766 83.7232 269.424 83.7124ZM265.408 71.9102L249.02 34.6071C248.909 34.3618 248.729 34.1538 248.502 34.008C248.276 33.8621 248.012 33.7846 247.742 33.7846C247.473 33.7846 247.209 33.8621 246.983 34.008C246.756 34.1538 246.576 34.3618 246.464 34.6071L230.049 71.9102C229.956 72.1233 229.917 72.3562 229.936 72.5879C229.955 72.8197 230.031 73.043 230.158 73.238C230.285 73.4329 230.458 73.5934 230.662 73.705C230.866 73.8165 231.094 73.8757 231.326 73.8773H264.158C264.388 73.8712 264.613 73.8087 264.814 73.6952C265.014 73.5817 265.183 73.4208 265.306 73.2265C265.43 73.0322 265.504 72.8106 265.521 72.5811C265.539 72.3515 265.5 72.1212 265.408 71.9102Z" fill="#055B8D"/>
<path d="M305.655 19.1519H312.283C313.028 19.1519 313.742 19.448 314.269 19.975C314.796 20.502 315.091 21.2167 315.091 21.962V102.399C315.091 103.144 314.796 103.859 314.269 104.386C313.742 104.913 313.028 105.209 312.283 105.209H305.655C304.91 105.209 304.196 104.913 303.669 104.386C303.142 103.859 302.846 103.144 302.846 102.399V21.976C302.844 21.6058 302.916 21.2389 303.056 20.8964C303.196 20.5538 303.403 20.2424 303.664 19.9799C303.925 19.7175 304.235 19.5093 304.577 19.3672C304.918 19.2251 305.285 19.1519 305.655 19.1519Z" fill="#055B8D"/>
<path d="M344.314 103.2C339.834 101.814 335.622 99.6764 331.859 96.8773C331.346 96.4831 330.985 95.9239 330.836 95.2942C330.688 94.6645 330.761 94.0029 331.044 93.421L333.122 89.0514C333.292 88.6689 333.545 88.3292 333.862 88.0569C334.18 87.7847 334.554 87.5868 334.958 87.4777C335.361 87.3687 335.784 87.3512 336.196 87.4266C336.607 87.5019 336.996 87.6682 337.335 87.9133C340.41 90.0573 343.765 91.7686 347.306 92.9995C352.368 94.8482 357.714 95.7991 363.104 95.8095C370.219 95.8095 375.541 94.5965 379.07 92.1705C380.706 91.1511 382.052 89.7277 382.98 88.0373C383.907 86.3469 384.384 84.4462 384.364 82.5181C384.412 81.1832 384.18 79.8531 383.681 78.6139C383.183 77.3747 382.43 76.254 381.472 75.3244C379.427 73.4192 376.993 71.981 374.338 71.1094C371.529 70.1727 367.537 69.0674 362.359 67.7935C357.038 66.5825 351.802 65.0195 346.688 63.1148C342.75 61.5922 339.248 59.1213 336.493 55.9212C333.684 52.6896 332.28 48.3247 332.28 42.8264C332.226 38.418 333.488 34.0937 335.903 30.4061C338.642 26.4596 342.459 23.3864 346.898 21.5545C352.683 19.1786 358.904 18.0488 365.154 18.2387C370.218 18.2316 375.261 18.893 380.152 20.2057C383.857 21.1511 387.416 22.6025 390.726 24.5191C391.318 24.8622 391.765 25.4098 391.982 26.0592C392.199 26.7086 392.172 27.415 391.905 28.0457L389.996 32.6963C389.846 33.0644 389.621 33.3968 389.334 33.6714C389.047 33.9461 388.705 34.1567 388.331 34.2895C387.957 34.4223 387.559 34.4741 387.163 34.4417C386.767 34.4092 386.383 34.2932 386.036 34.1013C383.231 32.5811 380.269 31.3704 377.203 30.4904C373.282 29.2937 369.211 28.6645 365.112 28.6217C358.147 28.6217 352.923 29.8909 349.44 32.4293C347.819 33.5036 346.493 34.9659 345.58 36.6835C344.668 38.401 344.199 40.3194 344.216 42.2644C344.166 43.6046 344.404 44.9399 344.912 46.1806C345.421 47.4214 346.189 48.5389 347.165 49.4581C349.28 51.3863 351.771 52.855 354.481 53.7715C358.374 55.0699 362.336 56.1534 366.348 57.0171C371.653 58.2201 376.87 59.7832 381.963 61.6958C385.878 63.2394 389.365 65.7017 392.13 68.8754C394.939 72.0695 396.343 76.3735 396.343 81.7875C396.389 86.1879 395.112 90.5006 392.678 94.1657C389.889 98.1645 385.98 101.249 381.444 103.031C375.588 105.36 369.318 106.469 363.019 106.291C356.659 106.278 350.342 105.234 344.314 103.2Z" fill="#055B8D"/>
<path d="M119.546 57.4807H90.1264L79.5101 33.75C79.1226 32.8956 78.4928 32.1738 77.6989 31.6743C76.9051 31.1747 75.9821 30.9194 75.0445 30.94C74.1141 30.9754 73.2156 31.2888 72.4647 31.8397C71.7139 32.3906 71.1451 33.1538 70.8317 34.031L58.6285 67.4704L49.3463 44.2876C49.0075 43.4388 48.4284 42.7074 47.68 42.1832C46.9316 41.6591 46.0465 41.365 45.1334 41.3371H44.9368C44.0283 41.3432 43.1408 41.6116 42.3811 42.1101C41.6213 42.6086 41.0215 43.3159 40.6538 44.1471L34.6014 57.5229H9.6193C10.6862 45.5726 15.7923 34.3431 24.0953 25.6866C32.3983 17.03 43.4023 11.4636 55.2923 9.90534C67.1823 8.34711 79.248 10.8902 89.4993 17.1151C99.7505 23.34 107.575 32.8749 111.682 44.1471C112.108 45.3194 112.982 46.2745 114.111 46.8026C115.243 47.3227 116.534 47.3782 117.706 46.9572C118.878 46.5308 119.833 45.6566 120.361 44.5265C120.625 43.9676 120.774 43.3614 120.801 42.7437C120.827 42.126 120.73 41.5092 120.515 40.9297C115.525 27.1898 105.854 15.6493 93.2027 8.33634C80.5511 1.0234 65.7281 -1.594 51.3389 0.944151C36.9496 3.4823 23.9149 11.0136 14.5256 22.2144C5.13621 33.4152 -0.00694063 47.5687 7.02975e-06 62.1875C7.02975e-06 62.8056 0.121688 63.4177 0.358102 63.9888C0.594517 64.5598 0.941035 65.0787 1.37787 65.5157C1.81471 65.9528 2.33331 66.2995 2.90406 66.5361C3.47482 66.7726 4.08655 66.8943 4.70433 66.8943H37.6767C38.5857 66.89 39.4739 66.6223 40.234 66.1236C40.9941 65.6249 41.5935 64.9166 41.9598 64.0843L44.7683 58.0006L54.5983 82.3776C54.9471 83.2505 55.5499 83.9985 56.3286 84.5245C57.1073 85.0506 58.026 85.3306 58.9656 85.3281H58.9796C59.9031 85.2887 60.7947 84.9787 61.5436 84.4367C62.2926 83.8946 62.8659 83.1445 63.1924 82.2793L75.6062 48.1795L82.8523 64.1124C83.2122 64.935 83.8004 65.637 84.5472 66.135C85.2939 66.6331 86.1678 66.9064 87.0651 66.9224H114.631C113.519 78.8377 108.392 90.0208 100.09 98.6361C91.789 107.251 80.8068 112.787 68.9464 114.334C57.0861 115.881 45.0523 113.348 34.8205 107.151C24.5886 100.953 16.7667 91.4596 12.6385 80.2279C12.4213 79.6418 12.088 79.1056 11.6584 78.6517C11.2288 78.1978 10.712 77.8355 10.1389 77.5865C9.29621 77.1877 8.35387 77.0492 7.43215 77.1886C6.51043 77.328 5.65115 77.7391 4.96398 78.3693C4.2768 78.9995 3.79292 79.8204 3.57409 80.727C3.35527 81.6336 3.41142 82.5849 3.73538 83.4595C8.73987 97.1843 18.4153 108.707 31.0641 116.007C43.7128 123.307 58.5268 125.916 72.9068 123.378C87.2867 120.84 100.314 113.316 109.703 102.127C119.091 90.9373 124.242 76.7972 124.25 62.1875C124.247 60.9404 123.75 59.7453 122.868 58.8634C121.987 57.9815 120.793 57.4844 119.546 57.4807Z" fill="#055B8D"/>
<path d="M36.0146 158.238H37.7906V173.502H47.1986V175.038H36.0146V158.238ZM60.7303 170.55H51.3703L49.3543 175.038H47.5063L55.1863 158.238H56.9383L64.6183 175.038H62.7463L60.7303 170.55ZM60.0823 169.11L56.0503 160.086L52.0183 169.11H60.0823ZM77.9815 166.374C79.0855 166.614 79.9335 167.094 80.5255 167.814C81.1335 168.518 81.4375 169.43 81.4375 170.55C81.4375 171.99 80.9015 173.102 79.8295 173.886C78.7735 174.654 77.2055 175.038 75.1255 175.038H67.3975V158.238H74.6455C76.5175 158.238 77.9655 158.614 78.9895 159.366C80.0295 160.118 80.5495 161.182 80.5495 162.558C80.5495 163.486 80.3175 164.278 79.8535 164.934C79.4055 165.574 78.7815 166.054 77.9815 166.374ZM69.1735 159.702V165.798H74.5255C75.8855 165.798 76.9335 165.542 77.6695 165.03C78.4055 164.502 78.7735 163.742 78.7735 162.75C78.7735 161.758 78.4055 161.006 77.6695 160.494C76.9335 159.966 75.8855 159.702 74.5255 159.702H69.1735ZM75.1015 173.574C76.6055 173.574 77.7415 173.318 78.5095 172.806C79.2775 172.294 79.6615 171.494 79.6615 170.406C79.6615 168.31 78.1415 167.262 75.1015 167.262H69.1735V173.574H75.1015ZM92.8352 175.182C91.1712 175.182 89.6592 174.814 88.2992 174.078C86.9552 173.326 85.8992 172.302 85.1312 171.006C84.3792 169.71 84.0032 168.254 84.0032 166.638C84.0032 165.022 84.3792 163.566 85.1312 162.27C85.8992 160.974 86.9552 159.958 88.2992 159.222C89.6592 158.47 91.1712 158.094 92.8352 158.094C94.4992 158.094 95.9952 158.462 97.3232 159.198C98.6672 159.934 99.7232 160.958 100.491 162.27C101.259 163.566 101.643 165.022 101.643 166.638C101.643 168.254 101.259 169.718 100.491 171.03C99.7232 172.326 98.6672 173.342 97.3232 174.078C95.9952 174.814 94.4992 175.182 92.8352 175.182ZM92.8352 173.598C94.1632 173.598 95.3632 173.302 96.4352 172.71C97.5072 172.102 98.3472 171.27 98.9552 170.214C99.5632 169.142 99.8672 167.95 99.8672 166.638C99.8672 165.326 99.5632 164.142 98.9552 163.086C98.3472 162.014 97.5072 161.182 96.4352 160.59C95.3632 159.982 94.1632 159.678 92.8352 159.678C91.5072 159.678 90.2992 159.982 89.2112 160.59C88.1392 161.182 87.2912 162.014 86.6672 163.086C86.0592 164.142 85.7552 165.326 85.7552 166.638C85.7552 167.95 86.0592 169.142 86.6672 170.214C87.2912 171.27 88.1392 172.102 89.2112 172.71C90.2992 173.302 91.5072 173.598 92.8352 173.598ZM117.096 175.038L113.256 169.638C112.824 169.686 112.376 169.71 111.912 169.71H107.4V175.038H105.624V158.238H111.912C114.056 158.238 115.736 158.75 116.952 159.774C118.168 160.798 118.776 162.206 118.776 163.998C118.776 165.31 118.44 166.422 117.768 167.334C117.112 168.23 116.168 168.878 114.936 169.278L119.04 175.038H117.096ZM111.864 168.198C113.528 168.198 114.8 167.83 115.68 167.094C116.56 166.358 117 165.326 117 163.998C117 162.638 116.56 161.598 115.68 160.878C114.8 160.142 113.528 159.774 111.864 159.774H107.4V168.198H111.864ZM133.504 170.55H124.144L122.128 175.038H120.28L127.96 158.238H129.712L137.392 175.038H135.52L133.504 170.55ZM132.856 169.11L128.824 160.086L124.792 169.11H132.856ZM142.591 159.774H136.687V158.238H150.271V159.774H144.367V175.038H142.591V159.774ZM160.218 175.182C158.554 175.182 157.042 174.814 155.682 174.078C154.338 173.326 153.282 172.302 152.514 171.006C151.762 169.71 151.386 168.254 151.386 166.638C151.386 165.022 151.762 163.566 152.514 162.27C153.282 160.974 154.338 159.958 155.682 159.222C157.042 158.47 158.554 158.094 160.218 158.094C161.882 158.094 163.378 158.462 164.706 159.198C166.05 159.934 167.106 160.958 167.874 162.27C168.642 163.566 169.026 165.022 169.026 166.638C169.026 168.254 168.642 169.718 167.874 171.03C167.106 172.326 166.05 173.342 164.706 174.078C163.378 174.814 161.882 175.182 160.218 175.182ZM160.218 173.598C161.546 173.598 162.746 173.302 163.818 172.71C164.89 172.102 165.73 171.27 166.338 170.214C166.946 169.142 167.25 167.95 167.25 166.638C167.25 165.326 166.946 164.142 166.338 163.086C165.73 162.014 164.89 161.182 163.818 160.59C162.746 159.982 161.546 159.678 160.218 159.678C158.89 159.678 157.682 159.982 156.594 160.59C155.522 161.182 154.674 162.014 154.05 163.086C153.442 164.142 153.138 165.326 153.138 166.638C153.138 167.95 153.442 169.142 154.05 170.214C154.674 171.27 155.522 172.102 156.594 172.71C157.682 173.302 158.89 173.598 160.218 173.598ZM161.946 153.894H164.226L160.338 156.87H158.658L161.946 153.894ZM184.479 175.038L180.639 169.638C180.207 169.686 179.759 169.71 179.295 169.71H174.783V175.038H173.007V158.238H179.295C181.439 158.238 183.119 158.75 184.335 159.774C185.551 160.798 186.159 162.206 186.159 163.998C186.159 165.31 185.823 166.422 185.151 167.334C184.495 168.23 183.551 168.878 182.319 169.278L186.423 175.038H184.479ZM179.247 168.198C180.911 168.198 182.183 167.83 183.063 167.094C183.943 166.358 184.383 165.326 184.383 163.998C184.383 162.638 183.943 161.598 183.063 160.878C182.183 160.142 180.911 159.774 179.247 159.774H174.783V168.198H179.247ZM190.351 158.238H192.127V175.038H190.351V158.238ZM204.937 175.182C203.273 175.182 201.761 174.814 200.401 174.078C199.057 173.326 198.001 172.302 197.233 171.006C196.481 169.71 196.105 168.254 196.105 166.638C196.105 165.022 196.481 163.566 197.233 162.27C198.001 160.974 199.057 159.958 200.401 159.222C201.761 158.47 203.273 158.094 204.937 158.094C206.601 158.094 208.097 158.462 209.425 159.198C210.769 159.934 211.825 160.958 212.593 162.27C213.361 163.566 213.745 165.022 213.745 166.638C213.745 168.254 213.361 169.718 212.593 171.03C211.825 172.326 210.769 173.342 209.425 174.078C208.097 174.814 206.601 175.182 204.937 175.182ZM204.937 173.598C206.265 173.598 207.465 173.302 208.537 172.71C209.609 172.102 210.449 171.27 211.057 170.214C211.665 169.142 211.969 167.95 211.969 166.638C211.969 165.326 211.665 164.142 211.057 163.086C210.449 162.014 209.609 161.182 208.537 160.59C207.465 159.982 206.265 159.678 204.937 159.678C203.609 159.678 202.401 159.982 201.313 160.59C200.241 161.182 199.393 162.014 198.769 163.086C198.161 164.142 197.857 165.326 197.857 166.638C197.857 167.95 198.161 169.142 198.769 170.214C199.393 171.27 200.241 172.102 201.313 172.71C202.401 173.302 203.609 173.598 204.937 173.598ZM224.007 158.238H230.847C232.623 158.238 234.191 158.598 235.551 159.318C236.911 160.022 237.967 161.014 238.719 162.294C239.471 163.558 239.847 165.006 239.847 166.638C239.847 168.27 239.471 169.726 238.719 171.006C237.967 172.27 236.911 173.262 235.551 173.982C234.191 174.686 232.623 175.038 230.847 175.038H224.007V158.238ZM230.751 173.502C232.223 173.502 233.511 173.214 234.615 172.638C235.719 172.046 236.575 171.238 237.183 170.214C237.791 169.174 238.095 167.982 238.095 166.638C238.095 165.294 237.791 164.11 237.183 163.086C236.575 162.046 235.719 161.238 234.615 160.662C233.511 160.07 232.223 159.774 230.751 159.774H225.783V173.502H230.751ZM255.715 173.502V175.038H243.835V158.238H255.355V159.774H245.611V165.75H254.299V167.262H245.611V173.502H255.715ZM266.171 158.238H267.947V175.038H266.171V158.238ZM287.453 158.238V175.038H285.989L275.189 161.406V175.038H273.413V158.238H274.877L285.701 171.87V158.238H287.453ZM300.281 175.182C298.617 175.182 297.105 174.814 295.745 174.078C294.401 173.326 293.345 172.302 292.577 171.006C291.825 169.71 291.449 168.254 291.449 166.638C291.449 165.022 291.825 163.566 292.577 162.27C293.345 160.974 294.401 159.958 295.745 159.222C297.105 158.47 298.617 158.094 300.281 158.094C301.945 158.094 303.441 158.462 304.769 159.198C306.113 159.934 307.169 160.958 307.937 162.27C308.705 163.566 309.089 165.022 309.089 166.638C309.089 168.254 308.705 169.718 307.937 171.03C307.169 172.326 306.113 173.342 304.769 174.078C303.441 174.814 301.945 175.182 300.281 175.182ZM300.281 173.598C301.609 173.598 302.809 173.302 303.881 172.71C304.953 172.102 305.793 171.27 306.401 170.214C307.009 169.142 307.313 167.95 307.313 166.638C307.313 165.326 307.009 164.142 306.401 163.086C305.793 162.014 304.953 161.182 303.881 160.59C302.809 159.982 301.609 159.678 300.281 159.678C298.953 159.678 297.745 159.982 296.657 160.59C295.585 161.182 294.737 162.014 294.113 163.086C293.505 164.142 293.201 165.326 293.201 166.638C293.201 167.95 293.505 169.142 294.113 170.214C294.737 171.27 295.585 172.102 296.657 172.71C297.745 173.302 298.953 173.598 300.281 173.598ZM326.522 158.238L319.082 175.038H317.33L309.89 158.238H311.81L318.242 172.83L324.722 158.238H326.522ZM338.98 170.55H329.62L327.604 175.038H325.756L333.436 158.238H335.188L342.868 175.038H340.996L338.98 170.55ZM338.332 169.11L334.3 160.086L330.268 169.11H338.332ZM352.709 175.182C351.045 175.182 349.541 174.814 348.197 174.078C346.869 173.342 345.821 172.326 345.053 171.03C344.301 169.718 343.925 168.254 343.925 166.638C343.925 165.022 344.301 163.566 345.053 162.27C345.821 160.958 346.877 159.934 348.221 159.198C349.565 158.462 351.069 158.094 352.733 158.094C353.981 158.094 355.133 158.302 356.189 158.718C357.245 159.134 358.141 159.742 358.877 160.542L357.749 161.67C356.437 160.342 354.781 159.678 352.781 159.678C351.453 159.678 350.245 159.982 349.157 160.59C348.069 161.198 347.213 162.03 346.589 163.086C345.981 164.142 345.677 165.326 345.677 166.638C345.677 167.95 345.981 169.134 346.589 170.19C347.213 171.246 348.069 172.078 349.157 172.686C350.245 173.294 351.453 173.598 352.781 173.598C354.797 173.598 356.453 172.926 357.749 171.582L358.877 172.71C358.141 173.51 357.237 174.126 356.165 174.558C355.109 174.974 353.957 175.182 352.709 175.182ZM351.845 180.318C351.061 180.318 350.389 180.134 349.829 179.766L350.237 178.854C350.701 179.158 351.229 179.31 351.821 179.31C352.301 179.31 352.669 179.214 352.925 179.022C353.181 178.83 353.309 178.55 353.309 178.182C353.309 177.846 353.181 177.574 352.925 177.366C352.685 177.174 352.317 177.078 351.821 177.078H351.269L351.845 174.894H352.877L352.517 176.286C353.173 176.35 353.677 176.55 354.029 176.886C354.381 177.238 354.557 177.686 354.557 178.23C354.557 178.87 354.309 179.374 353.813 179.742C353.317 180.126 352.661 180.318 351.845 180.318ZM372.777 170.55H363.417L361.401 175.038H359.553L367.233 158.238H368.985L376.665 175.038H374.793L372.777 170.55ZM372.129 169.11L368.097 160.086L364.065 169.11H372.129ZM369.753 156.726C369.385 156.726 369.057 156.646 368.769 156.486C368.481 156.31 368.169 156.07 367.833 155.766C367.545 155.526 367.313 155.358 367.137 155.262C366.977 155.15 366.801 155.094 366.609 155.094C366.241 155.094 365.945 155.23 365.721 155.502C365.497 155.774 365.377 156.15 365.361 156.63H364.329C364.361 155.83 364.569 155.19 364.953 154.71C365.337 154.23 365.849 153.99 366.489 153.99C366.857 153.99 367.177 154.07 367.449 154.23C367.737 154.39 368.065 154.63 368.433 154.95C368.689 155.174 368.905 155.342 369.081 155.454C369.257 155.566 369.441 155.622 369.633 155.622C369.985 155.622 370.273 155.494 370.497 155.238C370.721 154.966 370.849 154.598 370.881 154.134H371.913C371.881 154.918 371.673 155.55 371.289 156.03C370.905 156.494 370.393 156.726 369.753 156.726ZM386.554 175.182C384.89 175.182 383.378 174.814 382.018 174.078C380.674 173.326 379.618 172.302 378.85 171.006C378.098 169.71 377.722 168.254 377.722 166.638C377.722 165.022 378.098 163.566 378.85 162.27C379.618 160.974 380.674 159.958 382.018 159.222C383.378 158.47 384.89 158.094 386.554 158.094C388.218 158.094 389.714 158.462 391.042 159.198C392.386 159.934 393.442 160.958 394.21 162.27C394.978 163.566 395.362 165.022 395.362 166.638C395.362 168.254 394.978 169.718 394.21 171.03C393.442 172.326 392.386 173.342 391.042 174.078C389.714 174.814 388.218 175.182 386.554 175.182ZM386.554 173.598C387.882 173.598 389.082 173.302 390.154 172.71C391.226 172.102 392.066 171.27 392.674 170.214C393.282 169.142 393.586 167.95 393.586 166.638C393.586 165.326 393.282 164.142 392.674 163.086C392.066 162.014 391.226 161.182 390.154 160.59C389.082 159.982 387.882 159.678 386.554 159.678C385.226 159.678 384.018 159.982 382.93 160.59C381.858 161.182 381.01 162.014 380.386 163.086C379.778 164.142 379.474 165.326 379.474 166.638C379.474 167.95 379.778 169.142 380.386 170.214C381.01 171.27 381.858 172.102 382.93 172.71C384.018 173.302 385.226 173.598 386.554 173.598ZM84.138 188.774H78.234V187.238H91.818V188.774H85.914V204.038H84.138V188.774ZM106.535 202.502V204.038H94.6553V187.238H106.175V188.774H96.4313V194.75H105.119V196.262H96.4313V202.502H106.535ZM117.912 204.182C116.248 204.182 114.744 203.814 113.4 203.078C112.072 202.342 111.024 201.326 110.256 200.03C109.504 198.718 109.128 197.254 109.128 195.638C109.128 194.022 109.504 192.566 110.256 191.27C111.024 189.958 112.08 188.934 113.424 188.198C114.768 187.462 116.272 187.094 117.936 187.094C119.184 187.094 120.336 187.302 121.392 187.718C122.448 188.134 123.344 188.742 124.08 189.542L122.952 190.67C121.64 189.342 119.984 188.678 117.984 188.678C116.656 188.678 115.448 188.982 114.36 189.59C113.272 190.198 112.416 191.03 111.792 192.086C111.184 193.142 110.88 194.326 110.88 195.638C110.88 196.95 111.184 198.134 111.792 199.19C112.416 200.246 113.272 201.078 114.36 201.686C115.448 202.294 116.656 202.598 117.984 202.598C120 202.598 121.656 201.926 122.952 200.582L124.08 201.71C123.344 202.51 122.44 203.126 121.368 203.558C120.312 203.974 119.16 204.182 117.912 204.182ZM141.906 187.238V204.038H140.442L129.642 190.406V204.038H127.866V187.238H129.33L140.154 200.87V187.238H141.906ZM154.734 204.182C153.07 204.182 151.558 203.814 150.198 203.078C148.854 202.326 147.798 201.302 147.03 200.006C146.278 198.71 145.902 197.254 145.902 195.638C145.902 194.022 146.278 192.566 147.03 191.27C147.798 189.974 148.854 188.958 150.198 188.222C151.558 187.47 153.07 187.094 154.734 187.094C156.398 187.094 157.894 187.462 159.222 188.198C160.566 188.934 161.622 189.958 162.39 191.27C163.158 192.566 163.542 194.022 163.542 195.638C163.542 197.254 163.158 198.718 162.39 200.03C161.622 201.326 160.566 202.342 159.222 203.078C157.894 203.814 156.398 204.182 154.734 204.182ZM154.734 202.598C156.062 202.598 157.262 202.302 158.334 201.71C159.406 201.102 160.246 200.27 160.854 199.214C161.462 198.142 161.766 196.95 161.766 195.638C161.766 194.326 161.462 193.142 160.854 192.086C160.246 191.014 159.406 190.182 158.334 189.59C157.262 188.982 156.062 188.678 154.734 188.678C153.406 188.678 152.198 188.982 151.11 189.59C150.038 190.182 149.19 191.014 148.566 192.086C147.958 193.142 147.654 194.326 147.654 195.638C147.654 196.95 147.958 198.142 148.566 199.214C149.19 200.27 150.038 201.102 151.11 201.71C152.198 202.302 153.406 202.598 154.734 202.598ZM167.522 187.238H169.298V202.502H178.706V204.038H167.522V187.238ZM188.671 204.182C187.007 204.182 185.495 203.814 184.135 203.078C182.791 202.326 181.735 201.302 180.967 200.006C180.215 198.71 179.839 197.254 179.839 195.638C179.839 194.022 180.215 192.566 180.967 191.27C181.735 189.974 182.791 188.958 184.135 188.222C185.495 187.47 187.007 187.094 188.671 187.094C190.335 187.094 191.831 187.462 193.159 188.198C194.503 188.934 195.559 189.958 196.327 191.27C197.095 192.566 197.479 194.022 197.479 195.638C197.479 197.254 197.095 198.718 196.327 200.03C195.559 201.326 194.503 202.342 193.159 203.078C191.831 203.814 190.335 204.182 188.671 204.182ZM188.671 202.598C189.999 202.598 191.199 202.302 192.271 201.71C193.343 201.102 194.183 200.27 194.791 199.214C195.399 198.142 195.703 196.95 195.703 195.638C195.703 194.326 195.399 193.142 194.791 192.086C194.183 191.014 193.343 190.182 192.271 189.59C191.199 188.982 189.999 188.678 188.671 188.678C187.343 188.678 186.135 188.982 185.047 189.59C183.975 190.182 183.127 191.014 182.503 192.086C181.895 193.142 181.591 194.326 181.591 195.638C181.591 196.95 181.895 198.142 182.503 199.214C183.127 200.27 183.975 201.102 185.047 201.71C186.135 202.302 187.343 202.598 188.671 202.598ZM190.399 182.894H192.679L188.791 185.87H187.111L190.399 182.894ZM213.292 195.638H214.996V202.046C214.212 202.734 213.284 203.262 212.212 203.63C211.14 203.998 210.012 204.182 208.828 204.182C207.148 204.182 205.636 203.814 204.292 203.078C202.948 202.342 201.892 201.326 201.124 200.03C200.356 198.718 199.972 197.254 199.972 195.638C199.972 194.022 200.356 192.566 201.124 191.27C201.892 189.958 202.948 188.934 204.292 188.198C205.636 187.462 207.156 187.094 208.852 187.094C210.132 187.094 211.308 187.302 212.38 187.718C213.452 188.118 214.356 188.718 215.092 189.518L213.988 190.646C212.66 189.334 210.972 188.678 208.924 188.678C207.564 188.678 206.332 188.982 205.228 189.59C204.14 190.182 203.284 191.014 202.66 192.086C202.036 193.142 201.724 194.326 201.724 195.638C201.724 196.95 202.036 198.134 202.66 199.19C203.284 200.246 204.14 201.078 205.228 201.686C206.316 202.294 207.54 202.598 208.9 202.598C210.628 202.598 212.092 202.166 213.292 201.302V195.638ZM220.022 187.238H221.798V204.038H220.022V187.238ZM234.561 204.182C232.897 204.182 231.393 203.814 230.049 203.078C228.721 202.342 227.673 201.326 226.905 200.03C226.153 198.718 225.777 197.254 225.777 195.638C225.777 194.022 226.153 192.566 226.905 191.27C227.673 189.958 228.729 188.934 230.073 188.198C231.417 187.462 232.921 187.094 234.585 187.094C235.833 187.094 236.985 187.302 238.041 187.718C239.097 188.134 239.993 188.742 240.729 189.542L239.601 190.67C238.289 189.342 236.633 188.678 234.633 188.678C233.305 188.678 232.097 188.982 231.009 189.59C229.921 190.198 229.065 191.03 228.441 192.086C227.833 193.142 227.529 194.326 227.529 195.638C227.529 196.95 227.833 198.134 228.441 199.19C229.065 200.246 229.921 201.078 231.009 201.686C232.097 202.294 233.305 202.598 234.633 202.598C236.649 202.598 238.305 201.926 239.601 200.582L240.729 201.71C239.993 202.51 239.089 203.126 238.017 203.558C236.961 203.974 235.809 204.182 234.561 204.182ZM254.629 199.55H245.269L243.253 204.038H241.405L249.085 187.238H250.837L258.517 204.038H256.645L254.629 199.55ZM253.981 198.11L249.949 189.086L245.917 198.11H253.981ZM279.457 202.502V204.038H267.577V187.238H279.097V188.774H269.353V194.75H278.041V196.262H269.353V202.502H279.457ZM301.08 187.238V204.038H299.376V190.598L292.776 201.902H291.936L285.336 190.67V204.038H283.632V187.238H285.096L292.392 199.694L299.616 187.238H301.08ZM317.467 204.182C316.219 204.182 315.019 203.982 313.867 203.582C312.731 203.182 311.851 202.654 311.227 201.998L311.923 200.63C312.531 201.238 313.339 201.734 314.347 202.118C315.355 202.486 316.395 202.67 317.467 202.67C318.971 202.67 320.099 202.398 320.851 201.854C321.603 201.294 321.979 200.574 321.979 199.694C321.979 199.022 321.771 198.486 321.355 198.086C320.955 197.686 320.459 197.382 319.867 197.174C319.275 196.95 318.451 196.71 317.395 196.454C316.131 196.134 315.123 195.83 314.371 195.542C313.619 195.238 312.971 194.782 312.427 194.174C311.899 193.566 311.635 192.742 311.635 191.702C311.635 190.854 311.859 190.086 312.307 189.398C312.755 188.694 313.443 188.134 314.371 187.718C315.299 187.302 316.451 187.094 317.827 187.094C318.787 187.094 319.723 187.23 320.635 187.502C321.563 187.758 322.363 188.118 323.035 188.582L322.435 189.998C321.731 189.534 320.979 189.19 320.179 188.966C319.379 188.726 318.595 188.606 317.827 188.606C316.355 188.606 315.243 188.894 314.491 189.47C313.755 190.03 313.387 190.758 313.387 191.654C313.387 192.326 313.587 192.87 313.987 193.286C314.403 193.686 314.915 193.998 315.523 194.222C316.147 194.43 316.979 194.662 318.019 194.918C319.251 195.222 320.243 195.526 320.995 195.83C321.763 196.118 322.411 196.566 322.939 197.174C323.467 197.766 323.731 198.574 323.731 199.598C323.731 200.446 323.499 201.222 323.035 201.926C322.587 202.614 321.891 203.166 320.947 203.582C320.003 203.982 318.843 204.182 317.467 204.182ZM338.137 199.55H328.777L326.761 204.038H324.913L332.593 187.238H334.345L342.025 204.038H340.153L338.137 199.55ZM337.489 198.11L333.457 189.086L329.425 198.11H337.489ZM351.22 204.182C349.044 204.182 347.348 203.558 346.132 202.31C344.916 201.062 344.308 199.246 344.308 196.862V187.238H346.084V196.79C346.084 198.742 346.524 200.198 347.404 201.158C348.284 202.118 349.556 202.598 351.22 202.598C352.9 202.598 354.18 202.118 355.06 201.158C355.94 200.198 356.38 198.742 356.38 196.79V187.238H358.108V196.862C358.108 199.246 357.5 201.062 356.284 202.31C355.084 203.558 353.396 204.182 351.22 204.182ZM352.948 182.894H355.228L351.34 185.87H349.66L352.948 182.894ZM363.46 187.238H370.3C372.076 187.238 373.644 187.598 375.004 188.318C376.364 189.022 377.42 190.014 378.172 191.294C378.924 192.558 379.3 194.006 379.3 195.638C379.3 197.27 378.924 198.726 378.172 200.006C377.42 201.27 376.364 202.262 375.004 202.982C373.644 203.686 372.076 204.038 370.3 204.038H363.46V187.238ZM370.204 202.502C371.676 202.502 372.964 202.214 374.068 201.638C375.172 201.046 376.028 200.238 376.636 199.214C377.244 198.174 377.548 196.982 377.548 195.638C377.548 194.294 377.244 193.11 376.636 192.086C376.028 191.046 375.172 190.238 374.068 189.662C372.964 189.07 371.676 188.774 370.204 188.774H365.236V202.502H370.204ZM395.168 202.502V204.038H383.288V187.238H394.808V188.774H385.064V194.75H393.752V196.262H385.064V202.502H395.168Z" fill="#055B8D"/>
<path d="M141.298 132.031H398" stroke="#62A3C9" stroke-width="2" stroke-linecap="round" stroke-linejoin="round"/>
</svg>
