<svg width="946" height="481" viewBox="0 0 946 481" fill="none" xmlns="http://www.w3.org/2000/svg">
<g clip-path="url(#clip0_37_929)">
<path d="M193.805 299.065V276.503H201.96L206.278 280.823H209.636L215.392 274.583H212.994V269.782H221.149L224.507 266.902L227.865 270.743V277.463L229.784 279.383H231.703L234.101 276.503H251.371L255.689 271.703V276.503H256.648L258.567 278.423V280.823L254.249 285.144V287.544L257.608 290.424H260.966L264.803 286.584H267.202L282.073 294.745H292.147L300.302 302.905H303.181L305.099 305.305V315.866L298.863 322.107V327.867L295.025 331.708V354.75L283.992 366.27H277.756L267.202 376.831V386.912L259.526 394.593V405.154L255.689 408.514V403.234L245.135 392.673H241.297L251.371 382.592V375.871L235.061 359.55V343.229H228.825V337.468L223.068 331.708H216.832L211.555 325.947V318.747H207.237L201.001 324.987H194.765L184.691 314.906V308.666L193.805 299.065Z" fill="white" stroke="black"/>
<path d="M511.015 303.589L515.828 298.775V289.146L520.481 284.493H524.812L525.908 283.396L547.754 305.248V307.335L527.192 327.899V319.528C527.192 319.528 511.122 303.589 511.015 303.589Z" fill="white"/>
<path d="M435.227 118.189H445.767L450.003 113.952H453.647L456.06 116.367V118.78H454.632V125.579L470.786 141.737L460.545 151.98L455.079 146.517L456.311 145.285H462.023L463.944 143.364V140.751H462.712L448.083 126.118H440.154L438.308 127.966C438.308 127.966 434.737 124 434.343 124C433.949 124 435.227 118.189 435.227 118.189Z" fill="white"/>
<path d="M404.026 109.066C403.077 108.116 413.228 109.066 413.228 109.066L410.544 106.382L412.652 104.272H416.007L417.973 106.238L425.401 98.8068L437.814 111.224V112.997L435.202 115.61L437.43 117.846V123.934C437.43 123.934 437.19 124.893 437.43 124.893C437.67 124.893 439.514 126.978 439.514 126.978L435.223 131.27H428.467L423.712 136.026L413.509 125.82V116.845L409.246 112.581H404.024C404.024 112.581 404.218 109.261 404.026 109.066Z" fill="white"/>
<path d="M392.515 135.555V128.723L395.424 125.813H413.511L423.313 135.618L416.672 142.259V145.676L410.033 152.318L400.554 152.556L397.701 149.63H392.768L392.515 135.555Z" fill="white"/>
<path d="M54.945 72.6213C53.6265 72.6213 88.6349 38.9241 88.6349 38.9241L91.905 42.1961H126.085L131.973 37.1233H140.641L146.856 43.3395H186.596L194.283 35.978H208.184V43.8301H214.236L231.244 27.3074H251.523L269.677 46.1197L250.542 65.9145L234.434 49.8005L242.366 41.8664L237.949 37.4501H230.099L216.688 50.5331H208.676L200.007 59.8573H194.12L177.765 76.0513V79.6501H183.812L194.442 89.7957L194.605 100.266H204.419V91.5976C204.419 91.5976 215.866 80.3096 215.866 80.1467C215.866 79.9837 215.379 73.2759 215.866 73.2759C216.354 73.2759 225.516 63.6239 225.516 63.6239H233.529L240.893 70.9853V76.7108C240.893 76.7108 244.736 77.1205 245.145 76.7108L250.542 71.3122L259.125 79.8969L257.077 81.9456L268.36 93.2336V97.164L265.58 99.9453H257.902L252.995 104.853H235.821L239.91 108.943L234.351 114.503L238.521 118.675L230.262 126.933L227.154 123.825H195.75L187.246 132.331H183.484L158.299 107.139H75.0601L67.9464 100.017V90.6162C67.9464 90.6162 70.5631 88.2437 70.4402 88.1217C70.3173 87.9998 55.2717 72.6213 54.945 72.6213Z" fill="white"/>
<path d="M54.0195 132.507L69.1558 117.367V112.602L74.8387 106.919H158.304L183.6 132.222H187.253L195.702 123.771H219.569L169.158 174.197V193.07H167.28L162.94 188.728V179.941L158.441 175.441H143.567L141.53 177.479H128.961L117.675 188.767L108.32 179.411H103.346L97.4709 173.534H81.1165L74.7919 167.208C74.3686 166.784 64.3925 167.208 64.3925 167.208L55.303 158.115C55.303 158.115 54.3365 132.825 54.0195 132.507Z" fill="white"/>
<path d="M392.892 133.29H399.938V135.933L396.719 139.152V146.031L395.177 147.572V150.571H390.317C390.317 150.571 390.52 141.422 390.317 141.422C390.114 141.422 393.06 138.678 393.06 138.678C393.06 138.678 392.96 133.29 392.892 133.29Z" fill="white"/>
<path d="M317.126 303.781L319.069 301.838H321.012L322.336 300.512H323.131V301.307V302.014H322.425L320.659 303.781H317.126Z" stroke="#9F9F9F" stroke-width="2" stroke-miterlimit="10"/>
<path d="M190.23 238.362L173.907 254.776L170.28 258.404V258.577V260.823V271.19L164.062 277.41V280.52L161.298 283.285V287.431V292.96H163.37V295.033L158.534 299.871V305.4L166.998 313.867V316.458L170.193 319.655V321.988V326.135L176.973 332.916V336.501L182.781 342.311H185.481L197.085 353.919V371.403V393.518L198.71 395.143L199.92 396.353V414.943V417.708L198.4 419.228V420.472L200.75 422.823V433.603L201.925 434.779H206.553V445.007L210.009 448.463L206.036 452.436L208.8 455.201V459.521L212.168 462.89V467.123L224.388 479.347L225.943 480.902L232.464 480.859H240.496L228.145 468.505V464.531L234.58 458.095L232.853 456.368L228.059 451.573V449.586L231.6 446.043V441.033L228.664 438.096V432.221H233.846V423.755H241.964L250.868 414.848L245.937 409.916H254.73L259.377 405.268V394.868L267.118 387.126V376.694L277.893 365.917H283.636L294.907 354.643V351.533V331.922L298.793 328.035V322.333L305.184 315.94V306.783V305.055L303.025 302.895H300.52L292.445 294.818H284.974H281.865L267.011 286.395H264.937L260.921 290.671H256.992L256.301 289.85L255.265 288.813L254.228 287.777V285.013L258.546 280.693V278.101L256.732 276.287L255.955 276.373V270.498L248.528 263.07H236.955L233.586 259.7L231.773 257.713L228.491 254.43H227.627L221.496 248.297H219.682L217.134 245.748H214.154L211.628 248.275H208.627L206.435 246.083H201.372V243.545H193.081L191.526 245.1V250.802H190.317L190.23 245.878V242.508V242.163V238.362Z" stroke="#9F9F9F" stroke-width="2" stroke-miterlimit="10"/>
<path d="M259.41 281.902L255.955 285.358V287.086L257.51 288.641H259.41L262.778 285.272L259.41 281.902Z" stroke="#9F9F9F" stroke-width="2" stroke-miterlimit="10"/>
<path d="M190.23 242.163L185.481 247.346V251.148L197.745 263.415H202.062V264.625V276.718H194.117V293.651H185.826L177.189 285.013H171.317L164.062 277.41" stroke="#9F9F9F" stroke-width="2" stroke-miterlimit="10"/>
<path d="M202.062 276.719L206.381 281.038H209.317L215.104 275.25H212.772V269.808H221.064L224.345 266.525V258.75V257.368L227.627 254.43" stroke="#9F9F9F" stroke-width="2" stroke-miterlimit="10"/>
<path d="M224.345 266.525L227.972 270.153V277.065L230.391 279.483H231.773L235.055 276.2H239.719H249.046H251.119L255.955 270.498" stroke="#9F9F9F" stroke-width="2" stroke-miterlimit="10"/>
<path d="M236.955 263.07L233.5 266.698V270.845V272.572L236.87 276.201" stroke="#9F9F9F" stroke-width="2" stroke-miterlimit="10"/>
<path d="M248.355 263.242L244.728 266.87V276.028" stroke="#9F9F9F" stroke-width="2" stroke-miterlimit="10"/>
<path d="M177.189 285.013V291.578L167.171 301.6L165.097 303.673L163.889 304.882L158.534 299.871" stroke="#9F9F9F" stroke-width="2" stroke-miterlimit="10"/>
<path d="M194.117 293.651V298.835L184.789 308.165V315.076L191.008 321.296L194.636 324.925H201.027L207.158 318.791H211.39V326.135L216.918 331.663H223.136L228.664 337.192V343.412H235.227V359.653L251.637 376.068V382.46L244.987 389.113L241.186 392.913H243.865H245.246L255.739 403.41V408.685V408.906" stroke="#9F9F9F" stroke-width="2" stroke-miterlimit="10"/>
<path d="M245.937 409.916L241.189 405L241.186 392.913" stroke="#9F9F9F" stroke-width="2" stroke-miterlimit="10"/>
<path d="M227.972 468.505H219.682L215.363 464.186V445.007L210.614 440.256V418.745L206.165 414.295V404.922V398.011L203.768 395.614V373.476L208.616 368.627V366.91H205.518V361.381L202.581 358.444V354.125L198.176 349.718L195.531 352.364" stroke="#9F9F9F" stroke-width="2" stroke-miterlimit="10"/>
<path d="M208.627 366.91L211.909 363.628H221.754L232.896 374.772H237.991V381.77H245.937L251.291 376.413L251.587 376.117" stroke="#9F9F9F" stroke-width="2" stroke-miterlimit="10"/>
<path d="M198.182 324.925L198.176 349.718" stroke="#9F9F9F" stroke-width="2" stroke-miterlimit="10"/>
<path d="M221.754 363.455V357.926L224.863 354.816H235.227" stroke="#9F9F9F" stroke-width="2" stroke-miterlimit="10"/>
<path d="M137.311 218.32V225.921H138.659" stroke="#9F9F9F" stroke-width="2" stroke-miterlimit="10"/>
<path d="M218.99 123.981L190.835 152.145L168.898 174.088V192.578H166.995L162.674 188.255V179.622L158.189 175.135H143.69L141.951 176.874H128.845L117.812 187.91V191.408L113.019 196.203V210.285L119.497 216.765H128.306L139.534 205.533H145.407L148.774 208.903L139.706 217.973V223.33L138.497 224.54V225.922H150.588L153.352 228.686V234.56V247.001L160.088 253.74L161.125 252.703L165.962 247.865L173.389 255.295L170.28 258.404L167.516 255.64L169.071 254.085L166.826 251.838L163.198 255.467L164.062 256.331L161.643 258.75L160.78 259.613L155.081 253.914L145.924 244.755L137.634 236.461H134.352L132.019 234.128H129.169L121.612 226.57H117.078L115.674 227.974H113.623H110.514L106.206 223.665H101.877L88.3238 210.106V202.769V200.695L79.2089 191.579V187.565L74.1336 182.488V173.742L69.8687 169.475L68.1951 171.15V183.072L75.5145 190.394V201.387H71.4769V193.438L60.7674 182.727V164.412" stroke="#9F9F9F" stroke-width="2" stroke-miterlimit="10"/>
<path d="M217.609 123.981H227.282L230.046 126.745L230.564 127.264L238.682 119.143L234.191 114.651L239.373 109.468L234.536 104.63H252.501L258.028 99.1005H266.319L268.046 97.3728V93.2258L264.074 89.2524L256.992 82.168L259.583 79.5769L251.119 71.1102L245.937 76.2933H241.403V70.4624L234.191 63.2493H225.64L216.055 72.8379V80.2676L204.481 91.8444V100.137H194.462V89.7704L184.099 79.4033H177.708V76.1206L194.117 59.7071H199.645L208.972 50.377H217.263L230.736 36.8999H238.337L242.655 41.2196L234.363 49.5127L250.428 65.5808L270.12 45.8846L251.464 27.2245H231.082L214.845 43.4653H208.627V35.8492H194.103L187.208 42.7473H158.189H146.47L140.915 37.1916H131.88L127.097 41.9747H108.096H92.3127L86.3313 35.9926H50.5329L43.4933 43.0331H37.8797L32.0934 48.822H19.484L15.6834 52.6227L0.137512 68.1729L14.3024 82.3406L24.1478 72.4925H35.5478H54.8943L70.3543 87.9568L67.8489 90.462V99.9648L74.8884 107.005L70.0081 111.886V117.328L54.7217 132.62V137.458V158.365L55.931 159.573L63.5304 167.176" stroke="#9F9F9F" stroke-width="2" stroke-miterlimit="10"/>
<path d="M63.5304 167.176H74.5861L81.1497 173.742H97.0408L102.914 179.616H108.442L116.733 187.91H117.769" stroke="#9F9F9F" stroke-width="2" stroke-miterlimit="10"/>
<path d="M217.609 123.981H196.19L195.499 124.672L187.553 132.62H183.407L163.543 112.75L157.843 107.048H154.389H74.9313" stroke="#9F9F9F" stroke-width="2" stroke-miterlimit="10"/>
<path d="M54.8943 72.4926L88.75 38.6276" stroke="#9F9F9F" stroke-width="2" stroke-miterlimit="10"/>
<path d="M272.365 14.957L277.72 20.3127H290.33L300.78 30.7657V40.8733L295.727 45.9276H287.911V55.7327L298.793 66.6179L304.666 72.4926L314.858 62.2981V54.0051H325.567H329.367L339.731 43.638H355.277L365.295 33.6172L377.387 21.5224V11.1553L383.95 4.58993L379.46 0.0975542H361.495H335.585H305.53L296.893 8.73696H284.802L272.365 14.957Z" stroke="#9F9F9F" stroke-width="2" stroke-miterlimit="10"/>
<path d="M360.631 53.487L368.232 45.193H382.395V53.8324H373.068H367.196L363.913 57.1151H356.832L360.631 53.487Z" stroke="#9F9F9F" stroke-width="2" stroke-miterlimit="10"/>
<path d="M155.079 248.728L155.081 253.847V253.941" stroke="#9F9F9F" stroke-width="2" stroke-miterlimit="10"/>
<path d="M126.277 231.235L131.933 225.576V218.32H139.879" stroke="#9F9F9F" stroke-width="2" stroke-miterlimit="10"/>
<path d="M169.243 218.32L172.871 221.948H177.189L180.04 219.096L177.535 216.591H169.243V218.32Z" stroke="#9F9F9F" stroke-width="2" stroke-miterlimit="10"/>
<path d="M154.043 206.225L158.189 202.078H163.025L173.562 212.618H184.789V210.717L180.125 206.052H177.189L170.021 198.881H157.152L150.891 205.145L154.043 206.225Z" stroke="#9F9F9F" stroke-width="2" stroke-miterlimit="10"/>
<path d="M193.85 219.336V212.1" stroke="#9F9F9F" stroke-width="2" stroke-miterlimit="10"/>
<path d="M189.626 210.371L191.354 212.099H197.572L202.754 217.283L200.854 219.183H193.673H184.789L183.321 217.715L189.637 217.685L189.626 210.371Z" stroke="#9F9F9F" stroke-width="2" stroke-miterlimit="10"/>
<path d="M145.06 243.89H153.352" stroke="#9F9F9F" stroke-width="2" stroke-miterlimit="10"/>
<path d="M140.441 239.268L152.186 227.52" stroke="#9F9F9F" stroke-width="2" stroke-miterlimit="10"/>
<path d="M132.84 234.95L136.079 231.796L138.152 233.87H139.534L140.916 235.251L138.669 237.498" stroke="#9F9F9F" stroke-width="2" stroke-miterlimit="10"/>
<path d="M141.585 225.943L136.079 231.796" stroke="#9F9F9F" stroke-width="2" stroke-miterlimit="10"/>
<path d="M334.258 221.633V221.986H333.552V222.692H332.845V221.986H332.492V221.279H334.258V221.633Z" stroke="#9F9F9F" stroke-width="2" stroke-miterlimit="10"/>
<path d="M335.671 223.046V224.459H336.73V223.752H337.79L337.084 223.046H335.671Z" stroke="#9F9F9F" stroke-width="2" stroke-miterlimit="10"/>
<path d="M340.263 221.633V223.752H341.676V222.339L340.263 221.633Z" stroke="#9F9F9F" stroke-width="2" stroke-miterlimit="10"/>
<path d="M340.615 224.813L339.909 225.519L340.615 226.226L341.322 225.519L340.615 224.813Z" stroke="#9F9F9F" stroke-width="2" stroke-miterlimit="10"/>
<path d="M337.437 228.345V229.406L338.143 230.112L338.85 229.406L337.437 227.992V228.345Z" stroke="#9F9F9F" stroke-width="2" stroke-miterlimit="10"/>
<path d="M336.024 229.052H334.964V230.466H336.024V229.052Z" stroke="#9F9F9F" stroke-width="2" stroke-miterlimit="10"/>
<path d="M573.11 268.787L548.252 293.651V338.607L531.011 355.852V365.592L519.373 377.277L519.33 384.663L495.709 408.291H479.558L466.517 395.246V378.66V367.428L453.908 354.816V334.773L458.052 330.626V305.4L441.471 288.813L448.38 281.902V273.263L442.507 267.388H434.561L428.17 260.996H414.179L406.647 268.53L404.764 270.413H387.923L359.466 241.947V204.842L386.304 177.997L388.549 175.751V169.94L397.391 161.096V155.081H400.015V157.5H412.106L419.36 150.243H450.107V160.265L465.308 175.47H475.672H478.089V166.83L480.336 164.585H484.654L491.131 171.063H519.892L526.606 177.781L527.967 179.141L527.898 179.21L524.037 183.072L517.128 176.161L514.709 178.58L531.637 195.512V217.973L554.611 240.953V244.236L557.806 247.433H578.621V261.86V263.242L573.266 268.598L573.11 268.787Z" stroke="#9F9F9F" stroke-width="2" stroke-miterlimit="10"/>
<path d="M569.941 324.795L565.32 329.417V333.218L557.202 341.338L552.193 346.35V354.816L546.06 360.95V378.313H557.202L564.283 371.23V359.653V351.36L575.77 339.87V330.626L569.941 324.795Z" stroke="#9F9F9F" stroke-width="2" stroke-miterlimit="10"/>
<path d="M466.517 388.508H478.089V362.073H483.272V349.286H453.908" stroke="#9F9F9F" stroke-width="2" stroke-miterlimit="10"/>
<path d="M478.089 373.821H502.618L511.773 364.665H518.51H519.373V377.277" stroke="#9F9F9F" stroke-width="2" stroke-miterlimit="10"/>
<path d="M511.6 364.665L496.227 349.286H483.272" stroke="#9F9F9F" stroke-width="2" stroke-miterlimit="10"/>
<path d="M496.227 349.286H502.1L510.218 341.166H516.264H519.373V365.873" stroke="#9F9F9F" stroke-width="2" stroke-miterlimit="10"/>
<path d="M520.949 330.259L520.927 320.26H527.146V328.208L535.265 336.328L531.292 340.302L521.1 330.108L510.218 340.993" stroke="#9F9F9F" stroke-width="2" stroke-miterlimit="10"/>
<path d="M527.146 328.208L548.236 307.112" stroke="#9F9F9F" stroke-width="2" stroke-miterlimit="10"/>
<path d="M527.146 320.26L517.3 310.411L509.7 318.013V327.171L505.641 331.231L494.154 319.741V331.318H486.381V343.758V349.286" stroke="#9F9F9F" stroke-width="2" stroke-miterlimit="10"/>
<path d="M494.154 319.741L486.727 319.784V308.683H482.408L477.744 313.348H469.799V305.055H458.052L476.881 286.222V266.698H481.545L484.308 269.462H491.218H513.327L516.264 272.4V277.41L508.232 285.445V295.379L510.607 297.755V303.673L517.646 310.756" stroke="#9F9F9F" stroke-width="2" stroke-miterlimit="10"/>
<path d="M508.232 289.678L515.4 289.505V294.285V298.835L510.607 303.673" stroke="#9F9F9F" stroke-width="2" stroke-miterlimit="10"/>
<path d="M508.232 295.379L515.4 295.38" stroke="#9F9F9F" stroke-width="2" stroke-miterlimit="10"/>
<path d="M515.401 289.505L520.237 284.321H525.073L528.873 278.101V269.462H513.327" stroke="#9F9F9F" stroke-width="2" stroke-miterlimit="10"/>
<path d="M528.873 269.462H551.674V290.228" stroke="#9F9F9F" stroke-width="2" stroke-miterlimit="10"/>
<path d="M525.88 283L548.247 305.373" stroke="#9F9F9F" stroke-width="2" stroke-miterlimit="10"/>
<path d="M507.877 390.999L504.604 386.544L499.593 390.227L502.866 394.683L507.877 390.999Z" stroke="#9F9F9F" stroke-width="2" stroke-miterlimit="10"/>
<path d="M514.364 377.277L510.564 381.078L512.119 382.633H515.401L518.078 379.955V377.277H514.364Z" stroke="#9F9F9F" stroke-width="2" stroke-miterlimit="10"/>
<path d="M476.881 271.098H471.872L469.234 273.735V277.41H448.38" stroke="#9F9F9F" stroke-width="2" stroke-miterlimit="10"/>
<path d="M454.253 277.41V280.866H448.38" stroke="#9F9F9F" stroke-width="2" stroke-miterlimit="10"/>
<path d="M459.262 277.41V279.829H462.544V292.615H455.635L450.453 297.798" stroke="#9F9F9F" stroke-width="2" stroke-miterlimit="10"/>
<path d="M469.108 273.608L462.371 266.87V263.933L470.058 256.245H478.089L489.965 244.366L515.055 269.462" stroke="#9F9F9F" stroke-width="2" stroke-miterlimit="10"/>
<path d="M554.61 244.236L553.024 245.947L552.847 246.137H549.256V244.236L553.575 239.917" stroke="#9F9F9F" stroke-width="2" stroke-miterlimit="10"/>
<path d="M553.024 245.947L564.111 257.022" stroke="#9F9F9F" stroke-width="2" stroke-miterlimit="10"/>
<path d="M551.674 269.462L564.111 257.022" stroke="#9F9F9F" stroke-width="2" stroke-miterlimit="10"/>
<path d="M532.156 269.462V263.242L523.778 254.862V242.855L533.408 233.221H546.88" stroke="#9F9F9F" stroke-width="2" stroke-miterlimit="10"/>
<path d="M533.364 233.178V219.875" stroke="#9F9F9F" stroke-width="2" stroke-miterlimit="10"/>
<path d="M489.836 244.236L483.963 238.362L493.636 228.686V212.099H496.399V205.188V171.063" stroke="#9F9F9F" stroke-width="2" stroke-miterlimit="10"/>
<path d="M496.399 205.188H521.274L531.292 195.167" stroke="#9F9F9F" stroke-width="2" stroke-miterlimit="10"/>
<path d="M493.636 218.838L472.995 198.19L469.453 201.732H462.544V210.026L465.653 213.136V222.811L457.88 230.587L464.79 237.498V260.996" stroke="#9F9F9F" stroke-width="2" stroke-miterlimit="10"/>
<path d="M464.617 237.325L462.89 239.053V242.163L437.584 267.475" stroke="#9F9F9F" stroke-width="2" stroke-miterlimit="10"/>
<path d="M426.443 260.996V252.53L429.984 248.988V241.126L426.573 237.713L424.37 239.917L414.87 230.413L400.878 244.409V247.001H391.724V240.78L388.96 238.016H379.286V230.413L371.86 222.985H359.466" stroke="#9F9F9F" stroke-width="2" stroke-miterlimit="10"/>
<path d="M424.198 239.743V241.817L420.742 245.273H407.96V249.765H406.651H403.469L400.705 247.001" stroke="#9F9F9F" stroke-width="2" stroke-miterlimit="10"/>
<path d="M420.742 245.446V260.996" stroke="#9F9F9F" stroke-width="2" stroke-miterlimit="10"/>
<path d="M415.733 245.273V260.996" stroke="#9F9F9F" stroke-width="2" stroke-miterlimit="10"/>
<path d="M406.643 268.53L406.651 249.765" stroke="#9F9F9F" stroke-width="2" stroke-miterlimit="10"/>
<path d="M391.724 247V260.823L395.696 264.797V270.412" stroke="#9F9F9F" stroke-width="2" stroke-miterlimit="10"/>
<path d="M391.724 257.022L386.369 251.666L377.776 260.261" stroke="#9F9F9F" stroke-width="2" stroke-miterlimit="10"/>
<path d="M386.375 251.672L380.841 246.137L372.248 254.733" stroke="#9F9F9F" stroke-width="2" stroke-miterlimit="10"/>
<path d="M379.286 238.016H359.466" stroke="#9F9F9F" stroke-width="2" stroke-miterlimit="10"/>
<path d="M372.377 238.016V242.854L366.375 248.858" stroke="#9F9F9F" stroke-width="2" stroke-miterlimit="10"/>
<path d="M359.466 236.461H373.414L374.709 235.165V233.87H359.466" stroke="#9F9F9F" stroke-width="2" stroke-miterlimit="10"/>
<path d="M414.87 230.413H430.07V215.9L444.061 201.905H462.544L447.602 186.96V174.088L455.764 165.923" stroke="#9F9F9F" stroke-width="2" stroke-miterlimit="10"/>
<path d="M447.689 174.088L442.853 169.25V150.243" stroke="#9F9F9F" stroke-width="2" stroke-miterlimit="10"/>
<path d="M412.452 157.5V167.176L392.76 186.873V191.365H380.668V198.276L376.35 202.596V207.607H359.466" stroke="#9F9F9F" stroke-width="2" stroke-miterlimit="10"/>
<path d="M430.07 215.9L392.76 186.873L377.44 186.877" stroke="#9F9F9F" stroke-width="2" stroke-miterlimit="10"/>
<path d="M403.469 195.167H397.941V227.995H376.869" stroke="#9F9F9F" stroke-width="2" stroke-miterlimit="10"/>
<path d="M488.454 72.4926V83.8957H499.163L518.337 103.075H522.309L528.269 109.035V114.651H503.654V121.217L498.645 126.227V132.965V138.495H493.636H486.381V143.333L493.463 150.417H482.235L473.34 141.518V132.965L458.959 118.582H454.598V125.709L467.899 139.013L470.663 141.778L460.644 151.798L455.462 146.615L456.671 145.406H462.544L464.444 143.505V140.568H462.544L448.207 126.227H440.089L435.166 131.151H428.688L416.726 143.117V146.097L410.098 152.727H400.36L397.909 150.276H390.342V141.26L392.76 138.84V128.128L394.833 126.055H413.488V117.07L409.342 112.923H404.16V108.777H413.488L410.897 106.185L412.452 104.63H415.906L417.633 106.358L422.816 101.174L431.279 92.7078H439.052V87.6974H440.089V79.058H445.27V88.0427L448.207 90.9801H455.635L457.794 88.8202H469.054H469.108L472.433 85.4946V78.7126H475.672L477.744 80.7857H480.853V75.2573L477.744 72.1472L488.454 72.4926Z" stroke="#9F9F9F" stroke-width="2" stroke-miterlimit="10"/>
<path d="M473.915 142.095L479.126 136.882L480.393 135.615H498.645" stroke="#9F9F9F" stroke-width="2" stroke-miterlimit="10"/>
<path d="M473.124 132.75L476.19 129.683L477.054 130.547V132.275V132.793V134.693L479.126 136.767" stroke="#9F9F9F" stroke-width="2" stroke-miterlimit="10"/>
<path d="M477.054 132.937L478.939 131.051H485.345L486.993 132.699V135.615" stroke="#9F9F9F" stroke-width="2" stroke-miterlimit="10"/>
<path d="M482.235 130.892V124.327L484.308 126.4H492.254L493.809 124.845H499.984" stroke="#9F9F9F" stroke-width="2" stroke-miterlimit="10"/>
<path d="M482.235 124.327L475.672 117.761H472.217V126.745L475.672 130.201" stroke="#9F9F9F" stroke-width="2" stroke-miterlimit="10"/>
<path d="M472.217 126.745L469.669 129.294" stroke="#9F9F9F" stroke-width="2" stroke-miterlimit="10"/>
<path d="M472.217 122.167H462.544" stroke="#9F9F9F" stroke-width="2" stroke-miterlimit="10"/>
<path d="M460.586 120.208L464.17 116.623L464.617 117.07L467.207 119.662H469.799L471.526 117.761H472.282" stroke="#9F9F9F" stroke-width="2" stroke-miterlimit="10"/>
<path d="M455.829 118.582V116.725H458.744L459.953 115.515H462.198L463.494 114.219H464.617V117.07" stroke="#9F9F9F" stroke-width="2" stroke-miterlimit="10"/>
<path d="M455.98 116.725L453.39 114.133H449.416L445.875 117.675H436.98V124.672L438.88 126.573L439.312 127.005" stroke="#9F9F9F" stroke-width="2" stroke-miterlimit="10"/>
<path d="M436.98 117.761L434.906 115.688L437.325 113.268H443.543L446.912 116.638" stroke="#9F9F9F" stroke-width="2" stroke-miterlimit="10"/>
<path d="M392.76 133.333H400.015V135.73L396.387 139.358V146.097L395.264 147.22V150.276" stroke="#9F9F9F" stroke-width="2" stroke-miterlimit="10"/>
<path d="M413.488 126.055L423.636 136.205" stroke="#9F9F9F" stroke-width="2" stroke-miterlimit="10"/>
<path d="M425.406 98.5825L433.179 106.358L438.362 111.541V113.268" stroke="#9F9F9F" stroke-width="2" stroke-miterlimit="10"/>
<path d="M433.179 106.358V103.938V101.174L430.07 98.0645H425.925" stroke="#9F9F9F" stroke-width="2" stroke-miterlimit="10"/>
<path d="M433.179 101.174V98.0645L436.462 94.7808V92.7078" stroke="#9F9F9F" stroke-width="2" stroke-miterlimit="10"/>
<path d="M440.089 86.2428H445.27" stroke="#9F9F9F" stroke-width="2" stroke-miterlimit="10"/>
<path d="M455.98 91.1527V101.174L452.18 104.975L455.98 108.777L452.353 112.405H446.652L444.666 114.392" stroke="#9F9F9F" stroke-width="2" stroke-miterlimit="10"/>
<path d="M433.179 103.938H434.906V106.358H433.179" stroke="#9F9F9F" stroke-width="2" stroke-miterlimit="10"/>
<path d="M455.98 101.174H459.781L462.89 104.285H466.689L468.589 106.185L465.999 108.777" stroke="#9F9F9F" stroke-width="2" stroke-miterlimit="10"/>
<path d="M455.98 108.776H466.027" stroke="#9F9F9F" stroke-width="2" stroke-miterlimit="10"/>
<path d="M463.58 108.777L466.344 111.541L466.886 112.083" stroke="#9F9F9F" stroke-width="2" stroke-miterlimit="10"/>
<path d="M464.617 114.305L466.862 112.06H472.217L474.722 109.554H479.126L480.853 111.541L478.781 113.615V114.705" stroke="#9F9F9F" stroke-width="2" stroke-miterlimit="10"/>
<path d="M475.672 117.761L478.781 114.651" stroke="#9F9F9F" stroke-width="2" stroke-miterlimit="10"/>
<path d="M480.853 111.541H489.836L491.909 109.468L498.3 115.86V120.18H503.654" stroke="#9F9F9F" stroke-width="2" stroke-miterlimit="10"/>
<path d="M498.473 120.18L502.791 115.86L499.509 112.578V111.195V110.85V110.505H496.054L495.019 109.468" stroke="#9F9F9F" stroke-width="2" stroke-miterlimit="10"/>
<path d="M491.908 109.468H495.017" stroke="#9F9F9F" stroke-width="2" stroke-miterlimit="10"/>
<path d="M468.417 106.358H480.163L480.168 110.748" stroke="#9F9F9F" stroke-width="2" stroke-miterlimit="10"/>
<path d="M480.163 106.358L483.79 102.73V101.174L481.285 98.6683V90.4621L479.343 88.5178L477.269 86.4448H471.429" stroke="#9F9F9F" stroke-width="2" stroke-miterlimit="10"/>
<path d="M468.622 88.8202H479.682" stroke="#9F9F9F" stroke-width="2" stroke-miterlimit="10"/>
<path d="M481.199 90.4621H483.617L489.923 84.1552" stroke="#9F9F9F" stroke-width="2" stroke-miterlimit="10"/>
<path d="M472.433 83.8098L474.009 82.2334H482.581L487.212 86.8652" stroke="#9F9F9F" stroke-width="2" stroke-miterlimit="10"/>
<path d="M480.853 77.7624L482.452 76.1645H485.69L487.482 77.9566H488.454" stroke="#9F9F9F" stroke-width="2" stroke-miterlimit="10"/>
<path d="M481.199 98.4098H483.617L484.999 97.0275H491.909L494.327 99.4458H500.89L503.654 96.6821H511.665" stroke="#9F9F9F" stroke-width="2" stroke-miterlimit="10"/>
<path d="M411.07 76.9849L426.443 92.0171L418.67 99.7921H404.851L411.587 93.0531V86.315L402.347 77.0708L411.07 76.9849Z" stroke="#9F9F9F" stroke-width="2" stroke-miterlimit="10"/>
<path d="M395.524 84.9326H402.433V93.2258L397.769 97.8908H389.651V91.8444L395.524 84.9326Z" stroke="#9F9F9F" stroke-width="2" stroke-miterlimit="10"/>
<path d="M523.738 114.694L523.691 122.253L536.992 135.557H526.11L521.705 131.151H513.673L508.793 136.033H498.645" stroke="#9F9F9F" stroke-width="2" stroke-miterlimit="10"/>
<path d="M494.384 138.495V141.95L506.101 153.67H509.182V151.28H510.218L512.637 153.7H516.436H518.164L520.41 151.453L524.901 155.945V160.265V161.302V165.448V166.082L519.949 171.035" stroke="#9F9F9F" stroke-width="2" stroke-miterlimit="10"/>
<path d="M524.037 183.072L539.237 198.276V209.68L552.365 222.811V235.251L556.684 239.571H558.929H561.693L568.689 232.573H572.748L582.464 222.855H590.021L602.306 210.566V203.115L592.191 192.996V188.255L583.851 196.597H578.621L572.205 190.18V188.255L562.976 179.024L567.047 174.951L580.175 188.083H586.566L589.416 185.232H592.439L594.642 187.435V191.02L595.958 192.337H607.985H623.186L628.087 197.24L632.028 201.181H635.276V202.423H632.859L639.422 208.989L641.668 206.743V203.46H646.332V222.811L650.132 226.613V231.796L659.632 241.298V250.111L663.864 254.343L675.005 243.2V226.613L693.606 207.634H696.799L701.175 203.373L715.079 217.283V227.65L720.435 222.293L723.716 225.576V233.178L729.071 238.535V254.258L736.93 262.118V271.19L746.388 280.65L749.626 277.41L746.344 274.127V264.278L733.476 251.406V237.325H736.498L752.217 253.048L763.273 241.99V229.723L749.367 215.813V211.408L753.642 207.131H768.282L785.663 189.746L789.981 185.426V173.396L774.986 158.397V150.243L767.833 143.09L773.636 137.285L776.745 140.395V144.715L782.359 139.1L792.349 149.093L801.618 158.365L806.282 153.7L797.017 144.431L793.845 141.26L797.991 137.112V130.892H807.319V110.158V103.248L797.127 93.0531H785.209L778.904 86.7472L791.6 74.0476H814.229L809.478 69.2957V64.1995H822.174H826.665L829.083 66.6178V84.5873L846.356 101.865V82.168L836.511 72.3199V68.6909H849.12L860.521 57.2877L840.829 37.5906H810.428H784.173L780.2 33.6172H762.408L753.34 24.5456H715.771L724.191 32.9694H709.898L703.571 26.6411H664.987H654.623L660.377 20.8854H616.276L604.299 32.866H580.693L591.691 43.8682L587.257 48.303H583.112L587.603 43.8106L574.648 30.8525H567.566V35.8629L574.302 42.6019H537.165L529.997 49.7722L524.209 43.9843L510.564 57.6331H501.237L492.772 49.1673H511.6L502.359 39.9231H489.836L486.424 36.5106H463.58L441.449 58.6486H434.906L429.714 63.8424V72.1472L434.383 76.8171H439.052L443.459 72.4087L452.18 81.132H459.434V76.2933L464.098 71.6282V69.7279L460.731 66.3593V62.8171L471.138 52.4071H476.017V56.5971L470.663 61.9528V67.6548H476.017L478.263 69.9005H485.69H488.454V72.4926" stroke="#9F9F9F" stroke-width="2" stroke-miterlimit="10"/>
<path d="M675.351 247.688V261.168L672.415 264.106L668.787 260.478V254.258L675.005 248.038L675.351 247.692" stroke="#9F9F9F" stroke-width="2" stroke-miterlimit="10"/>
<path d="M735.779 260.967H738.917V263.588L742.285 260.218" stroke="#9F9F9F" stroke-width="2" stroke-miterlimit="10"/>
<path d="M729.071 247.688L732.092 244.666V235.251L727.213 230.371V224.885V222.811L723.219 218.816V213.481H725.789L733.044 206.225H728.553L725.789 203.46V198.622H720.952V193.093L724.58 189.465L711.28 176.161H708.861L701.607 183.418H679.842H677.079L658.077 164.412V155.427H652.205L649.363 158.269L648.577 159.055H639.768L647.109 166.398V173.051L636.356 183.806H632.513V188.255L638.904 194.648V197.24H628.087" stroke="#9F9F9F" stroke-width="2" stroke-miterlimit="10"/>
<path d="M666.023 172.36V180.308L673.969 188.255H689.169V183.418" stroke="#9F9F9F" stroke-width="2" stroke-miterlimit="10"/>
<path d="M692.797 183.418L690.811 185.405L692.625 187.218H701.261V185.836L698.843 183.418" stroke="#9F9F9F" stroke-width="2" stroke-miterlimit="10"/>
<path d="M693.66 207.607V198.968L690.033 195.34V192.748V189.983H692.625L695.561 192.92H702.988V194.821L699.879 197.931V200.005L701.78 201.905H706.097L702.902 205.101L721.557 186.441" stroke="#9F9F9F" stroke-width="2" stroke-miterlimit="10"/>
<path d="M733.044 206.225H734.771V203.115L757.917 226.267V239.743L748.444 249.244" stroke="#9F9F9F" stroke-width="2" stroke-miterlimit="10"/>
<path d="M742.602 243.43V232.487H750.259H757.917" stroke="#9F9F9F" stroke-width="2" stroke-miterlimit="10"/>
<path d="M749.684 232.487V226.958L741.537 218.808H734.426V213.481L730.107 209.162" stroke="#9F9F9F" stroke-width="2" stroke-miterlimit="10"/>
<path d="M605.912 192.337L605.956 181.69L600.903 176.636L600.86 176.593H620.077V172.36L629.058 163.375V155.773L633.377 151.453H642.532L649.363 158.269" stroke="#9F9F9F" stroke-width="2" stroke-miterlimit="10"/>
<path d="M639.941 151.453V149.897V146.788L634.673 141.518L641.15 135.038H647.368L649.959 132.447V120.871L659.02 111.808L659.027 111.801L661.791 109.035L678.114 125.363H690.897L699.188 133.657H734.426L750.144 117.933L740.544 108.331L738.398 106.185L737.017 104.803H743.062L745.912 101.952V93.2258H751.699H756.88L772.254 108.603H778.991L783.05 112.663H794.882V123.635H792.464V130.892H798.185" stroke="#9F9F9F" stroke-width="2" stroke-miterlimit="10"/>
<path d="M792.464 130.892L783.31 140.05" stroke="#9F9F9F" stroke-width="2" stroke-miterlimit="10"/>
<path d="M552.365 225.662L556.727 221.3H565.147H567.22L573.374 215.144H583.457L590.506 208.093V203.46L588.191 201.143H583.112L578.569 196.6" stroke="#9F9F9F" stroke-width="2" stroke-miterlimit="10"/>
<path d="M579.657 215.144L587.225 222.714" stroke="#9F9F9F" stroke-width="2" stroke-miterlimit="10"/>
<path d="M594.263 195.069L588.294 201.041L588.167 201.168" stroke="#9F9F9F" stroke-width="2" stroke-miterlimit="10"/>
<path d="M526.607 177.781V170.978H524.405V168.213L526.995 165.621V158.537H524.922" stroke="#9F9F9F" stroke-width="2" stroke-miterlimit="10"/>
<path d="M524.901 164.123H526.973" stroke="#9F9F9F" stroke-width="2" stroke-miterlimit="10"/>
<path d="M526.585 171.237L526.995 170.826V165.448" stroke="#9F9F9F" stroke-width="2" stroke-miterlimit="10"/>
<path d="M526.995 168.343H528.873L534.984 162.23L535.091 162.122L540.857 156.356V150.935L543.847 147.944L548.565 147.825" stroke="#9F9F9F" stroke-width="2" stroke-miterlimit="10"/>
<path d="M535.091 162.122V168.903H531.292L529.737 170.459L533.194 173.918L527.854 179.26" stroke="#9F9F9F" stroke-width="2" stroke-miterlimit="10"/>
<path d="M535.091 167.465H540.274L551.703 178.897H560.311L563.233 175.973H566.01" stroke="#9F9F9F" stroke-width="2" stroke-miterlimit="10"/>
<path d="M560.311 178.925L563.248 181.863H565.814" stroke="#9F9F9F" stroke-width="2" stroke-miterlimit="10"/>
<path d="M566.27 175.728L562.47 171.928V168.904L558.972 165.405H556.857L554.114 162.662V159.228L556.522 156.82V154.736L555.679 154.942L545.834 145.092L545.628 141.95L547.615 139.963L541.656 134.002H535.438" stroke="#9F9F9F" stroke-width="2" stroke-miterlimit="10"/>
<path d="M554.265 127.955L564.111 137.803V143.851L562.298 145.665V147.306L567.436 152.447H579.139V148.343L578.794 147.999L578.768 147.972L575.166 144.37V139.705H571.538V133.138L562.038 123.635L565.665 120.007H572.575L565.665 113.096H557.72L554.572 116.244L552.02 118.798V124.153L554.265 126.487V127.955Z" stroke="#9F9F9F" stroke-width="2" stroke-miterlimit="10"/>
<path d="M547.529 139.877L552.711 145.06H555.128L558.065 142.123H564.111" stroke="#9F9F9F" stroke-width="2" stroke-miterlimit="10"/>
<path d="M528.197 126.76H535.091H541.311L544.585 130.036H548.911L553.657 134.784H557.547L559.319 133.01" stroke="#9F9F9F" stroke-width="2" stroke-miterlimit="10"/>
<path d="M543.153 135.5H549.141H549.371H555.128L554.444 134.748" stroke="#9F9F9F" stroke-width="2" stroke-miterlimit="10"/>
<path d="M549.687 135.5L557.187 143.001" stroke="#9F9F9F" stroke-width="2" stroke-miterlimit="10"/>
<path d="M578.794 147.999L582.075 144.715H588.294L600.903 157.328V169.595V176.506" stroke="#9F9F9F" stroke-width="2" stroke-miterlimit="10"/>
<path d="M600.73 157.155L610.577 147.306H623.877L626.381 144.801H629.058V149.898H639.941" stroke="#9F9F9F" stroke-width="2" stroke-miterlimit="10"/>
<path d="M634.586 141.605H622.15L620.94 140.395L622.322 139.013H627.677L629.836 136.853L627.331 134.348H621.804V130.547V129.51H646.332L649.441 132.62" stroke="#9F9F9F" stroke-width="2" stroke-miterlimit="10"/>
<path d="M570.79 132.39L572.863 130.317L578.102 135.557H583.802V131.929L586.394 129.337L592.44 135.385H597.276L609.885 147.998" stroke="#9F9F9F" stroke-width="2" stroke-miterlimit="10"/>
<path d="M580.693 135.385V120.871H589.33L595.894 127.437H604.53L612.13 135.039H618.695L621.631 132.102" stroke="#9F9F9F" stroke-width="2" stroke-miterlimit="10"/>
<path d="M554.479 116.15L551.235 112.829H547.434V102.808L550.198 105.572L552.617 103.154L551.062 101.599L555.035 97.6245H564.017L569.199 102.808H585.436V99.6975H581.29V91.0591H591.309L597.527 84.839H605.818L609.273 88.2944V90.0221H614.801L616.873 92.0951H627.583L637.255 101.772H649.001L659.027 111.801" stroke="#9F9F9F" stroke-width="2" stroke-miterlimit="10"/>
<path d="M446.25 75.3148L451.661 69.9006V64.8902L446.739 59.9656L465.825 40.8733H484.654V52.1047L494.845 62.2981L487.302 69.843" stroke="#9F9F9F" stroke-width="2" stroke-miterlimit="10"/>
<path d="M464.786 41.9064L475.326 52.45" stroke="#9F9F9F" stroke-width="2" stroke-miterlimit="10"/>
<path d="M524.728 155.773L528.355 152.145H540.876" stroke="#9F9F9F" stroke-width="2" stroke-miterlimit="10"/>
<path d="M792.349 149.093L797.017 144.431" stroke="#9F9F9F" stroke-width="2" stroke-miterlimit="10"/>
<path d="M661.878 109.122L670.514 100.483L677.424 107.395H687.442V97.0275H695.389L703.852 105.493H720.952L723.802 108.345H740.544" stroke="#9F9F9F" stroke-width="2" stroke-miterlimit="10"/>
<path d="M821.829 121.908V134.348L824.592 137.112L828.565 133.138H833.574L837.98 128.733L830.81 121.562L821.829 121.908Z" stroke="#9F9F9F" stroke-width="2" stroke-miterlimit="10"/>
<path d="M828.738 135.385L826.147 137.976L829.428 141.26V149.207L822.865 155.773H813.537L805.592 163.72L815.956 174.088V165.794H823.21L828.91 160.092H835.301L839.188 156.205V145.06L828.738 135.385Z" stroke="#9F9F9F" stroke-width="2" stroke-miterlimit="10"/>
<path d="M793.5 192.056L787.282 198.276L791.6 202.596L797.474 196.722L793.5 192.056Z" stroke="#9F9F9F" stroke-width="2" stroke-miterlimit="10"/>
<path d="M488.368 38.6276L484.61 42.3854" stroke="#9F9F9F" stroke-width="2" stroke-miterlimit="10"/>
<path d="M513.785 157.572L515.746 159.573L521.484 159.544L518.95 157.572H513.785Z" stroke="#9F9F9F" stroke-width="2" stroke-miterlimit="10"/>
<path d="M624.221 139.013V136.767H618.349L613.858 141.26L619.961 147.365" stroke="#9F9F9F" stroke-width="2" stroke-miterlimit="10"/>
<path d="M716.461 266.698L752.736 302.981H756.881V294.688L728.898 266.698H716.461Z" stroke="#9F9F9F" stroke-width="2" stroke-miterlimit="10"/>
<path d="M753.081 305.746H756.88L759.299 308.165H768.627H778.645V311.621H811.465L807.319 315.768H776.572L773.29 312.485H760.681L753.081 305.746Z" stroke="#9F9F9F" stroke-width="2" stroke-miterlimit="10"/>
<path d="M794.537 216.591H804.21V229.723L800.928 233.005H794.537V216.591Z" stroke="#9F9F9F" stroke-width="2" stroke-miterlimit="10"/>
<path d="M805.246 233.523L801.273 237.498L804.21 240.435H811.465L805.246 233.523Z" stroke="#9F9F9F" stroke-width="2" stroke-miterlimit="10"/>
<path d="M815.264 248.728L806.455 257.54L808.183 259.268L811.119 256.331L815.956 261.168L819.583 257.54L815.264 248.728Z" stroke="#9F9F9F" stroke-width="2" stroke-miterlimit="10"/>
<path d="M795.227 355.507H778.991L767.763 366.738V401.121L762.495 406.391V410.105H773.463L778.472 405.095H792.118L798.251 398.961H819.065L834.654 414.555V421.508H859.83L889.021 392.309V372.093L871.316 354.383V327.171H867.43L849.984 344.621L840.657 335.291L847.565 328.38H834.956H828.738L820.878 336.242L816.819 332.181L795.227 355.507Z" stroke="#9F9F9F" stroke-width="2" stroke-miterlimit="10"/>
<path d="M839.102 430.839V440.86L848.947 431.012L839.102 430.839Z" stroke="#9F9F9F" stroke-width="2" stroke-miterlimit="10"/>
<path d="M838.756 293.997V298.835H840.829L842.729 296.934L845.493 299.698H853.266L859.571 306.005V310.583L856.073 314.083H858.794L860.888 311.987L866.221 317.323H870.539L876.153 311.707H881.249L884.315 314.773L889.151 319.611H895.413L885.891 310.087V303.673L876.834 294.613H868.121L859.004 285.493L850.157 294.343H846.702L843.593 291.233H838.756V293.997Z" stroke="#9F9F9F" stroke-width="2" stroke-miterlimit="10"/>
<path d="M775.018 276.03V270.326L788.319 257.022L795.659 264.365L791.255 268.771V276.546L795.919 281.211H789.528V288.295L788.319 289.505V292.615L780.027 300.908L773.118 293.997H765.345V287.95L762.063 284.667V279.829L765.863 276.028H775.018" stroke="#9F9F9F" stroke-width="2" stroke-miterlimit="10"/>
<path d="M797.301 286.395H801.791L803 287.604L804.901 285.703H810.773L805.246 291.233L811.12 297.107L805.246 302.981L803 300.735V297.453V293.997H801.1L799.719 295.379V304.363H796.609V301.945L798.337 300.217V296.416H795.919V292.615L797.301 291.233V286.395Z" stroke="#9F9F9F" stroke-width="2" stroke-miterlimit="10"/>
<path d="M803.173 242.854V246.31H804.21L806.801 243.718V242.508H803.173V242.854Z" stroke="#9F9F9F" stroke-width="2" stroke-miterlimit="10"/>
<path d="M794.882 243.2H796.264V246.31L789.182 253.393V251.493L794.882 246.029V243.2Z" stroke="#9F9F9F" stroke-width="2" stroke-miterlimit="10"/>
<path d="M919.595 430.839L923.741 434.986L914.759 443.97H909.923L898.349 455.546L891.958 449.153L900.249 440.86H907.849L918.904 429.803L919.595 430.839Z" stroke="#9F9F9F" stroke-width="2" stroke-miterlimit="10"/>
<path d="M927.886 426.346L930.305 428.766L927.194 431.873L928.403 433.082L936.349 425.135H940.667L945.762 420.037H939.63L936.739 417.142C936.739 417.142 927.886 426.98 927.886 426.346Z" stroke="#9F9F9F" stroke-width="2" stroke-miterlimit="10"/>
<path d="M141.5 56C136.264 56 132 60.3277 132 65.6423C132 67.236 132.394 68.8231 133.143 70.2301L140.225 83.2332C140.482 83.6999 140.968 83.9933 141.493 83.9933C142.019 83.9933 142.512 83.6999 142.761 83.2332L149.85 70.2167C150.593 68.8164 150.987 67.236 150.987 65.6423C151 60.3277 146.736 56 141.5 56ZM148.254 69.3298L141.5 81.7328L134.753 69.3432C134.148 68.2096 133.833 66.9359 133.833 65.6423C133.826 61.3479 137.269 57.8538 141.5 57.8538C145.731 57.8538 149.174 61.3479 149.174 65.6423C149.174 66.9293 148.858 68.2096 148.26 69.3298H148.254Z" fill="#055B8D"/>
<path d="M141.5 60.3544C138.629 60.3544 136.29 62.7283 136.29 65.6423C136.29 68.5563 138.629 70.9302 141.5 70.9302C144.371 70.9302 146.71 68.5563 146.71 65.6423C146.71 62.7283 144.371 60.3544 141.5 60.3544ZM141.5 69.0698C139.634 69.0698 138.123 67.5294 138.123 65.6423C138.123 63.7552 139.641 62.2148 141.5 62.2148C143.359 62.2148 144.877 63.7552 144.877 65.6423C144.877 67.5294 143.359 69.0698 141.5 69.0698Z" fill="#055B8D"/>
<path d="M117.5 127C112.264 127 108 131.328 108 136.642C108 138.236 108.394 139.823 109.143 141.23L116.225 154.233C116.482 154.7 116.968 154.993 117.493 154.993C118.019 154.993 118.512 154.7 118.761 154.233L125.85 141.217C126.593 139.816 126.987 138.236 126.987 136.642C127 131.328 122.736 127 117.5 127ZM124.254 140.33L117.5 152.733L110.753 140.343C110.148 139.21 109.833 137.936 109.833 136.642C109.826 132.348 113.269 128.854 117.5 128.854C121.731 128.854 125.174 132.348 125.174 136.642C125.174 137.929 124.858 139.21 124.26 140.33H124.254Z" fill="#055B8D"/>
<path d="M117.5 131.354C114.629 131.354 112.29 133.728 112.29 136.642C112.29 139.556 114.629 141.93 117.5 141.93C120.371 141.93 122.71 139.556 122.71 136.642C122.71 133.728 120.371 131.354 117.5 131.354ZM117.5 140.07C115.634 140.07 114.123 138.529 114.123 136.642C114.123 134.755 115.641 133.215 117.5 133.215C119.359 133.215 120.877 134.755 120.877 136.642C120.877 138.529 119.359 140.07 117.5 140.07Z" fill="#055B8D"/>
<path d="M261.5 305C256.264 305 252 309.328 252 314.642C252 316.236 252.394 317.823 253.143 319.23L260.225 332.233C260.482 332.7 260.968 332.993 261.493 332.993C262.019 332.993 262.512 332.7 262.761 332.233L269.85 319.217C270.593 317.816 270.987 316.236 270.987 314.642C271 309.328 266.736 305 261.5 305ZM268.254 318.33L261.5 330.733L254.753 318.343C254.148 317.21 253.833 315.936 253.833 314.642C253.826 310.348 257.269 306.854 261.5 306.854C265.731 306.854 269.174 310.348 269.174 314.642C269.174 315.929 268.858 317.21 268.26 318.33H268.254Z" fill="#055B8D"/>
<path d="M261.5 309.354C258.629 309.354 256.29 311.728 256.29 314.642C256.29 317.556 258.629 319.93 261.5 319.93C264.371 319.93 266.71 317.556 266.71 314.642C266.71 311.728 264.371 309.354 261.5 309.354ZM261.5 318.07C259.634 318.07 258.123 316.529 258.123 314.642C258.123 312.755 259.641 311.215 261.5 311.215C263.359 311.215 264.877 312.755 264.877 314.642C264.877 316.529 263.359 318.07 261.5 318.07Z" fill="#055B8D"/>
<path d="M393 131C390.244 131 388 133.318 388 136.166C388 137.019 388.207 137.869 388.602 138.623L392.329 145.589C392.464 145.839 392.72 145.996 392.997 145.996C393.273 145.996 393.533 145.839 393.664 145.589L397.395 138.616C397.786 137.866 397.993 137.019 397.993 136.166C398 133.318 395.756 131 393 131ZM396.555 138.141L393 144.785L389.449 138.148C389.131 137.541 388.965 136.859 388.965 136.166C388.961 133.865 390.773 131.993 393 131.993C395.227 131.993 397.039 133.865 397.039 136.166C397.039 136.855 396.873 137.541 396.558 138.141H396.555Z" fill="#055B8D"/>
<path d="M393 133.333C391.489 133.333 390.258 134.604 390.258 136.166C390.258 137.727 391.489 138.998 393 138.998C394.511 138.998 395.742 137.727 395.742 136.166C395.742 134.604 394.511 133.333 393 133.333ZM393 138.002C392.018 138.002 391.223 137.176 391.223 136.166C391.223 135.155 392.021 134.329 393 134.329C393.979 134.329 394.777 135.155 394.777 136.166C394.777 137.176 393.979 138.002 393 138.002Z" fill="#055B8D"/>
<path d="M409 130C406.244 130 404 132.318 404 135.166C404 136.019 404.207 136.869 404.602 137.623L408.329 144.589C408.464 144.839 408.72 144.996 408.997 144.996C409.273 144.996 409.533 144.839 409.664 144.589L413.395 137.616C413.786 136.866 413.993 136.019 413.993 135.166C414 132.318 411.756 130 409 130ZM412.555 137.141L409 143.785L405.449 137.148C405.131 136.541 404.965 135.859 404.965 135.166C404.961 132.865 406.773 130.993 409 130.993C411.227 130.993 413.039 132.865 413.039 135.166C413.039 135.855 412.873 136.541 412.558 137.141H412.555Z" fill="#055B8D"/>
<path d="M409 132.333C407.489 132.333 406.258 133.604 406.258 135.166C406.258 136.727 407.489 137.998 409 137.998C410.511 137.998 411.742 136.727 411.742 135.166C411.742 133.604 410.511 132.333 409 132.333ZM409 137.002C408.018 137.002 407.223 136.176 407.223 135.166C407.223 134.155 408.021 133.329 409 133.329C409.979 133.329 410.777 134.155 410.777 135.166C410.777 136.176 409.979 137.002 409 137.002Z" fill="#055B8D"/>
<path d="M531 288C526.591 288 523 291.709 523 296.265C523 297.631 523.332 298.991 523.963 300.197L529.927 311.343C530.142 311.743 530.552 311.994 530.994 311.994C531.437 311.994 531.852 311.743 532.062 311.343L538.032 300.186C538.657 298.985 538.989 297.631 538.989 296.265C539 291.709 535.409 288 531 288ZM536.687 299.426L531 310.057L525.318 299.437C524.809 298.465 524.544 297.374 524.544 296.265C524.538 292.584 527.437 289.589 531 289.589C534.563 289.589 537.462 292.584 537.462 296.265C537.462 297.368 537.196 298.465 536.693 299.426H536.687Z" fill="#055B8D"/>
<path d="M531 291.732C528.582 291.732 526.613 293.767 526.613 296.265C526.613 298.763 528.582 300.797 531 300.797C533.418 300.797 535.387 298.763 535.387 296.265C535.387 293.767 533.418 291.732 531 291.732ZM531 299.203C529.429 299.203 528.156 297.882 528.156 296.265C528.156 294.647 529.434 293.327 531 293.327C532.566 293.327 533.844 294.647 533.844 296.265C533.844 297.882 532.566 299.203 531 299.203Z" fill="#055B8D"/>
<path d="M426 108C423.244 108 421 110.318 421 113.166C421 114.019 421.207 114.869 421.602 115.623L425.329 122.589C425.464 122.839 425.72 122.996 425.997 122.996C426.273 122.996 426.533 122.839 426.664 122.589L430.395 115.616C430.786 114.866 430.993 114.019 430.993 113.166C431 110.318 428.756 108 426 108ZM429.555 115.141L426 121.785L422.449 115.148C422.131 114.541 421.965 113.859 421.965 113.166C421.961 110.865 423.773 108.993 426 108.993C428.227 108.993 430.039 110.865 430.039 113.166C430.039 113.855 429.873 114.541 429.558 115.141H429.555Z" fill="#055B8D"/>
<path d="M426 110.333C424.489 110.333 423.258 111.604 423.258 113.166C423.258 114.727 424.489 115.998 426 115.998C427.511 115.998 428.742 114.727 428.742 113.166C428.742 111.604 427.511 110.333 426 110.333ZM426 115.002C425.018 115.002 424.223 114.176 424.223 113.166C424.223 112.155 425.021 111.329 426 111.329C426.979 111.329 427.777 112.155 427.777 113.166C427.777 114.176 426.979 115.002 426 115.002Z" fill="#055B8D"/>
<path d="M450 108C447.244 108 445 110.318 445 113.166C445 114.019 445.207 114.869 445.602 115.623L449.329 122.589C449.464 122.839 449.72 122.996 449.997 122.996C450.273 122.996 450.533 122.839 450.664 122.589L454.395 115.616C454.786 114.866 454.993 114.019 454.993 113.166C455 110.318 452.756 108 450 108ZM453.555 115.141L450 121.785L446.449 115.148C446.131 114.541 445.965 113.859 445.965 113.166C445.961 110.865 447.773 108.993 450 108.993C452.227 108.993 454.039 110.865 454.039 113.166C454.039 113.855 453.873 114.541 453.558 115.141H453.555Z" fill="#055B8D"/>
<path d="M450 110.333C448.489 110.333 447.258 111.604 447.258 113.166C447.258 114.727 448.489 115.998 450 115.998C451.511 115.998 452.742 114.727 452.742 113.166C452.742 111.604 451.511 110.333 450 110.333ZM450 115.002C449.018 115.002 448.223 114.176 448.223 113.166C448.223 112.155 449.021 111.329 450 111.329C450.979 111.329 451.777 112.155 451.777 113.166C451.777 114.176 450.979 115.002 450 115.002Z" fill="#055B8D"/>
</g>
<defs>
<clipPath id="clip0_37_929">
<rect width="946" height="481" fill="white"/>
</clipPath>
</defs>
</svg>
