<svg width="444" height="78" viewBox="0 0 444 78" fill="none" xmlns="http://www.w3.org/2000/svg">
<g clip-path="url(#clip0_37_836)">
<path d="M101.712 42.1119C101.583 41.9865 101.482 41.8355 101.415 41.6688C101.349 41.5021 101.318 41.3233 101.325 41.144V16.6653C101.32 16.4853 101.351 16.3061 101.418 16.1386C101.484 15.9711 101.584 15.8188 101.712 15.691C101.842 15.5662 101.995 15.4685 102.164 15.4035C102.332 15.3386 102.512 15.3077 102.692 15.3128H109.689C111.286 15.2879 112.862 15.6767 114.262 16.4409C115.574 17.1829 116.65 18.2754 117.37 19.5945C118.135 20.996 118.521 22.5705 118.492 24.1647C118.52 25.7444 118.133 27.3041 117.37 28.6899C116.641 29.9936 115.557 31.0665 114.242 31.7858C112.839 32.5382 111.264 32.92 109.67 32.8947H104.04V41.144C104.047 41.3233 104.017 41.5021 103.95 41.6688C103.883 41.8355 103.782 41.9865 103.653 42.1119C103.388 42.3511 103.043 42.4836 102.686 42.4836C102.328 42.4836 101.983 42.3511 101.718 42.1119H101.712ZM109.689 30.286C110.797 30.2991 111.889 30.0228 112.856 29.4847C113.776 28.9802 114.534 28.2268 115.042 27.3118C115.581 26.3438 115.855 25.2518 115.835 24.1454C115.853 23.027 115.58 21.923 115.042 20.9406C114.532 20.0203 113.776 19.2591 112.856 18.742C111.891 18.2008 110.797 17.9263 109.689 17.9472H104.059V30.286H109.689Z" fill="#E66113"/>
<path d="M123.129 42.1119C123 41.9865 122.899 41.8355 122.832 41.6688C122.765 41.5021 122.735 41.3233 122.742 41.1441V16.6653C122.736 16.4853 122.768 16.3061 122.834 16.1386C122.901 15.9711 123.001 15.8188 123.129 15.691C123.259 15.5662 123.412 15.4685 123.58 15.4035C123.749 15.3386 123.928 15.3077 124.109 15.3128C124.31 15.3068 124.51 15.3478 124.693 15.4324C124.875 15.5169 125.035 15.6429 125.16 15.8L141.876 37.6636V16.6653C141.869 16.484 141.901 16.3035 141.97 16.1355C142.039 15.9676 142.143 15.8161 142.276 15.691C142.536 15.4439 142.883 15.3081 143.243 15.3128C143.425 15.3007 143.608 15.3273 143.78 15.3908C143.951 15.4543 144.107 15.5533 144.237 15.6812C144.366 15.8091 144.467 15.963 144.533 16.1326C144.598 16.3023 144.627 16.4839 144.616 16.6653V41.1441C144.62 41.4995 144.483 41.8421 144.236 42.0991C144.11 42.2305 143.958 42.3339 143.789 42.4024C143.62 42.4709 143.438 42.503 143.256 42.4965C143.062 42.5121 142.867 42.4792 142.689 42.4008C142.511 42.3225 142.356 42.2011 142.237 42.0478L125.47 20.1971V41.1441C125.472 41.3207 125.439 41.4961 125.372 41.66C125.306 41.8239 125.207 41.9731 125.083 42.0991C124.957 42.2305 124.805 42.3339 124.636 42.4024C124.467 42.4709 124.285 42.503 124.103 42.4965C123.923 42.501 123.743 42.4692 123.576 42.4031C123.409 42.3371 123.257 42.238 123.129 42.1119Z" fill="#E66113"/>
<path d="M170.167 15.6782C170.284 15.7974 170.375 15.939 170.435 16.0944C170.495 16.2498 170.522 16.4157 170.515 16.582C170.52 16.7432 170.491 16.9036 170.432 17.0535C170.372 17.2034 170.282 17.3395 170.167 17.4537C170.046 17.5688 169.904 17.6588 169.748 17.7183C169.591 17.7777 169.425 17.8054 169.258 17.7998H160.926V41.144C160.928 41.3207 160.895 41.4961 160.828 41.66C160.762 41.8239 160.663 41.9731 160.539 42.0991C160.413 42.2305 160.261 42.3338 160.092 42.4024C159.923 42.4709 159.741 42.5029 159.559 42.4965C159.38 42.4979 159.202 42.4635 159.037 42.3952C158.872 42.3269 158.723 42.2262 158.598 42.0991C158.468 41.9762 158.365 41.8279 158.297 41.6634C158.228 41.499 158.194 41.3221 158.198 41.144V17.7998H149.905C149.565 17.8086 149.236 17.6843 148.989 17.4537C148.874 17.3395 148.784 17.2034 148.724 17.0535C148.664 16.9036 148.636 16.7432 148.641 16.582C148.634 16.4157 148.661 16.2498 148.721 16.0944C148.781 15.939 148.872 15.7974 148.989 15.6782C149.236 15.4476 149.565 15.3232 149.905 15.3321H169.251C169.419 15.3255 169.587 15.3528 169.745 15.4123C169.902 15.4718 170.046 15.5622 170.167 15.6782Z" fill="#E66113"/>
<path d="M174.926 42.112C174.797 41.9865 174.696 41.8356 174.629 41.6688C174.563 41.5021 174.532 41.3233 174.539 41.1441V16.6653C174.529 16.4845 174.557 16.3035 174.622 16.1343C174.688 15.9651 174.788 15.8116 174.917 15.6838C175.046 15.556 175.201 15.4569 175.372 15.3929C175.542 15.329 175.725 15.3017 175.907 15.3129H182.207C184.684 15.2665 187.129 15.8653 189.301 17.0499C191.329 18.1831 192.996 19.8599 194.112 21.8893C195.291 24.0355 195.889 26.4498 195.846 28.8951C195.884 31.3377 195.286 33.7487 194.112 35.8945C192.989 37.9292 191.31 39.6069 189.269 40.7339C187.097 41.9184 184.651 42.5173 182.175 42.4709H175.874C175.7 42.4779 175.526 42.4496 175.363 42.388C175.2 42.3263 175.052 42.2324 174.926 42.112ZM182.207 40.0608C184.193 40.0959 186.151 39.5977 187.876 38.6187C189.51 37.6717 190.849 36.2942 191.745 34.6382C192.7 32.866 193.182 30.8797 193.144 28.8695C193.178 26.8698 192.697 24.8948 191.745 23.1327C190.85 21.4791 189.511 20.1053 187.876 19.1651C186.147 18.1981 184.19 17.7069 182.207 17.7422H177.267V40.0608H182.207Z" fill="#E66113"/>
<path d="M210.402 42.3042C210.331 42.2336 210.276 42.1494 210.239 42.0568C210.203 41.9642 210.186 41.8652 210.189 41.7658V28.1579C210.186 28.0585 210.203 27.9595 210.239 27.8669C210.276 27.7743 210.331 27.6901 210.402 27.6195C210.471 27.5474 210.556 27.4907 210.649 27.4531C210.742 27.4155 210.843 27.398 210.943 27.4016H214.813C215.702 27.3889 216.578 27.61 217.354 28.0426C218.085 28.4496 218.688 29.0511 219.095 29.7796C219.531 30.5635 219.754 31.4475 219.74 32.3435C219.748 33.2225 219.526 34.0886 219.095 34.8561C218.688 35.5798 218.085 36.1751 217.354 36.5739C216.577 37.0039 215.701 37.2249 214.813 37.2149H211.685V41.7978C211.697 41.9807 211.64 42.1615 211.524 42.3042C211.452 42.3744 211.366 42.4294 211.271 42.4657C211.177 42.5021 211.077 42.5191 210.976 42.5157C210.87 42.5235 210.764 42.5087 210.665 42.4722C210.566 42.4357 210.476 42.3784 210.402 42.3042ZM214.832 35.7342C215.451 35.7439 216.062 35.5937 216.606 35.2984C217.115 35.0168 217.535 34.5994 217.818 34.0933C218.115 33.5534 218.266 32.946 218.256 32.3307C218.266 31.7072 218.115 31.0916 217.818 30.5423C217.535 30.0308 217.116 29.6071 216.606 29.3181C216.064 29.0177 215.452 28.8652 214.832 28.8758H211.704V35.7342H214.832Z" fill="#E66113"/>
<path d="M222.306 42.3042C222.235 42.2363 222.179 42.1546 222.142 42.0642C222.104 41.9737 222.085 41.8765 222.087 41.7787V28.158C222.087 27.9585 222.166 27.7671 222.308 27.6254C222.449 27.4837 222.641 27.4033 222.842 27.4016C222.942 27.399 223.042 27.4167 223.136 27.4538C223.229 27.4909 223.314 27.5465 223.386 27.6173C223.457 27.688 223.513 27.7725 223.55 27.8654C223.587 27.9584 223.605 28.0579 223.603 28.158V41.0672H231.206C231.405 41.0621 231.599 41.1332 231.748 41.2659C231.817 41.3321 231.871 41.4119 231.908 41.5001C231.944 41.5884 231.962 41.6832 231.96 41.7787C231.966 41.8745 231.949 41.9704 231.913 42.0591C231.876 42.1479 231.819 42.2273 231.748 42.2914C231.676 42.3606 231.591 42.4145 231.498 42.4498C231.405 42.4851 231.305 42.501 231.206 42.4965H222.822C222.728 42.5003 222.633 42.4852 222.545 42.4522C222.456 42.4192 222.375 42.3689 222.306 42.3042Z" fill="#E66113"/>
<path d="M245.864 41.7465C245.865 41.8448 245.845 41.9422 245.806 42.0326C245.767 42.123 245.71 42.2046 245.638 42.2721C245.57 42.345 245.487 42.4026 245.395 42.4413C245.303 42.4799 245.203 42.4987 245.103 42.4965C244.95 42.5041 244.799 42.4636 244.67 42.3807C244.542 42.2979 244.443 42.1769 244.387 42.035L243.098 38.9006H235.559L234.269 42.035C234.227 42.1829 234.133 42.3109 234.004 42.3956C233.875 42.4803 233.719 42.5161 233.566 42.4965C233.466 42.5023 233.367 42.4851 233.275 42.4461C233.183 42.4072 233.102 42.3476 233.037 42.2721C232.969 42.2027 232.916 42.1204 232.88 42.0301C232.845 41.9399 232.828 41.8434 232.831 41.7465C232.828 41.6327 232.848 41.5195 232.889 41.4132L238.603 27.9528C238.653 27.7974 238.752 27.6623 238.886 27.5675C239.019 27.4728 239.18 27.4236 239.344 27.4272C239.506 27.4228 239.664 27.4722 239.793 27.5674C239.923 27.6627 240.017 27.7983 240.06 27.9528L245.8 41.4581C245.843 41.5479 245.866 41.6467 245.864 41.7465ZM236.1 37.6059H242.549L239.325 29.8565L236.1 37.6059Z" fill="#E66113"/>
<path d="M257.272 27.5939C257.338 27.6604 257.389 27.7397 257.422 27.8269C257.456 27.914 257.47 28.0071 257.466 28.1003C257.469 28.1893 257.453 28.2781 257.42 28.3609C257.387 28.4437 257.336 28.5186 257.272 28.581C257.206 28.6452 257.127 28.6954 257.041 28.7285C256.954 28.7615 256.862 28.7768 256.769 28.7733H252.152V41.7466C252.152 41.8442 252.133 41.941 252.095 42.0312C252.058 42.1215 252.002 42.2034 251.933 42.2722C251.864 42.3465 251.78 42.4051 251.687 42.4438C251.593 42.4826 251.492 42.5005 251.391 42.4965C251.191 42.4948 251 42.4153 250.859 42.275C250.718 42.1347 250.638 41.9449 250.636 41.7466V28.7733H246.025C245.932 28.7769 245.838 28.7617 245.751 28.7287C245.663 28.6957 245.583 28.6454 245.516 28.581C245.452 28.5186 245.401 28.4437 245.368 28.3609C245.335 28.2781 245.319 28.1893 245.322 28.1003C245.319 28.0073 245.335 27.9146 245.368 27.8277C245.401 27.7407 245.451 27.6612 245.516 27.5939C245.583 27.5294 245.663 27.4792 245.751 27.4462C245.838 27.4131 245.932 27.398 246.025 27.4016H256.776C256.867 27.399 256.958 27.4146 257.044 27.4477C257.129 27.4807 257.207 27.5304 257.272 27.5939Z" fill="#E66113"/>
<path d="M269.274 41.7466C269.274 41.8449 269.255 41.9422 269.216 42.0326C269.177 42.1231 269.12 42.2046 269.048 42.2722C268.98 42.345 268.897 42.4026 268.805 42.4413C268.712 42.48 268.613 42.4988 268.513 42.4965C268.359 42.5035 268.207 42.4629 268.078 42.3802C267.948 42.2975 267.848 42.1769 267.79 42.035L266.501 38.9006H258.968L257.679 42.035C257.637 42.1829 257.542 42.3109 257.413 42.3956C257.284 42.4803 257.129 42.5161 256.976 42.4965C256.875 42.5033 256.774 42.4866 256.681 42.4476C256.588 42.4087 256.506 42.3486 256.44 42.2722C256.307 42.1297 256.235 41.941 256.24 41.7466C256.238 41.6327 256.257 41.5195 256.298 41.4133L262.012 27.9528C262.061 27.7979 262.159 27.663 262.292 27.5682C262.424 27.4734 262.584 27.424 262.747 27.4272C262.91 27.4214 263.069 27.47 263.2 27.5654C263.331 27.6608 263.426 27.7973 263.47 27.9528L269.203 41.4581C269.249 41.5474 269.273 41.6462 269.274 41.7466ZM259.51 37.6059H265.959L262.734 29.8565L259.51 37.6059Z" fill="#E66113"/>
<path d="M270.486 42.3042C270.414 42.2367 270.357 42.1551 270.318 42.0647C270.279 41.9743 270.26 41.8769 270.26 41.7786V28.158C270.258 28.0575 270.277 27.9577 270.316 27.8649C270.354 27.7722 270.413 27.6886 270.486 27.6196C270.555 27.5488 270.639 27.493 270.731 27.4555C270.823 27.4181 270.922 27.3997 271.021 27.4016H280.14C280.239 27.399 280.337 27.4162 280.429 27.4522C280.521 27.4882 280.604 27.5422 280.675 27.611C280.745 27.6797 280.801 27.7619 280.839 27.8526C280.876 27.9433 280.895 28.0406 280.895 28.1387C280.897 28.2343 280.88 28.3293 280.843 28.4177C280.807 28.5061 280.751 28.5857 280.682 28.6515C280.609 28.7195 280.524 28.7726 280.431 28.8078C280.339 28.843 280.239 28.8596 280.14 28.8566H271.756V34.1895H277.844C278.046 34.1821 278.243 34.2534 278.392 34.3882C278.462 34.4581 278.517 34.5412 278.553 34.6326C278.59 34.7241 278.608 34.8219 278.605 34.9202C278.607 35.0165 278.588 35.1121 278.552 35.2013C278.515 35.2905 278.461 35.3715 278.392 35.4394C278.321 35.5111 278.235 35.5674 278.141 35.6049C278.047 35.6424 277.946 35.6603 277.844 35.6574H271.756V41.7466C271.758 41.8439 271.74 41.9405 271.703 42.0307C271.667 42.121 271.612 42.2031 271.544 42.2722C271.475 42.3465 271.391 42.4051 271.298 42.4438C271.204 42.4826 271.103 42.5006 271.002 42.4965C270.907 42.5003 270.813 42.4852 270.724 42.4522C270.636 42.4192 270.555 42.3689 270.486 42.3042Z" fill="#E66113"/>
<path d="M286.653 41.6633C285.49 41.012 284.53 40.0537 283.88 38.8942C283.224 37.6734 282.881 36.3107 282.881 34.9266C282.881 33.5426 283.224 32.1799 283.88 30.959C284.535 29.8065 285.494 28.8535 286.653 28.2028C287.874 27.5425 289.242 27.1966 290.632 27.1966C292.022 27.1966 293.39 27.5425 294.611 28.2028C295.777 28.8528 296.741 29.8084 297.397 30.9654C298.053 32.1863 298.396 33.549 298.396 34.933C298.396 36.3171 298.053 37.6798 297.397 38.9007C296.744 40.0599 295.779 41.0162 294.611 41.6633C293.39 42.3236 292.022 42.6695 290.632 42.6695C289.242 42.6695 287.874 42.3236 286.653 41.6633ZM293.837 40.3813C294.779 39.8383 295.554 39.0519 296.082 38.1059C296.618 37.1217 296.899 36.0202 296.899 34.901C296.899 33.7818 296.618 32.6803 296.082 31.6961C295.544 30.7746 294.769 30.0115 293.837 29.4848C292.856 28.9426 291.752 28.6581 290.629 28.6581C289.506 28.6581 288.402 28.9426 287.421 29.4848C286.482 30.0273 285.706 30.8111 285.177 31.7538C284.64 32.738 284.36 33.8395 284.36 34.9587C284.36 36.0779 284.64 37.1794 285.177 38.1635C285.704 39.1096 286.48 39.8959 287.421 40.439C288.402 40.9812 289.506 41.2657 290.629 41.2657C291.752 41.2657 292.856 40.9812 293.837 40.439V40.3813Z" fill="#E66113"/>
<path d="M311.191 41.8619C311.193 41.9505 311.175 42.0383 311.137 42.1184C311.099 42.1985 311.042 42.2687 310.972 42.3234C310.811 42.445 310.613 42.5063 310.411 42.4965C310.276 42.5015 310.141 42.4682 310.024 42.4004C309.909 42.3292 309.813 42.2299 309.747 42.1119L306.252 36.5867H303.027V41.7145C303.037 41.8193 303.025 41.9249 302.991 42.0246C302.957 42.1243 302.903 42.216 302.832 42.2937C302.76 42.3714 302.674 42.4335 302.577 42.476C302.48 42.5185 302.375 42.5404 302.269 42.5404C302.164 42.5404 302.059 42.5185 301.962 42.476C301.865 42.4335 301.778 42.3714 301.707 42.2937C301.636 42.216 301.582 42.1243 301.548 42.0246C301.514 41.9249 301.502 41.8193 301.512 41.7145V28.1579C301.508 28.0585 301.526 27.9595 301.562 27.8669C301.599 27.7743 301.654 27.6901 301.724 27.6195C301.795 27.5469 301.881 27.4899 301.975 27.4523C302.07 27.4148 302.171 27.3975 302.273 27.4016H305.903C306.782 27.386 307.651 27.5887 308.431 27.9913C309.155 28.3713 309.758 28.9439 310.172 29.645C310.611 30.3706 310.841 31.2021 310.837 32.0486C310.858 32.9766 310.578 33.8866 310.039 34.6447C309.501 35.4028 308.731 35.969 307.844 36.2598L311.03 41.3235C311.131 41.4855 311.187 41.6714 311.191 41.8619ZM305.916 35.1317C306.527 35.1431 307.131 35.0067 307.677 34.7343C308.183 34.4964 308.608 34.1179 308.902 33.6447C309.197 33.1694 309.35 32.62 309.341 32.0615C309.349 31.4788 309.197 30.9048 308.902 30.4013C308.616 29.9137 308.195 29.5178 307.69 29.2604C307.14 28.9845 306.532 28.8459 305.916 28.8566H303.04V35.1317H305.916Z" fill="#E66113"/>
<path d="M328.513 27.6195C328.584 27.6901 328.639 27.7743 328.675 27.8669C328.712 27.9595 328.729 28.0585 328.726 28.1579V41.7465C328.728 41.8438 328.709 41.9404 328.673 42.0307C328.636 42.1209 328.582 42.203 328.513 42.2721C328.446 42.3451 328.365 42.4029 328.273 42.4417C328.182 42.4804 328.084 42.4991 327.984 42.4965C327.881 42.4999 327.779 42.4816 327.683 42.443C327.587 42.4043 327.501 42.3461 327.43 42.2721C327.359 42.2042 327.303 42.1225 327.265 42.0321C327.227 41.9416 327.209 41.8444 327.211 41.7465V30.8051L321.8 41.7786C321.734 41.8912 321.641 41.9848 321.527 42.05C321.414 42.1152 321.286 42.1498 321.155 42.1504C321 42.1568 320.846 42.1127 320.718 42.0248C320.59 41.937 320.495 41.81 320.446 41.6632L315.061 30.959V41.7273C315.061 41.825 315.042 41.9218 315.004 42.012C314.967 42.1022 314.911 42.1841 314.842 42.2529C314.773 42.3272 314.689 42.3858 314.596 42.4246C314.502 42.4633 314.401 42.4813 314.3 42.4773C314.2 42.4795 314.1 42.4607 314.008 42.422C313.916 42.3834 313.833 42.3257 313.765 42.2529C313.693 42.1853 313.636 42.1038 313.597 42.0134C313.558 41.923 313.538 41.8256 313.539 41.7273V28.1579C313.537 28.0575 313.555 27.9576 313.594 27.8649C313.633 27.7721 313.691 27.6885 313.765 27.6195C313.834 27.5488 313.917 27.493 314.01 27.4555C314.102 27.418 314.2 27.3997 314.3 27.4016C314.438 27.3982 314.574 27.4329 314.694 27.502C314.814 27.571 314.912 27.6716 314.977 27.7926L321.2 40.08L327.307 27.7926C327.37 27.6764 327.463 27.5789 327.576 27.5102C327.69 27.4415 327.819 27.404 327.952 27.4016C328.056 27.3943 328.16 27.4101 328.257 27.4478C328.354 27.4855 328.442 27.5441 328.513 27.6195Z" fill="#E66113"/>
<path d="M344.087 41.7465C344.088 41.8448 344.068 41.9422 344.029 42.0326C343.99 42.123 343.933 42.2046 343.862 42.2721C343.793 42.345 343.71 42.4026 343.618 42.4413C343.526 42.4799 343.426 42.4987 343.326 42.4965C343.173 42.5035 343.021 42.4629 342.891 42.3802C342.762 42.2975 342.661 42.1769 342.604 42.035L341.314 38.9006H333.782L332.492 42.035C332.45 42.1829 332.356 42.3109 332.227 42.3956C332.098 42.4803 331.943 42.5161 331.789 42.4965C331.689 42.5033 331.588 42.4866 331.495 42.4476C331.402 42.4086 331.319 42.3485 331.254 42.2721C331.121 42.1297 331.049 41.941 331.054 41.7465C331.051 41.6327 331.071 41.5195 331.112 41.4132L336.826 27.9528C336.876 27.7974 336.975 27.6623 337.109 27.5675C337.242 27.4728 337.403 27.4236 337.567 27.4272C337.729 27.4228 337.887 27.4722 338.016 27.5674C338.146 27.6627 338.24 27.7983 338.283 27.9528L344.023 41.4581C344.065 41.5485 344.087 41.6469 344.087 41.7465ZM334.324 37.6059H340.773L337.548 29.8565L334.324 37.6059Z" fill="#E66113"/>
<path d="M99.9579 65.4754C99.8878 65.4031 99.8329 65.3178 99.7964 65.2242C99.7599 65.1307 99.7424 65.0309 99.7451 64.9306V51.3483C99.7405 51.2478 99.757 51.1474 99.7937 51.0536C99.8303 50.9598 99.8862 50.8746 99.9578 50.8034C100.029 50.7322 100.115 50.6767 100.209 50.6403C100.304 50.6039 100.405 50.5874 100.506 50.592C100.617 50.5904 100.727 50.6138 100.827 50.6605C100.928 50.7071 101.016 50.7757 101.086 50.8612L110.405 63.0012V51.3483C110.403 51.2469 110.421 51.1461 110.46 51.0523C110.499 50.9585 110.557 50.8738 110.631 50.8035C110.702 50.7348 110.785 50.6808 110.877 50.6445C110.969 50.6082 111.067 50.5903 111.166 50.592C111.266 50.5887 111.366 50.6058 111.459 50.6422C111.552 50.6786 111.637 50.7335 111.708 50.8035C111.779 50.875 111.836 50.9601 111.873 51.0537C111.911 51.1473 111.929 51.2475 111.927 51.3483V64.9306C111.927 65.0292 111.908 65.127 111.871 65.2183C111.833 65.3096 111.778 65.3926 111.708 65.4626C111.638 65.5356 111.554 65.5932 111.461 65.6319C111.368 65.6705 111.267 65.6893 111.166 65.6869C111.058 65.6942 110.951 65.6746 110.853 65.6298C110.755 65.585 110.669 65.5165 110.605 65.4305L101.293 53.2969V64.9306C101.293 65.0292 101.274 65.127 101.237 65.2183C101.199 65.3096 101.143 65.3926 101.074 65.4626C101.004 65.5356 100.92 65.5932 100.827 65.6319C100.733 65.6705 100.633 65.6893 100.532 65.6869C100.427 65.6939 100.321 65.6786 100.222 65.6422C100.123 65.6057 100.033 65.5489 99.9579 65.4754Z" fill="#E66113"/>
<path d="M127.282 64.9305C127.282 65.13 127.203 65.3214 127.061 65.4631C126.92 65.6048 126.728 65.6852 126.527 65.6869C126.373 65.6944 126.22 65.6532 126.09 65.5692C125.96 65.4852 125.861 65.3626 125.805 65.219L124.515 62.091H116.977L115.687 65.219C115.646 65.3669 115.554 65.4954 115.426 65.5812C115.298 65.6671 115.143 65.7046 114.99 65.6869C114.89 65.69 114.79 65.6715 114.698 65.6328C114.606 65.5941 114.523 65.536 114.455 65.4625C114.32 65.318 114.246 65.1276 114.249 64.9305C114.244 64.8181 114.266 64.7061 114.313 64.6036L120.027 51.1432C120.075 50.9878 120.173 50.8522 120.305 50.7573C120.438 50.6624 120.599 50.6133 120.762 50.6176C120.925 50.6106 121.085 50.6588 121.216 50.7544C121.347 50.8499 121.442 50.9871 121.484 51.1432L127.217 64.6485C127.26 64.7364 127.282 64.8329 127.282 64.9305ZM117.525 60.7963H123.974L120.749 53.0469L117.525 60.7963Z" fill="#E66113"/>
<path d="M132.125 64.8344C130.381 63.7674 129.12 62.0715 128.606 60.1015C128.091 58.1315 128.363 56.04 129.365 54.2648C130.013 53.1018 130.959 52.129 132.106 51.4445C133.253 50.7488 134.573 50.3868 135.917 50.3997C136.794 50.3852 137.667 50.5218 138.496 50.8035C139.304 51.1012 140.055 51.5349 140.715 52.0855C140.784 52.1382 140.839 52.2064 140.876 52.2844C140.913 52.3624 140.93 52.448 140.928 52.5342C140.93 52.6325 140.9 52.729 140.844 52.8098C140.798 52.8951 140.722 52.9611 140.631 52.9957C140.618 53.0407 140.595 53.0826 140.565 53.1189C140.536 53.1552 140.499 53.1852 140.457 53.2072C140.369 53.258 140.269 53.2845 140.167 53.2841C139.989 53.2898 139.816 53.2279 139.683 53.111C139.195 52.6782 138.625 52.3469 138.006 52.1368C137.336 51.9197 136.634 51.8157 135.93 51.8291C134.858 51.8249 133.807 52.1227 132.899 52.688C131.97 53.259 131.202 54.0552 130.668 55.0019C130.121 55.9545 129.836 57.0333 129.842 58.1299C129.831 59.2385 130.113 60.3306 130.661 61.2963C131.175 62.2402 131.929 63.0336 132.847 63.5974C133.762 64.1626 134.82 64.4582 135.898 64.4499C137.294 64.4565 138.649 63.9782 139.728 63.0974C139.863 62.9908 140.032 62.9365 140.204 62.9447C140.376 62.953 140.539 63.0232 140.663 63.1423C140.733 63.2124 140.787 63.2955 140.824 63.3869C140.86 63.4783 140.878 63.576 140.876 63.6743C140.876 63.8759 140.8 64.0703 140.663 64.2191C139.347 65.3585 137.641 65.9527 135.898 65.8792C134.567 65.8866 133.26 65.5248 132.125 64.8344Z" fill="#E66113"/>
<path d="M144.307 65.4626C144.235 65.3938 144.178 65.3111 144.139 65.2197C144.1 65.1282 144.081 65.0298 144.081 64.9306V51.3484C144.079 51.2469 144.098 51.1461 144.136 51.0523C144.175 50.9585 144.233 50.8738 144.307 50.8035C144.378 50.7349 144.461 50.6808 144.553 50.6445C144.645 50.6082 144.743 50.5904 144.842 50.592C144.942 50.5888 145.042 50.6058 145.135 50.6422C145.228 50.6786 145.313 50.7335 145.384 50.8035C145.455 50.8753 145.51 50.9606 145.546 51.0543C145.583 51.1479 145.6 51.248 145.597 51.3484V64.9306C145.598 65.0288 145.58 65.1264 145.544 65.2177C145.507 65.3091 145.453 65.3923 145.384 65.4626C145.314 65.5356 145.23 65.5932 145.137 65.6319C145.044 65.6705 144.943 65.6893 144.842 65.6869C144.742 65.6876 144.643 65.6681 144.551 65.6295C144.459 65.5909 144.376 65.5341 144.307 65.4626Z" fill="#E66113"/>
<path d="M152.523 64.8728C151.356 64.2228 150.396 63.2615 149.75 62.0974C149.094 60.8777 148.751 59.516 148.751 58.133C148.751 56.75 149.094 55.3883 149.75 54.1686C150.4 53.0109 151.36 52.0547 152.523 51.406C153.744 50.7457 155.112 50.3998 156.502 50.3998C157.892 50.3998 159.26 50.7457 160.481 51.406C161.647 52.0527 162.61 53.0092 163.26 54.1686C163.923 55.3862 164.27 56.7487 164.27 58.133C164.27 59.5173 163.923 60.8798 163.26 62.0974C162.614 63.2632 161.651 64.2249 160.481 64.8728C159.26 65.5331 157.892 65.8791 156.502 65.8791C155.112 65.8791 153.744 65.5331 152.523 64.8728ZM159.707 63.5909C160.648 63.0501 161.423 62.2659 161.951 61.3219C162.483 60.3365 162.762 59.2354 162.762 58.117C162.762 56.9986 162.483 55.8975 161.951 54.9121C161.423 53.968 160.648 53.1839 159.707 52.6431C158.723 52.091 157.612 51.8009 156.482 51.8009C155.353 51.8009 154.242 52.091 153.258 52.6431C152.315 53.1835 151.538 53.9676 151.007 54.9121C150.475 55.8975 150.196 56.9986 150.196 58.117C150.196 59.2354 150.475 60.3365 151.007 61.3219C151.538 62.2664 152.315 63.0505 153.258 63.5909C154.242 64.143 155.353 64.4331 156.482 64.4331C157.612 64.4331 158.723 64.143 159.707 63.5909Z" fill="#E66113"/>
<path d="M167.607 65.4754C167.537 65.4031 167.482 65.3178 167.445 65.2242C167.409 65.1307 167.391 65.0309 167.394 64.9306V51.3484C167.391 51.248 167.408 51.1479 167.444 51.0543C167.481 50.9606 167.536 50.8753 167.607 50.8035C167.678 50.7335 167.763 50.6786 167.856 50.6422C167.949 50.6058 168.048 50.5888 168.149 50.592C168.26 50.5904 168.371 50.6138 168.473 50.6604C168.574 50.707 168.664 50.7756 168.735 50.8612L178.028 63.0012V51.3484C178.024 51.2467 178.042 51.1454 178.081 51.0514C178.12 50.9573 178.179 50.8728 178.254 50.8035C178.4 50.6674 178.592 50.5917 178.792 50.5917C178.992 50.5917 179.185 50.6674 179.331 50.8035C179.402 50.8753 179.457 50.9606 179.493 51.0543C179.53 51.1479 179.547 51.248 179.544 51.3484V64.9306C179.545 65.0288 179.527 65.1264 179.491 65.2177C179.454 65.3091 179.4 65.3923 179.331 65.4626C179.261 65.5364 179.176 65.5945 179.081 65.6332C178.987 65.6719 178.885 65.6902 178.783 65.6869C178.675 65.6942 178.567 65.6746 178.469 65.6298C178.371 65.585 178.286 65.5165 178.222 65.4305L168.909 53.2969V64.9306C168.911 65.0288 168.893 65.1264 168.857 65.2177C168.82 65.3091 168.766 65.3923 168.697 65.4626C168.55 65.6024 168.355 65.6805 168.152 65.6805C167.949 65.6805 167.753 65.6024 167.607 65.4626V65.4754Z" fill="#E66113"/>
<path d="M194.905 64.9305C194.904 65.1069 194.842 65.2775 194.729 65.4135C194.616 65.5495 194.46 65.6424 194.286 65.6764C194.111 65.7104 193.931 65.6834 193.775 65.6C193.618 65.5166 193.496 65.382 193.428 65.219L192.138 62.091H184.6L183.31 65.219C183.269 65.3669 183.177 65.4954 183.049 65.5812C182.921 65.6671 182.767 65.7046 182.613 65.6869C182.513 65.6908 182.413 65.6728 182.321 65.634C182.228 65.5953 182.145 65.5367 182.078 65.4625C182.01 65.3919 181.957 65.3085 181.921 65.2172C181.886 65.1258 181.869 65.0284 181.872 64.9305C181.869 64.8188 181.888 64.7076 181.93 64.6036L187.644 51.1432C187.693 50.9873 187.792 50.8515 187.926 50.7566C188.059 50.6618 188.221 50.6129 188.385 50.6176C188.547 50.6121 188.705 50.661 188.835 50.7564C188.965 50.8518 189.059 50.9882 189.101 51.1432L194.84 64.6485C194.883 64.7364 194.905 64.8329 194.905 64.9305ZM185.141 60.7963H191.59L188.366 53.0469L185.141 60.7963Z" fill="#E66113"/>
<path d="M197.336 65.4626C197.264 65.3938 197.207 65.3111 197.168 65.2197C197.129 65.1282 197.11 65.0298 197.11 64.9306V51.3483C197.114 51.1488 197.195 50.9583 197.337 50.8172C197.479 50.676 197.671 50.5953 197.871 50.592C197.972 50.5894 198.073 50.6067 198.167 50.643C198.261 50.6793 198.347 50.7339 198.42 50.8035C198.56 50.9502 198.636 51.146 198.632 51.3483V64.2575H206.229C206.329 64.2528 206.429 64.268 206.523 64.3021C206.618 64.3362 206.704 64.3886 206.777 64.4562C206.847 64.5225 206.901 64.6023 206.938 64.6905C206.974 64.7788 206.992 64.8736 206.99 64.969C206.996 65.0649 206.979 65.1607 206.943 65.2495C206.906 65.3382 206.849 65.4176 206.777 65.4818C206.704 65.5503 206.618 65.6037 206.524 65.6389C206.43 65.6741 206.33 65.6904 206.229 65.6869H197.846C197.653 65.6815 197.47 65.6009 197.336 65.4626Z" fill="#E66113"/>
<path d="M215.316 65.4754C215.246 65.4032 215.191 65.3178 215.154 65.2243C215.118 65.1307 215.1 65.0309 215.103 64.9306V51.3484C215.098 51.2478 215.115 51.1474 215.151 51.0536C215.188 50.9598 215.244 50.8746 215.316 50.8034C215.387 50.7323 215.473 50.6767 215.567 50.6403C215.662 50.6039 215.763 50.5875 215.864 50.592H219.366C220.737 50.5688 222.091 50.9025 223.293 51.5599C224.424 52.1857 225.355 53.1139 225.982 54.2392C226.639 55.4305 226.97 56.7718 226.943 58.1299C226.968 59.4918 226.637 60.8369 225.982 62.0334C225.359 63.1631 224.427 64.0943 223.293 64.7191C222.091 65.3765 220.737 65.7101 219.366 65.6869H215.864C215.763 65.6903 215.662 65.6733 215.568 65.637C215.474 65.6006 215.388 65.5456 215.316 65.4754ZM219.366 64.3345C220.46 64.3485 221.538 64.0695 222.487 63.5269C223.399 63.0043 224.145 62.2382 224.641 61.3155C225.154 60.331 225.421 59.2385 225.421 58.1299C225.421 57.0212 225.154 55.9288 224.641 54.9442C224.147 54.022 223.4 53.2576 222.487 52.7393C221.537 52.1976 220.461 51.9146 219.366 51.9188H216.618V64.3088L219.366 64.3345Z" fill="#E66113"/>
<path d="M230.296 65.4626C230.225 65.3935 230.169 65.3106 230.131 65.2191C230.094 65.1276 230.075 65.0294 230.077 64.9306V51.3483C230.074 51.2474 230.091 51.1467 230.129 51.0529C230.167 50.959 230.224 50.8741 230.296 50.8035C230.367 50.7349 230.451 50.6808 230.543 50.6445C230.635 50.6082 230.733 50.5903 230.832 50.592H239.95C240.051 50.5894 240.152 50.6067 240.246 50.643C240.34 50.6793 240.426 50.7339 240.499 50.8035C240.568 50.8722 240.623 50.9542 240.659 51.0446C240.696 51.1349 240.714 51.2317 240.711 51.3291C240.714 51.4247 240.697 51.5197 240.66 51.6081C240.623 51.6964 240.568 51.7761 240.499 51.8419C240.349 51.9767 240.152 52.048 239.95 52.0406H231.567V57.3735H237.655C237.856 57.3699 238.051 57.4459 238.196 57.585C238.265 57.6541 238.32 57.7362 238.356 57.8265C238.393 57.9167 238.411 58.0133 238.409 58.1106C238.41 58.2081 238.391 58.3047 238.352 58.3942C238.313 58.4836 238.256 58.5639 238.183 58.6298C238.114 58.6991 238.032 58.7541 237.941 58.7915C237.85 58.8289 237.753 58.848 237.655 58.8477H231.567V64.2383H239.95C240.152 64.2309 240.349 64.3022 240.499 64.437C240.568 64.5033 240.622 64.583 240.659 64.6713C240.696 64.7595 240.713 64.8543 240.711 64.9498C240.713 65.0471 240.695 65.1437 240.658 65.2339C240.622 65.3242 240.568 65.4063 240.499 65.4754C240.426 65.545 240.34 65.5996 240.246 65.6359C240.152 65.6722 240.051 65.6896 239.95 65.6869H230.832C230.732 65.6876 230.633 65.6681 230.541 65.6295C230.449 65.5909 230.366 65.5341 230.296 65.4626Z" fill="#E66113"/>
<path d="M259.529 50.7843C259.594 50.8514 259.645 50.9309 259.678 51.0179C259.711 51.1049 259.726 51.1977 259.723 51.2907C259.726 51.3798 259.71 51.4685 259.677 51.5513C259.644 51.6341 259.593 51.709 259.529 51.7714C259.463 51.8356 259.384 51.8858 259.298 51.9189C259.211 51.9519 259.119 51.9672 259.026 51.9637H254.396V64.9306C254.398 65.0288 254.38 65.1264 254.343 65.2177C254.307 65.3091 254.252 65.3923 254.183 65.4626C254.113 65.5337 254.029 65.5902 253.937 65.6288C253.844 65.6673 253.745 65.6872 253.645 65.6872C253.544 65.6872 253.445 65.6673 253.353 65.6288C253.26 65.5902 253.176 65.5337 253.106 65.4626C253.034 65.3938 252.977 65.3111 252.938 65.2197C252.899 65.1282 252.88 65.0298 252.881 64.9306V51.9637H248.282C248.189 51.9681 248.095 51.9533 248.008 51.9202C247.92 51.8871 247.84 51.8365 247.773 51.7714C247.709 51.709 247.659 51.6341 247.625 51.5513C247.592 51.4685 247.576 51.3798 247.58 51.2907C247.576 51.1977 247.591 51.1049 247.624 51.0179C247.658 50.9309 247.708 50.8514 247.773 50.7843C247.84 50.7192 247.92 50.6686 248.008 50.6355C248.095 50.6024 248.189 50.5876 248.282 50.592H259.033C259.124 50.5894 259.215 50.605 259.301 50.6381C259.386 50.6711 259.464 50.7208 259.529 50.7843Z" fill="#E66113"/>
<path d="M262.186 65.4626C262.113 65.3948 262.055 65.3123 262.016 65.2206C261.977 65.1289 261.958 65.0301 261.961 64.9306V51.3484C261.956 51.2467 261.975 51.1454 262.013 51.0514C262.052 50.9573 262.111 50.8728 262.186 50.8035C262.257 50.7346 262.341 50.6803 262.432 50.644C262.524 50.6077 262.623 50.59 262.722 50.592H271.834C271.935 50.5883 272.036 50.6051 272.13 50.6415C272.224 50.6778 272.31 50.733 272.382 50.8035C272.451 50.8722 272.506 50.9542 272.543 51.0446C272.579 51.1349 272.597 51.2317 272.595 51.3291C272.598 51.4247 272.58 51.5197 272.543 51.6081C272.507 51.6964 272.452 51.7761 272.382 51.8419C272.308 51.9095 272.222 51.9619 272.128 51.9961C272.034 52.0302 271.934 52.0453 271.834 52.0406H263.45V57.3735H269.564C269.765 57.3699 269.96 57.446 270.106 57.585C270.174 57.6541 270.229 57.7362 270.265 57.8265C270.302 57.9167 270.32 58.0133 270.318 58.1106C270.321 58.2077 270.303 58.3041 270.265 58.3936C270.227 58.4831 270.171 58.5636 270.099 58.6298C269.956 58.7691 269.764 58.8473 269.564 58.8477H263.476V64.2383H271.86C271.96 64.2336 272.06 64.2488 272.154 64.2829C272.248 64.317 272.334 64.3694 272.408 64.437C272.477 64.5033 272.532 64.5831 272.568 64.6713C272.605 64.7595 272.623 64.8544 272.621 64.9498C272.622 65.0488 272.604 65.147 272.566 65.2386C272.528 65.3301 272.472 65.413 272.401 65.4821C272.329 65.5511 272.245 65.6049 272.151 65.6402C272.058 65.6754 271.959 65.6913 271.86 65.6869H262.722C262.622 65.688 262.523 65.6687 262.43 65.6301C262.338 65.5915 262.255 65.5345 262.186 65.4626Z" fill="#E66113"/>
<path d="M275.639 65.4625C275.567 65.3938 275.51 65.3111 275.471 65.2196C275.432 65.1282 275.412 65.0298 275.413 64.9305V51.3483C275.418 51.2023 275.465 51.0607 275.549 50.9403C275.632 50.8199 275.748 50.7256 275.884 50.6685C276.019 50.6113 276.168 50.5936 276.313 50.6175C276.458 50.6415 276.593 50.706 276.703 50.8035C276.773 50.8753 276.829 50.9606 276.865 51.0543C276.902 51.1479 276.919 51.2479 276.916 51.3483V64.2575H284.519C284.721 64.2501 284.917 64.3214 285.067 64.4562C285.136 64.5225 285.191 64.6022 285.227 64.6905C285.264 64.7787 285.282 64.8736 285.28 64.969C285.285 65.0648 285.269 65.1607 285.232 65.2494C285.195 65.3382 285.139 65.4176 285.067 65.4818C284.918 65.6183 284.721 65.6919 284.519 65.6869H276.135C275.947 65.6782 275.769 65.5978 275.639 65.4625Z" fill="#E66113"/>
<path d="M287.943 65.4626C287.872 65.3935 287.816 65.3106 287.778 65.2191C287.74 65.1276 287.722 65.0294 287.724 64.9306V51.3483C287.72 51.2474 287.738 51.1467 287.776 51.0529C287.813 50.959 287.87 50.8741 287.943 50.8035C288.014 50.7349 288.098 50.6808 288.19 50.6445C288.281 50.6082 288.38 50.5903 288.478 50.592H297.597C297.698 50.5894 297.799 50.6067 297.893 50.643C297.987 50.6793 298.073 50.7339 298.145 50.8035C298.215 50.8722 298.27 50.9542 298.306 51.0446C298.343 51.1349 298.36 51.2317 298.358 51.3291C298.361 51.4247 298.343 51.5197 298.307 51.6081C298.27 51.6964 298.215 51.7761 298.145 51.8419C297.996 51.9767 297.799 52.048 297.597 52.0406H289.214V57.3735H295.295C295.499 57.3696 295.695 57.4456 295.843 57.585C295.912 57.6541 295.966 57.7362 296.003 57.8265C296.039 57.9167 296.057 58.0133 296.056 58.1106C296.057 58.2081 296.038 58.3047 295.999 58.3942C295.96 58.4836 295.902 58.5639 295.83 58.6298C295.76 58.6996 295.677 58.7548 295.585 58.7923C295.493 58.8297 295.394 58.8485 295.295 58.8477H289.214V64.2383H297.597C297.799 64.2309 297.996 64.3022 298.145 64.437C298.214 64.5033 298.269 64.583 298.306 64.6713C298.342 64.7595 298.36 64.8543 298.358 64.9498C298.36 65.0471 298.342 65.1437 298.305 65.2339C298.269 65.3242 298.214 65.4063 298.145 65.4754C298.073 65.545 297.987 65.5996 297.893 65.6359C297.799 65.6722 297.698 65.6896 297.597 65.6869H288.478C288.379 65.6876 288.28 65.6681 288.188 65.6295C288.096 65.5909 288.012 65.5341 287.943 65.4626Z" fill="#E66113"/>
<path d="M301.389 65.4754C301.319 65.4031 301.264 65.3178 301.228 65.2242C301.191 65.1307 301.174 65.0309 301.176 64.9306V51.3483C301.173 51.2479 301.19 51.1479 301.227 51.0543C301.263 50.9606 301.318 50.8753 301.389 50.8035C301.46 50.7335 301.545 50.6786 301.638 50.6422C301.731 50.6058 301.831 50.5887 301.931 50.592H305.433C306.804 50.5679 308.158 50.9016 309.36 51.5598C310.492 52.1856 311.426 53.1136 312.056 54.2391C312.709 55.4315 313.04 56.7721 313.016 58.1298C313.039 59.4914 312.708 60.8358 312.056 62.0334C311.43 63.1635 310.496 64.0946 309.36 64.719C308.158 65.3773 306.804 65.711 305.433 65.6869H301.931C301.831 65.6902 301.731 65.6731 301.638 65.6367C301.545 65.6003 301.46 65.5454 301.389 65.4754ZM305.433 64.3345C306.538 64.3539 307.628 64.0748 308.586 63.5268C309.496 63.0024 310.242 62.2368 310.74 61.3155C311.253 60.3309 311.521 59.2385 311.521 58.1298C311.521 57.0212 311.253 55.9287 310.74 54.9442C310.244 54.0234 309.497 53.2595 308.586 52.7392C307.627 52.1924 306.538 51.9092 305.433 51.9188H302.692V64.3088L305.433 64.3345Z" fill="#E66113"/>
<path d="M316.37 65.4626C316.298 65.3938 316.241 65.3111 316.202 65.2197C316.163 65.1282 316.143 65.0298 316.144 64.9306V51.3484C316.142 51.2469 316.16 51.1461 316.199 51.0523C316.238 50.9585 316.296 50.8738 316.37 50.8035C316.441 50.7349 316.524 50.6808 316.616 50.6445C316.708 50.6082 316.806 50.5904 316.905 50.592C317.005 50.5888 317.105 50.6058 317.198 50.6422C317.291 50.6786 317.376 50.7335 317.447 50.8035C317.518 50.8753 317.573 50.9606 317.609 51.0543C317.646 51.1479 317.663 51.248 317.66 51.3484V64.9306C317.661 65.0288 317.643 65.1264 317.607 65.2177C317.57 65.3091 317.516 65.3923 317.447 65.4626C317.377 65.5356 317.293 65.5932 317.2 65.6319C317.107 65.6705 317.006 65.6893 316.905 65.6869C316.805 65.6876 316.706 65.6681 316.614 65.6295C316.522 65.5909 316.439 65.5341 316.37 65.4626Z" fill="#E66113"/>
<path d="M333.021 64.9306C333.022 65.0299 333.002 65.1282 332.963 65.2197C332.924 65.3112 332.867 65.3938 332.795 65.4626C332.727 65.534 332.645 65.5907 332.554 65.6293C332.463 65.6679 332.365 65.6875 332.266 65.6869C332.112 65.6945 331.959 65.6533 331.829 65.5693C331.699 65.4852 331.6 65.3627 331.544 65.219L330.254 62.0911H322.716L321.426 65.219C321.385 65.3669 321.293 65.4954 321.165 65.5813C321.037 65.6671 320.883 65.7046 320.729 65.6869C320.629 65.6909 320.529 65.6729 320.437 65.6341C320.344 65.5953 320.261 65.5368 320.194 65.4626C320.059 65.3181 319.985 65.1277 319.988 64.9306C319.985 64.8189 320.004 64.7076 320.046 64.6037L325.76 51.1433C325.81 50.9879 325.909 50.8527 326.042 50.758C326.176 50.6633 326.337 50.614 326.501 50.6177C326.663 50.6118 326.823 50.6605 326.954 50.7558C327.085 50.8512 327.18 50.9877 327.223 51.1433L332.956 64.6486C332.999 64.7365 333.021 64.8329 333.021 64.9306ZM323.264 60.7963H329.713L326.488 53.047L323.264 60.7963Z" fill="#E66113"/>
<path d="M346.415 58.3285C346.487 58.397 346.543 58.4799 346.58 58.5716C346.616 58.6634 346.633 58.7619 346.628 58.8605V63.6486C346.632 63.749 346.614 63.849 346.578 63.9427C346.541 64.0363 346.486 64.1216 346.415 64.1934C345.102 65.3375 343.394 65.9323 341.65 65.8535C340.314 65.8647 339.002 65.5027 337.864 64.8088C336.12 63.7417 334.859 62.0458 334.345 60.0758C333.83 58.1058 334.102 56.0144 335.104 54.2391C335.752 53.0761 336.698 52.1034 337.845 51.4188C338.99 50.7233 340.308 50.3613 341.65 50.374C342.526 50.359 343.399 50.4956 344.229 50.7779C345.038 51.0727 345.789 51.5066 346.448 52.0598C346.517 52.1114 346.573 52.1793 346.611 52.2576C346.648 52.3359 346.665 52.4221 346.66 52.5085C346.661 52.6058 346.635 52.7014 346.583 52.7841C346.535 52.8684 346.46 52.934 346.37 52.97C346.342 53.0638 346.28 53.1438 346.196 53.1943C346.11 53.2499 346.009 53.2789 345.906 53.2777C345.724 53.2778 345.549 53.2091 345.416 53.0854C344.923 52.6584 344.348 52.3356 343.726 52.1367C343.054 51.9197 342.35 51.8157 341.643 51.8291C340.572 51.8266 339.521 52.1242 338.612 52.688C337.686 53.2599 336.92 54.056 336.387 55.0019C335.841 55.9545 335.556 57.0332 335.562 58.1298C335.553 59.2373 335.833 60.3283 336.374 61.2962C336.901 62.2414 337.665 63.0344 338.593 63.5973C339.509 64.161 340.566 64.4565 341.643 64.4498C342.897 64.4528 344.121 64.0675 345.145 63.3473V59.5015H342.114C341.913 59.508 341.718 59.4394 341.566 59.3092C341.497 59.2478 341.443 59.1726 341.406 59.0886C341.369 59.0045 341.351 58.9137 341.353 58.8221C341.351 58.7332 341.369 58.6449 341.405 58.5639C341.442 58.4829 341.497 58.4112 341.566 58.3542C341.72 58.2289 341.915 58.163 342.114 58.1683H345.867C346.064 58.1482 346.261 58.2057 346.415 58.3285Z" fill="#E66113"/>
<path d="M350.033 65.4754C349.963 65.4032 349.908 65.3178 349.872 65.2242C349.835 65.1307 349.818 65.0309 349.82 64.9306V51.3484C349.817 51.248 349.834 51.1479 349.871 51.0543C349.907 50.9606 349.963 50.8753 350.033 50.8035C350.11 50.7313 350.201 50.6753 350.3 50.639C350.399 50.6026 350.504 50.5866 350.61 50.592C350.715 50.5974 350.819 50.6241 350.914 50.6703C351.008 50.7166 351.093 50.7815 351.162 50.8612L360.455 63.0012V51.3484C360.452 51.2469 360.471 51.1461 360.51 51.0523C360.549 50.9585 360.607 50.8738 360.68 50.8035C360.751 50.7349 360.835 50.6808 360.927 50.6445C361.018 50.6082 361.117 50.5904 361.216 50.592C361.316 50.5888 361.415 50.6058 361.508 50.6422C361.601 50.6786 361.686 50.7335 361.757 50.8035C361.828 50.8753 361.883 50.9606 361.92 51.0543C361.956 51.1479 361.973 51.248 361.97 51.3484V64.9306C361.972 65.0288 361.954 65.1264 361.917 65.2177C361.881 65.3091 361.826 65.3923 361.757 65.4626C361.688 65.5356 361.604 65.5932 361.51 65.6319C361.417 65.6705 361.317 65.6893 361.216 65.6869C361.107 65.6953 360.998 65.6762 360.899 65.6314C360.799 65.5866 360.713 65.5175 360.648 65.4305L351.336 53.2969V64.9306C351.337 65.0288 351.32 65.1264 351.283 65.2177C351.246 65.3091 351.192 65.3923 351.123 65.4626C351.054 65.5356 350.969 65.5932 350.876 65.6319C350.783 65.6705 350.682 65.6893 350.581 65.6869C350.48 65.6907 350.379 65.6738 350.285 65.6375C350.191 65.6011 350.105 65.5459 350.033 65.4754Z" fill="#E66113"/>
<path d="M368.877 64.8729C367.712 64.2227 366.754 63.2613 366.11 62.0975C365.448 60.8799 365.101 59.5174 365.101 58.133C365.101 56.7487 365.448 55.3862 366.11 54.1686C366.758 53.0112 367.715 52.0549 368.877 51.406C370.099 50.7457 371.468 50.3998 372.859 50.3998C374.25 50.3998 375.619 50.7457 376.841 51.406C378.008 52.0527 378.97 53.0093 379.621 54.1686C380.277 55.3883 380.62 56.75 380.62 58.133C380.62 59.5161 380.277 60.8777 379.621 62.0975C378.974 63.2632 378.011 64.2249 376.841 64.8729C375.619 65.5332 374.25 65.8791 372.859 65.8791C371.468 65.8791 370.099 65.5332 368.877 64.8729ZM376.061 63.5909C377.003 63.0519 377.779 62.2673 378.305 61.3219C378.841 60.3377 379.122 59.2362 379.122 58.117C379.122 56.9978 378.841 55.8963 378.305 54.9122C377.779 53.9667 377.003 53.1821 376.061 52.6431C375.082 52.0968 373.978 51.8098 372.856 51.8098C371.733 51.8098 370.629 52.0968 369.651 52.6431C368.708 53.1835 367.93 53.9676 367.4 54.9122C366.868 55.8975 366.589 56.9986 366.589 58.117C366.589 59.2354 366.868 60.3365 367.4 61.3219C367.93 62.2664 368.708 63.0505 369.651 63.5909C370.629 64.1373 371.733 64.4242 372.856 64.4242C373.978 64.4242 375.082 64.1373 376.061 63.5909ZM372.192 48.7396C372.122 48.6693 372.068 48.5861 372.032 48.4948C371.995 48.4034 371.977 48.3058 371.979 48.2076C371.971 48.025 372.033 47.8462 372.153 47.7076L374.345 45.5219C374.415 45.4534 374.498 45.3994 374.588 45.3631C374.679 45.3268 374.776 45.3089 374.874 45.3104C374.975 45.308 375.076 45.3268 375.169 45.3654C375.262 45.404 375.347 45.4617 375.416 45.5347C375.56 45.6824 375.638 45.8806 375.635 46.086C375.638 46.1802 375.62 46.2739 375.582 46.3603C375.544 46.4467 375.487 46.5237 375.416 46.5859L373.243 48.7716C373.175 48.8361 373.095 48.8863 373.008 48.9194C372.92 48.9524 372.827 48.9676 372.733 48.9639C372.635 48.9687 372.537 48.9536 372.445 48.9194C372.353 48.8853 372.269 48.8328 372.198 48.7652L372.192 48.7396Z" fill="#E66113"/>
<path d="M385.154 65.0972C384.258 64.6318 383.538 63.8894 383.103 62.982C383.052 62.8875 383.025 62.7817 383.026 62.6743C383.024 62.588 383.042 62.5024 383.077 62.4237C383.113 62.345 383.166 62.2752 383.232 62.2192C383.387 62.0898 383.585 62.0234 383.787 62.0333C383.942 62.0342 384.094 62.0786 384.225 62.1615C384.36 62.2439 384.464 62.3677 384.522 62.5141C384.856 63.1271 385.378 63.6187 386.012 63.9178C386.763 64.2846 387.593 64.467 388.43 64.4498C389.352 64.4968 390.263 64.2275 391.009 63.687C391.331 63.4306 391.586 63.1011 391.753 62.7264C391.921 62.3517 391.995 61.9426 391.97 61.5334C391.976 61.1472 391.899 60.7642 391.743 60.4104C391.587 60.0565 391.357 59.74 391.067 59.4823C390.294 58.8593 389.346 58.4878 388.352 58.4182C387.058 58.3261 385.822 57.848 384.806 57.0466C384.396 56.7086 384.068 56.2841 383.845 55.8039C383.622 55.3237 383.509 54.8 383.516 54.2712C383.504 53.5404 383.73 52.8255 384.161 52.2329C384.602 51.626 385.208 51.1568 385.908 50.8804C386.712 50.5543 387.574 50.393 388.443 50.4061C389.389 50.3845 390.323 50.6194 391.145 51.0855C391.897 51.505 392.528 52.1098 392.976 52.8418C393.065 52.9794 393.112 53.1397 393.112 53.3033C393.114 53.4232 393.083 53.5414 393.022 53.6445C392.96 53.7476 392.871 53.8314 392.764 53.8866C392.578 53.9712 392.367 53.9839 392.173 53.9223C391.979 53.8606 391.814 53.729 391.712 53.5533C391.366 53.0033 390.879 52.5545 390.301 52.2527C389.724 51.951 389.076 51.807 388.423 51.8355C387.548 51.7816 386.679 52.0061 385.941 52.4764C385.635 52.6847 385.388 52.9672 385.223 53.297C385.059 53.6268 384.981 53.9931 384.999 54.3609C384.999 55.865 386.224 56.7795 388.675 57.1043C389.996 57.215 391.25 57.7276 392.267 58.5721C392.666 58.9535 392.979 59.4147 393.186 59.9251C393.393 60.4355 393.488 60.9836 393.466 61.5334C393.499 62.3484 393.28 63.1539 392.839 63.8414C392.397 64.529 391.754 65.0656 390.997 65.3792C390.183 65.7315 389.304 65.9063 388.417 65.892C387.279 65.9065 386.156 65.633 385.154 65.0972Z" fill="#E66113"/>
<path d="M406.396 50.7843C406.461 50.8514 406.512 50.9309 406.545 51.0179C406.578 51.1049 406.594 51.1977 406.59 51.2907C406.593 51.3798 406.578 51.4685 406.544 51.5513C406.511 51.6341 406.461 51.709 406.396 51.7714C406.33 51.8356 406.251 51.8858 406.165 51.9189C406.078 51.9519 405.986 51.9672 405.894 51.9637H401.263V64.9306C401.265 65.0288 401.247 65.1264 401.21 65.2177C401.174 65.3091 401.119 65.3923 401.05 65.4626C400.98 65.5337 400.896 65.5902 400.804 65.6288C400.711 65.6673 400.612 65.6872 400.512 65.6872C400.412 65.6872 400.312 65.6673 400.22 65.6288C400.127 65.5902 400.044 65.5337 399.973 65.4626C399.901 65.3938 399.844 65.3111 399.805 65.2197C399.767 65.1282 399.747 65.0298 399.748 64.9306V51.9637H395.143C395.05 51.9681 394.956 51.9533 394.868 51.9202C394.781 51.8871 394.701 51.8365 394.634 51.7714C394.57 51.709 394.519 51.6341 394.486 51.5513C394.453 51.4685 394.437 51.3798 394.44 51.2907C394.437 51.1977 394.452 51.1049 394.485 51.0179C394.518 50.9309 394.569 50.8514 394.634 50.7843C394.701 50.7192 394.781 50.6686 394.868 50.6355C394.956 50.6024 395.05 50.5876 395.143 50.592H405.894C405.986 50.5885 406.078 50.6037 406.165 50.6368C406.251 50.6699 406.33 50.72 406.396 50.7843Z" fill="#E66113"/>
<path d="M409.053 65.4626C408.98 65.3947 408.922 65.3123 408.883 65.2206C408.844 65.1289 408.825 65.03 408.828 64.9306V51.3483C408.824 51.2467 408.842 51.1454 408.881 51.0514C408.92 50.9573 408.978 50.8728 409.053 50.8035C409.122 50.7344 409.205 50.6801 409.296 50.6437C409.387 50.6073 409.484 50.5897 409.582 50.592C409.683 50.5874 409.784 50.6039 409.879 50.6403C409.973 50.6767 410.059 50.7322 410.131 50.8034C410.202 50.8746 410.258 50.9598 410.295 51.0536C410.331 51.1474 410.348 51.2478 410.343 51.3483V64.9306C410.345 65.0288 410.327 65.1264 410.29 65.2177C410.254 65.309 410.199 65.3923 410.13 65.4626C410.06 65.5357 409.974 65.5935 409.88 65.6321C409.786 65.6707 409.684 65.6894 409.582 65.6869C409.483 65.6883 409.385 65.669 409.294 65.6304C409.203 65.5917 409.121 65.5346 409.053 65.4626Z" fill="#E66113"/>
<path d="M417.244 64.8344C415.504 63.7641 414.246 62.0682 413.732 60.0996C413.217 58.1309 413.487 56.0411 414.483 54.2648C415.134 53.1032 416.079 52.1309 417.224 51.4445C418.371 50.7488 419.692 50.3868 421.036 50.3997C421.912 50.3846 422.785 50.5213 423.615 50.8035C424.424 51.0998 425.174 51.5336 425.833 52.0854C425.903 52.137 425.959 52.205 425.996 52.2833C426.034 52.3615 426.051 52.4477 426.046 52.5341C426.047 52.6314 426.021 52.727 425.969 52.8097C425.921 52.894 425.846 52.9596 425.756 52.9956C425.743 53.0406 425.72 53.0825 425.69 53.1188C425.661 53.1552 425.624 53.1852 425.582 53.2071C425.491 53.2579 425.389 53.2844 425.285 53.2841C425.108 53.2898 424.935 53.2279 424.802 53.111C424.323 52.676 423.762 52.3404 423.151 52.1239C422.478 51.9073 421.774 51.8034 421.068 51.8162C419.996 51.8137 418.946 52.1114 418.037 52.6751C417.108 53.2444 416.342 54.0411 415.812 54.989C415.262 55.9404 414.977 57.02 414.986 58.117C414.978 59.2245 415.257 60.3154 415.799 61.2834C416.323 62.23 417.088 63.0235 418.017 63.5845C418.933 64.1482 419.991 64.4436 421.068 64.437C422.464 64.4437 423.819 63.9653 424.898 63.0845C425.022 62.9879 425.173 62.9339 425.33 62.9307C425.423 62.9291 425.516 62.9459 425.602 62.98C425.688 63.0141 425.767 63.0649 425.833 63.1294C425.904 63.1988 425.959 63.2819 425.996 63.3734C426.032 63.4649 426.049 63.563 426.046 63.6614C426.05 63.8637 425.973 64.0592 425.833 64.2062C424.518 65.3468 422.812 65.9412 421.068 65.8664C419.721 65.8872 418.395 65.5295 417.244 64.8344Z" fill="#E66113"/>
<path d="M432.257 64.8728C431.09 64.2228 430.129 63.2615 429.484 62.0974C428.828 60.8777 428.484 59.516 428.484 58.133C428.484 56.75 428.828 55.3883 429.484 54.1686C430.133 53.0109 431.093 52.0547 432.257 51.406C433.478 50.7457 434.846 50.3998 436.236 50.3998C437.626 50.3998 438.994 50.7457 440.215 51.406C441.381 52.0527 442.343 53.0092 442.994 54.1686C443.657 55.3862 444.004 56.7487 444.004 58.133C444.004 59.5173 443.657 60.8798 442.994 62.0974C442.348 63.2632 441.384 64.2249 440.215 64.8728C438.994 65.5331 437.626 65.8791 436.236 65.8791C434.846 65.8791 433.478 65.5331 432.257 64.8728ZM439.441 63.5909C440.381 63.0501 441.157 62.2659 441.685 61.3219C442.217 60.3365 442.496 59.2354 442.496 58.117C442.496 56.9986 442.217 55.8975 441.685 54.9121C441.157 53.968 440.381 53.1839 439.441 52.6431C438.461 52.0968 437.356 51.8099 436.232 51.8099C435.109 51.8099 434.004 52.0968 433.024 52.6431C432.083 53.1906 431.31 53.9814 430.786 54.9314C430.254 55.9167 429.975 57.0178 429.975 58.1362C429.975 59.2547 430.254 60.3557 430.786 61.3411C431.316 62.2856 432.094 63.0697 433.037 63.6101C434.017 64.1564 435.122 64.4433 436.245 64.4433C437.369 64.4433 438.474 64.1564 439.454 63.6101L439.441 63.5909Z" fill="#E66113"/>
<path d="M39.2352 78C31.4739 78 23.887 75.7125 17.4337 71.4268C10.9805 67.1411 5.95081 61.0496 2.98071 53.9227C0.0106096 46.7958 -0.766504 38.9535 0.747639 31.3877C2.26178 23.8218 5.99918 16.8721 11.4872 11.4174C16.9752 5.96269 23.9674 2.24799 31.5795 0.743044C39.1916 -0.761903 47.0818 0.010491 54.2522 2.96255C61.4227 5.91461 67.5514 10.9137 71.8633 17.3278C76.1752 23.7418 78.4767 31.2827 78.4767 38.9968C78.4665 49.338 74.3288 59.2527 66.9718 66.565C59.6148 73.8773 49.6395 77.9898 39.2352 78ZM39.2352 4.28813C32.3306 4.29066 25.5818 6.32791 19.842 10.1423C14.1022 13.9567 9.62914 19.377 6.98834 25.7178C4.34755 32.0587 3.65759 39.0354 5.0057 45.766C6.35381 52.4965 9.67946 58.6787 14.5622 63.5309C19.4449 68.383 25.6655 71.6874 32.4374 73.026C39.2093 74.3647 46.2286 73.6777 52.6077 71.0517C58.9868 68.4258 64.4394 63.9789 68.276 58.2733C72.1127 52.5676 74.1611 45.8595 74.1624 38.9968C74.1521 29.7947 70.4684 20.9727 63.9199 14.4676C57.3715 7.9625 48.4935 4.30604 39.2352 4.30095V4.28813Z" fill="#E66113"/>
<path d="M36.5394 30.7667C35.7398 33.8947 35.024 36.6893 34.3146 39.4903C33.8374 41.3748 33.3408 43.2657 32.9216 45.163C32.8614 45.6847 32.6319 46.1728 32.2676 46.5533C31.9034 46.9338 31.4244 47.186 30.9031 47.2718C29.7359 47.4833 29.1684 46.6885 28.6138 45.8873L25.4538 41.2915C25.2637 41.3922 25.1007 41.5367 24.9784 41.7129C24.8561 41.8891 24.7781 42.0919 24.7509 42.3042C24.2156 44.1566 22.9903 44.7912 21.1266 44.6245C19.8368 44.5092 18.4761 44.6245 17.1476 44.6245C15.6708 44.6245 14.6261 43.6951 14.6261 42.4965C14.6261 41.2979 15.6128 40.4262 17.1412 40.3557H17.2766C20.3656 40.9966 22.0359 39.5288 22.9516 36.7534C23.2547 35.8176 23.7061 34.8305 24.9701 34.8305C26.2341 34.8305 26.8081 35.6637 27.3885 36.5611C28.1236 37.6956 28.8846 38.8173 29.7939 40.1954L32.0704 31.3308C32.7926 28.5041 33.5343 25.703 34.1791 22.8827C34.4371 21.7546 35.024 21.0111 36.1525 20.9598C36.6849 20.9347 37.2087 21.1009 37.6279 21.4282C38.0471 21.7554 38.3338 22.2217 38.4354 22.7417C39.9832 27.7349 41.5309 32.6896 43.0657 37.6892C44.4587 42.176 45.8452 46.6628 47.3607 51.5983C48.0056 49.1114 48.5408 47.0026 49.0761 44.8938C49.721 42.3299 50.3659 39.8044 51.0108 37.2469C51.2881 36.074 51.8362 35.2215 53.1196 35.0805C54.4029 34.9394 55.0542 35.6766 55.3638 36.6829C56.3376 39.6698 58.0465 41.3428 61.4709 40.6697C61.7174 40.6051 61.9757 40.5991 62.2249 40.652C62.4742 40.705 62.7074 40.8155 62.9058 40.9746C63.1042 41.1337 63.2621 41.3369 63.3669 41.5679C63.4716 41.7989 63.5202 42.0511 63.5087 42.3042C63.5486 42.5678 63.5329 42.8368 63.4625 43.0941C63.3922 43.3514 63.2689 43.5913 63.1003 43.7986C62.9317 44.006 62.7216 44.1762 62.4832 44.2985C62.2449 44.4208 61.9836 44.4926 61.7159 44.5092C59.665 44.6256 57.6093 44.6363 55.5572 44.5412C54.7963 44.5412 54.2675 43.9002 53.6677 43.1503C53.0615 45.5219 52.4876 47.7204 51.933 49.9254C51.172 52.9572 50.3981 55.9826 49.6823 59.0272C49.405 60.213 49.0374 61.2578 47.58 61.277C46.1225 61.2962 45.6453 60.2515 45.3099 59.1169C42.5498 50.1433 39.7918 41.1804 37.036 32.2281C36.9199 31.8692 36.7587 31.4974 36.5394 30.7667Z" fill="#E66113"/>
</g>
<defs>
<clipPath id="clip0_37_836">
<rect width="444" height="78" fill="white"/>
</clipPath>
</defs>
</svg>
