<svg width="298" height="85" viewBox="0 0 298 85" fill="none" xmlns="http://www.w3.org/2000/svg">
<g clip-path="url(#clip0_37_672)">
<path d="M121.036 47.1265C119.829 46.3071 118.408 45.8743 116.957 45.8837C115.347 45.8837 113.918 46.6272 112.671 48.1142C111.41 49.6355 110.743 51.5759 110.797 53.5657V70.7996H103.862V40.5436H110.797V43.3104C112.735 41.0887 115.316 39.9779 118.54 39.9779C120.906 39.9779 122.719 40.3453 123.978 41.0799L121.036 47.1265Z" fill="#A6CBDE"/>
<path d="M154.664 57.8332H133.44C133.57 60.2424 134.384 62.1162 135.881 63.4547C137.378 64.7932 139.393 65.4614 141.926 65.4595C145.09 65.4595 147.495 64.6212 149.14 62.9447L151.831 68.3406C149.39 70.357 145.744 71.3653 140.892 71.3653C136.362 71.3653 132.778 70.0141 130.141 67.3118C127.504 64.6095 126.19 60.8374 126.197 55.9955C126.197 51.2337 127.644 47.3727 130.538 44.4124C133.432 41.4522 136.906 39.974 140.959 39.9779C145.267 39.9779 148.726 41.2871 151.336 43.9054C153.946 46.5237 155.25 49.8571 155.248 53.9057C155.183 55.2315 154.987 56.5473 154.664 57.8332ZM133.687 52.5223H148.282C147.802 48.0966 145.397 45.8837 141.068 45.8837C137.111 45.8837 134.651 48.0966 133.687 52.5223Z" fill="#A6CBDE"/>
<path d="M173.115 71.3653H170.617L157.188 40.5436H164.79L171.895 59.0085L179.523 40.5436H186.878L173.115 71.3653Z" fill="#A6CBDE"/>
<path d="M105.811 28.137V31.1705H104.372V22.917C105.331 22.876 105.892 22.8555 106.053 22.8555C107.331 22.8555 108.267 23.0577 108.86 23.4417C109.155 23.6474 109.392 23.9283 109.547 24.2564C109.703 24.5844 109.771 24.9482 109.746 25.3116C109.746 27.205 108.651 28.1507 106.462 28.1487C106.3 28.1634 106.082 28.1517 105.811 28.137ZM105.811 24.1978V26.8357C106.053 26.8621 106.246 26.8767 106.387 26.8767C106.889 26.9168 107.391 26.7992 107.826 26.5397C107.984 26.4103 108.107 26.2433 108.186 26.0536C108.265 25.864 108.296 25.6574 108.278 25.4523C108.278 24.5964 107.602 24.1685 106.249 24.1685C106.103 24.1636 105.956 24.1695 105.811 24.1861V24.1978Z" fill="#A6CBDE"/>
<path d="M121.476 31.1588L119.315 27.7531C119.099 27.7531 118.794 27.7355 118.402 27.715V31.1588H116.911V22.9141C116.992 22.9141 117.302 22.8994 117.844 22.8701C118.388 22.8438 118.822 22.8291 119.153 22.8291C121.211 22.8291 122.239 23.639 122.239 25.2588C122.243 25.7386 122.093 26.2067 121.813 26.5924C121.55 26.9802 121.176 27.2767 120.742 27.4424L123.134 31.1588H121.476ZM118.396 24.1861V26.4752C118.661 26.4986 118.866 26.5104 119.007 26.5104C119.461 26.5415 119.915 26.4516 120.325 26.2495C120.613 26.0766 120.742 25.7424 120.742 25.2442C120.757 25.0734 120.722 24.9019 120.643 24.7509C120.563 24.5998 120.441 24.4759 120.293 24.3942C119.848 24.2046 119.365 24.1214 118.883 24.151C118.72 24.1516 118.558 24.1634 118.396 24.1861Z" fill="#A6CBDE"/>
<path d="M129.321 26.9646C129.29 25.8896 129.624 24.8367 130.268 23.9839C130.565 23.5908 130.95 23.2754 131.391 23.0639C131.832 22.8524 132.316 22.7508 132.804 22.7675C133.967 22.7675 134.856 23.1349 135.472 23.8696C136.088 24.6042 136.396 25.6359 136.396 26.9646C136.396 28.2933 136.075 29.3484 135.432 30.13C134.789 30.9116 133.875 31.3024 132.691 31.3024C132.212 31.3278 131.734 31.2344 131.299 31.0302C130.863 30.826 130.482 30.5171 130.19 30.13C129.612 29.366 129.322 28.3109 129.321 26.9646ZM130.812 26.9646C130.769 27.7425 130.936 28.5175 131.292 29.2068C131.433 29.4557 131.637 29.6609 131.884 29.8003C132.13 29.9397 132.41 30.0081 132.691 29.9981C133.007 30.0164 133.323 29.9551 133.61 29.8196C133.897 29.6842 134.147 29.4787 134.338 29.2214C134.722 28.7056 134.914 27.9533 134.914 26.9646C134.914 25.0322 134.214 24.0659 132.815 24.0659C132.523 24.054 132.233 24.1203 131.974 24.2581C131.715 24.3959 131.496 24.6005 131.338 24.8514C130.962 25.4875 130.779 26.2227 130.812 26.9646Z" fill="#A6CBDE"/>
<path d="M142.818 29.2507H144.102C144.223 29.7314 144.617 29.9717 145.285 29.9717C145.477 29.9914 145.671 29.9582 145.846 29.8757C146.021 29.7933 146.171 29.6645 146.281 29.5028C146.504 29.0659 146.603 28.575 146.569 28.0842V22.9141H148.008V28.0403C148.008 29.1364 147.779 29.9493 147.32 30.4788C146.862 31.0083 146.129 31.2721 145.121 31.2702C144.534 31.2994 143.957 31.1097 143.498 30.7367C143.289 30.5509 143.121 30.3227 143.004 30.0668C142.887 29.8109 142.824 29.533 142.818 29.2507Z" fill="#A6CBDE"/>
<path d="M156.909 24.2125V26.1439H159.586V27.3867H156.909V29.8574H160.579V31.1588H155.473V22.9141H160.64V24.2125H156.909Z" fill="#A6CBDE"/>
<path d="M171.095 24.2125V31.1588H169.655V24.2125H167.082V22.9141H173.786V24.2125H171.095Z" fill="#A6CBDE"/>
<path d="M179.552 26.9646C179.518 25.891 179.848 24.8383 180.487 23.9839C180.785 23.5908 181.17 23.2754 181.611 23.0639C182.052 22.8524 182.536 22.7508 183.023 22.7675C184.186 22.7675 185.076 23.1349 185.692 23.8696C186.308 24.6042 186.62 25.6359 186.627 26.9646C186.627 28.2933 186.306 29.3484 185.663 30.13C185.02 30.9116 184.107 31.3024 182.923 31.3024C182.444 31.3278 181.966 31.2344 181.53 31.0302C181.094 30.826 180.714 30.5171 180.421 30.13C179.844 29.366 179.554 28.3109 179.552 26.9646ZM181.043 26.9646C181.001 27.7425 181.167 28.5175 181.524 29.2068C181.664 29.4557 181.869 29.6609 182.115 29.8003C182.362 29.9397 182.641 30.0081 182.923 29.9981C183.239 30.0164 183.554 29.9551 183.841 29.8196C184.129 29.6842 184.379 29.4787 184.569 29.2214C184.953 28.7056 185.145 27.9533 185.145 26.9646C185.145 25.0322 184.445 24.0659 183.046 24.0659C182.754 24.054 182.464 24.1203 182.205 24.2581C181.946 24.3959 181.727 24.6005 181.57 24.8514C181.193 25.4875 181.01 26.2227 181.043 26.9646Z" fill="#A6CBDE"/>
<path d="M200.154 31.1675V41.9123H215.051V48.8381H200.154V62.5959H220.592V69.8353H192.151V23.9281H220.937V31.1675H200.154Z" fill="#005C8D"/>
<path d="M228.007 69.8382V23.9281H236.01V62.5988H256.384V69.8382H228.007Z" fill="#005C8D"/>
<path d="M289.166 69.8383L285.873 60.5326H270.42L267.283 69.8383H258.385L276.362 23.3009H279.871L298.006 69.8383H289.166ZM278.115 37.3401L272.697 54.2955H283.541L278.115 37.3401Z" fill="#005C8D"/>
<path d="M32.5885 63.7097C28.9071 61.433 25.8131 58.2938 23.5641 54.5535C21.2181 57.9621 19.5571 61.4294 18.7338 64.7736C23.5929 65.4096 28.5412 65.0931 33.3398 64.1611C33.0865 64.0116 32.836 63.865 32.5885 63.7097Z" fill="#A6CBDE"/>
<path d="M0.575719 47.8768C0.41164 46.7836 0.259074 45.6903 0.141052 44.7524C0.259074 45.6933 0.414518 46.7865 0.575719 47.8768Z" fill="#A6CBDE"/>
<path d="M73.2082 40.5407C77.7535 35.0745 81.7058 28.2747 81.9073 20.9269C82.0743 14.7719 79.1899 9.30571 74.5525 5.4955C73.1593 4.30921 71.7004 3.20536 70.1828 2.18941C68.8275 1.3577 67.4153 0.626023 65.9571 0L65.8995 0.0586187C73.4846 6.3103 73.1708 15.5721 68.2024 24.4762C71.3051 28.867 73.0474 34.1022 73.2054 39.509H73.1852C73.2054 39.8607 73.2082 40.1948 73.2082 40.5407Z" fill="#A6CBDE"/>
<path d="M5.92702 59.2429C6.95441 60.2281 8.09491 61.0833 9.32375 61.7899C9.37556 58.2875 10.3485 54.5886 12.1505 50.8546C10.5598 50.3778 9.03379 49.7004 7.60811 48.8381C6.28396 52.3347 5.67082 55.8431 5.92702 59.2429Z" fill="#A6CBDE"/>
<path d="M0 40.2183C0.0200813 38.8261 0.120488 37.5277 0.286876 35.3412C0.0918004 37.5716 0 38.8818 0 40.2183Z" fill="#A6CBDE"/>
<path d="M1.51702 41.4639C1.0262 43.5351 0.795989 45.6614 0.831917 47.7918C0.845219 49.851 1.28464 51.8844 2.12152 53.7591C1.70989 50.8106 2.01502 47.6423 2.96207 44.3801C2.37101 43.4684 1.88608 42.4897 1.51702 41.4639Z" fill="#A6CBDE"/>
<path d="M6.47682 62.5959C6.98816 64.5802 7.80839 66.4682 8.90635 68.1882C8.77681 68.0006 8.6444 67.8013 8.5091 67.602C9.44182 69.0089 10.5805 70.2622 11.8857 71.3184C10.7522 69.4933 9.97703 67.4618 9.60297 65.3364C8.46701 64.5402 7.41888 63.6214 6.47682 62.5959Z" fill="#A6CBDE"/>
<path d="M87.3882 23.6291C85.8985 20.1065 84.0663 16.7446 81.9188 13.5936C87.2413 21.9292 83.8533 32.4102 78.8272 40.0101C76.8612 42.9468 74.6156 45.6789 72.123 48.1669C70.1831 54.7612 65.8676 60.3657 60.041 63.8572C54.2144 67.3488 47.3071 68.4697 40.7032 66.9952C32.7094 69.4484 24.8134 70.2662 18.1668 68.8798C18.0782 71.0169 18.4608 73.1471 19.2865 75.1139C45.7091 83.0568 96.7205 52.7011 87.3882 23.6291Z" fill="#A6CBDE"/>
<path d="M5.1095 61.9834L5.28797 62.3615C5.77445 63.2203 6.36456 64.205 6.97194 65.184C6.36744 64.2021 5.78309 63.2144 5.29373 62.3556C5.23328 62.2355 5.18146 62.1094 5.1095 61.9834Z" fill="#A6CBDE"/>
<path d="M3.88897 59.3456C3.66444 58.8356 3.44855 58.3344 3.24417 57.8801C3.45431 58.3256 3.66157 58.8356 3.88897 59.3456Z" fill="#A6CBDE"/>
<path d="M90.5431 37.9498C90.4423 36.1912 90.0134 33.3834 89.9242 32.9496C92.2098 56.6462 47.609 88.4644 21.2843 78.3791C22.7552 80.1816 24.7731 81.7731 27.3926 83.0685L27.1249 82.9454C29.3213 84.0064 31.8947 84.4783 34.2926 84.7509C36.8695 85.0317 39.4676 85.0474 42.0475 84.7978C47.8047 84.279 53.4813 82.6934 58.8211 80.4454C69.6359 75.9112 80.0247 68.3318 86.0698 57.9358C87.6809 55.2069 88.9123 52.2635 89.7285 49.1899C90.6755 45.535 90.6237 41.7014 90.5431 37.9498Z" fill="#A6CBDE"/>
<path d="M23.8059 81.3304C22.9913 80.8702 22.0557 80.2958 20.5474 79.3667C21.955 80.2782 22.7869 80.7882 23.8059 81.3304Z" fill="#A6CBDE"/>
<path d="M17.1017 76.8256C16.359 76.2071 15.507 75.4422 14.1339 74.2112C15.412 75.4158 16.1345 76.0665 17.1017 76.8256Z" fill="#A6CBDE"/>
<path d="M28.6736 60.7671L29.0018 61.0602C28.8895 60.9635 28.7859 60.8667 28.6736 60.7671Z" fill="#005C8D"/>
<path d="M33.2765 64.12C33.0577 63.994 32.8418 63.865 32.6259 63.7332C32.8389 63.865 33.0577 63.994 33.2765 64.12Z" fill="#005C8D"/>
<path d="M26.909 59.0203L27.1099 59.2372L26.909 59.0203Z" fill="#005C8D"/>
<path d="M27.9396 60.0841C28.0547 60.2013 28.1756 60.3127 28.2965 60.4241C28.1756 60.3068 28.0547 60.1955 27.9396 60.0841Z" fill="#005C8D"/>
<path d="M25.3316 57.1239C25.3574 57.1591 25.3832 57.1972 25.4119 57.2294C25.3689 57.1972 25.3316 57.1532 25.3316 57.1239Z" fill="#005C8D"/>
<path d="M24.2204 55.5881L24.2624 55.6496L24.2204 55.5881Z" fill="#005C8D"/>
<path d="M31.9207 63.2847C32.1423 63.4283 32.364 63.5778 32.5885 63.7096C32.364 63.5719 32.1423 63.4283 31.9207 63.2847Z" fill="#005C8D"/>
<path d="M31.2758 62.8451L31.7479 63.1675L31.2758 62.8451Z" fill="#005C8D"/>
<path d="M30.5821 62.3409C30.7404 62.4611 30.8988 62.5783 31.06 62.6927C30.8988 62.5783 30.7404 62.4611 30.5821 62.3409Z" fill="#005C8D"/>
<path d="M29.8538 61.7782C30.0438 61.9306 30.2367 62.0713 30.4296 62.2266C30.2252 62.0801 30.0438 61.9306 29.8538 61.7782Z" fill="#005C8D"/>
<path d="M29.2666 61.2887L29.612 61.5818L29.2666 61.2887Z" fill="#005C8D"/>
<path d="M25.7231 57.6427L25.8607 57.8127L25.7231 57.6427Z" fill="#005C8D"/>
<path d="M26.1951 58.2084L26.264 58.2856L26.1951 58.2084Z" fill="#005C8D"/>
<path d="M27.648 59.791L27.4099 59.5507L27.648 59.791Z" fill="#005C8D"/>
<path d="M47.5571 67.6137C47.1858 67.6283 46.8145 67.6371 46.4403 67.6371C44.5044 67.638 42.5741 67.4257 40.6831 67.004C42.5741 67.4257 44.5044 67.638 46.4403 67.6371C46.8116 67.64 47.1858 67.6283 47.5571 67.6137Z" fill="#005C8D"/>
<path d="M55.0559 66.1952C54.768 66.2948 54.4801 66.3925 54.1923 66.4883C54.4801 66.3925 54.768 66.2948 55.0559 66.1952Z" fill="#005C8D"/>
<path d="M55.9453 65.8668C55.7122 65.9577 55.4733 66.0456 55.2372 66.1306C55.4733 66.0456 55.7122 65.946 55.9453 65.8668Z" fill="#005C8D"/>
<path d="M57.8596 65.0344C57.6639 65.1282 57.471 65.2191 57.2839 65.307C57.4796 65.2191 57.6725 65.1282 57.8596 65.0344Z" fill="#005C8D"/>
<path d="M51.9412 67.0597C51.6102 67.13 51.2763 67.1945 50.9424 67.2531C51.2763 67.1945 51.6102 67.1183 51.9412 67.0597Z" fill="#005C8D"/>
<path d="M50.8301 67.2708C50.1335 67.388 49.4263 67.4779 48.7086 67.5404C49.4263 67.4798 50.1335 67.3899 50.8301 67.2708Z" fill="#005C8D"/>
<path d="M53.9735 66.5322C53.6713 66.6231 53.3661 66.7081 53.0581 66.7902C53.3661 66.7169 53.6713 66.6319 53.9735 66.5322Z" fill="#005C8D"/>
<path d="M52.966 66.8253C52.659 66.9035 52.3481 66.9767 52.0333 67.0451C52.3442 66.9767 52.6551 66.9035 52.966 66.8253Z" fill="#005C8D"/>
<path d="M56.9644 65.4478C56.7111 65.5591 56.4577 65.6646 56.2015 65.7672C56.4577 65.6529 56.7082 65.5591 56.9644 65.4478Z" fill="#005C8D"/>
<path d="M48.6827 67.5433C48.3171 67.5726 47.9515 67.5961 47.5831 67.6137C47.9515 67.5961 48.3171 67.5726 48.6827 67.5433Z" fill="#005C8D"/>
<path d="M62.9847 61.8046L62.9489 61.8349L62.9847 61.8046Z" fill="#005C8D"/>
<path d="M59.7796 64.0175C59.5877 64.1347 59.3862 64.249 59.1751 64.3604C59.3766 64.2451 59.5781 64.1308 59.7796 64.0175Z" fill="#005C8D"/>
<path d="M60.4925 63.5807C60.4007 63.6393 60.3089 63.6979 60.2057 63.7536L60.4925 63.5807Z" fill="#005C8D"/>
<path d="M58.7865 64.5685L58.3202 64.8088L58.7865 64.5685Z" fill="#005C8D"/>
<path d="M61.4515 62.9476L61.2765 63.0678L61.4515 62.9476Z" fill="#005C8D"/>
<path d="M27.6517 39.5119H34.1516C35.0517 39.5153 35.943 39.3318 36.7711 38.9726C41.3768 36.9708 44.526 33.2016 45.9048 28.0696C45.9363 27.9501 46.0061 27.8449 46.1031 27.7705C46.2002 27.6961 46.3188 27.657 46.4403 27.6592C46.5606 27.6571 46.6781 27.6961 46.7741 27.7699C46.8701 27.8438 46.939 27.9482 46.9699 28.0666C48.2279 32.7561 50.9999 36.3407 54.9868 38.4363L55.2746 38.5945L54.9522 38.7059C54.4464 38.8869 53.9539 39.1043 53.4784 39.3566L53.4064 39.3947L53.3402 39.3537C50.3505 37.5682 47.9834 34.8763 46.5698 31.6541L46.4374 31.361L46.3078 31.6541C44.6338 35.4819 41.6272 38.5431 37.8678 40.2476C37.7671 40.2916 37.1712 40.526 36.4573 40.8045C35.7222 41.0908 34.9415 41.2369 34.1544 41.2353H29.1457C29.8362 42.4105 30.1259 43.785 29.9698 45.1452C29.8136 46.5054 29.2203 47.7748 28.2821 48.7561C27.6143 49.4634 26.9762 50.1776 26.3679 50.8986C26.4974 51.1507 26.6327 51.4027 26.768 51.6489C29.1793 56.0109 32.9238 59.4517 37.432 61.4479C41.9403 63.4441 46.9655 63.8865 51.7433 62.7077C56.5211 61.5289 60.7901 58.7936 63.9008 54.9176C67.0116 51.0417 68.7939 46.2373 68.9767 41.2353H57.8049C57.603 41.2348 57.4024 41.2695 57.2119 41.3379C52.0046 43.202 48.461 47.1236 46.9699 52.6777C46.9391 52.7972 46.87 52.9027 46.7735 52.9776C46.677 53.0525 46.5587 53.0924 46.4374 53.0909C46.3166 53.0934 46.1985 53.0542 46.1023 52.9797C46.0062 52.9052 45.9376 52.7998 45.9077 52.6806C45.3391 50.5124 44.3614 48.4776 43.0291 46.6898C41.6625 44.8738 39.9187 43.3876 37.9225 42.3373L37.6347 42.1849L37.9225 42.0706C38.415 41.874 38.8956 41.648 39.3618 41.3936L39.4309 41.3555L39.5 41.3965C41.4513 42.5603 43.1472 44.1195 44.4828 45.9776C45.186 46.9557 45.7888 48.0045 46.2819 49.1078L46.4115 49.4009L46.5439 49.1078C48.2168 45.2802 51.2224 42.2189 54.981 40.5143L55.0789 40.4703L55.1537 40.4293C55.6057 40.2183 57.1687 39.5266 58.2712 39.5266H68.9623C68.821 35.6402 67.7129 31.8539 65.7419 28.5226C63.7709 25.1913 61.0016 22.424 57.6934 20.48C54.3852 18.5361 50.6464 17.479 46.8274 17.408C43.0085 17.337 39.2343 18.2543 35.8586 20.074C35.6169 20.3027 35.3481 20.4996 35.0583 20.6602C34.569 20.9269 34.0825 21.2024 33.5989 21.4808C30.886 23.389 28.6165 25.879 26.95 28.7759C25.2835 31.6728 24.2605 34.9061 23.9527 38.2487C25.2886 38.2444 26.5886 38.6883 27.6517 39.5119Z" fill="#005C8D"/>
<path d="M21.6642 29.9805C20.4389 33.0088 19.762 36.238 19.6665 39.5118H20.2422C20.912 38.9868 21.683 38.6113 22.5048 38.4098C22.8762 33.6796 24.5982 29.1633 27.4588 25.417C25.4266 26.8619 23.4864 28.389 21.6642 29.9805Z" fill="#005C8D"/>
<path d="M37.0877 17.8552C40.6722 16.3162 44.5702 15.6866 48.4466 16.0206C52.3229 16.3545 56.0616 17.642 59.3412 19.7724C62.6208 21.9027 65.3432 24.8122 67.2743 28.2506C69.2054 31.689 70.2875 35.5535 70.4275 39.5119H73.2082C73.0722 35.1416 71.9066 30.8687 69.8096 27.053C67.7127 23.2373 64.7457 19.9907 61.1588 17.5865C57.5719 15.1824 53.47 13.6912 49.1987 13.2386C44.9274 12.786 40.6119 13.3852 36.6156 14.9858C36.6559 15.062 36.702 15.1324 36.7394 15.2115C37.1414 16.0287 37.264 16.9591 37.0877 17.8552Z" fill="#005C8D"/>
<path d="M70.4275 41.2207C70.2054 47.4762 67.6374 53.4072 63.2516 57.7937C58.8658 62.1802 52.9958 64.6886 46.849 64.803C46.7108 64.803 46.5755 64.803 46.4374 64.803C43.451 64.8073 40.4904 64.2406 37.7095 63.1323C32.4628 61.0293 28.1042 57.1233 25.3891 52.0915C24.7424 52.9102 24.1341 53.7319 23.5641 54.5564C25.9651 58.5584 29.3351 61.8655 33.3513 64.1611C37.3653 66.4573 41.8931 67.6605 46.4972 67.6547C51.1013 67.6489 55.6261 66.4342 59.6345 64.1279C63.6428 61.8217 66.9993 58.5018 69.3796 54.4891C71.7599 50.4763 73.0835 45.9064 73.2226 41.2207H70.4419H70.4275Z" fill="#005C8D"/>
<path d="M23.3597 13.7197C24.1237 13.1961 24.6725 12.4054 24.9022 11.4973C25.132 10.5893 25.0266 9.627 24.6061 8.79277C24.1786 7.96818 23.4717 7.32953 22.6168 6.99534C21.7618 6.66116 20.8169 6.65414 19.9572 6.97559C18.8547 7.40057 17.8933 8.32968 16.9836 9.05655C15.9416 9.87721 14.9216 10.7282 13.9237 11.6094C10.721 14.3875 7.88762 17.5788 5.49518 21.1027C2.49616 25.5484 0.683819 30.7116 0.235999 36.0856C0.0419039 38.2289 -0.0244252 40.3822 0.0373766 42.5337C0.181501 45.3705 0.541444 48.1917 1.11397 50.9718C-0.759992 39.2071 6.60056 28.3186 14.6635 20.7246C17.3899 18.176 20.2964 15.8347 23.3597 13.7197Z" fill="#3E94C2"/>
<path d="M36.7423 15.2086C36.2646 14.2595 35.4473 13.5333 34.459 13.1799C33.4708 12.8264 32.387 12.8728 31.4313 13.3094C29.0737 14.4085 26.8083 15.9677 24.6609 17.4478C20.5364 20.2649 16.7316 23.5393 13.3163 27.2108C7.33464 33.6881 1.707 42.4018 1.9488 51.6518C2.03228 54.785 3.04267 57.4902 4.31788 60.2981C5.61736 63.0599 7.15276 65.7001 8.90635 68.1881C3.9926 60.4358 5.76869 51.1067 10.1355 43.5683C14.5023 36.0299 21.1144 29.7929 28.2044 24.8924C30.2712 23.4641 32.4004 22.1383 34.592 20.9151C36.6415 19.7691 37.8908 17.5446 36.7423 15.2086Z" fill="#3E94C2"/>
<path d="M28.616 40.4469C27.9173 39.604 27.0115 38.9649 25.991 38.5947C24.9705 38.2245 23.8718 38.1365 22.807 38.3396C20.4869 38.788 19.0649 40.6257 17.6256 42.3784C14.747 45.9336 12.2397 49.9138 10.717 54.2838C9.27768 58.4663 8.77105 63.0766 10.0837 67.3587C10.7464 69.4895 11.8101 71.4686 13.2156 73.1854C14.3267 74.5571 15.7516 75.7002 17.1017 76.8256C20.199 79.4137 23.7224 81.4301 27.3811 83.0949C24.5831 81.6969 22.001 79.7243 20.2912 77.0337C18.4546 74.1468 17.8731 70.6795 18.2761 67.2943C19.085 60.4095 23.259 54.2223 27.8043 49.269C28.9557 48.0175 29.8193 46.7367 29.992 44.9811C30.1396 43.344 29.645 41.7139 28.616 40.4469Z" fill="#3E94C2"/>
</g>
<defs>
<clipPath id="clip0_37_672">
<rect width="298" height="85" fill="white"/>
</clipPath>
</defs>
</svg>
