<svg width="210" height="101" viewBox="0 0 210 101" fill="none" xmlns="http://www.w3.org/2000/svg">
<g clip-path="url(#clip0_37_886)">
<path d="M46.5032 90.9172C46.4377 90.1083 46.3179 89.3047 46.1447 88.512C45.0486 83.3213 41.9315 78.286 37.0339 75.8318C34.4139 74.5229 31.138 74.2897 28.6036 75.7745C27.3812 76.4944 26.3911 77.5702 25.295 78.4905C24.199 79.4109 22.9073 80.2249 21.4771 80.233C20.5961 80.1935 19.7288 79.9997 18.9142 79.6604C16.4287 78.7932 13.0101 78.151 10.435 77.6438C7.99026 77.153 5.43142 76.8544 2.97037 77.5129C2.07946 77.6884 1.27872 78.1736 0.708976 78.8832C0.354833 79.463 0.143882 80.1193 0.093714 80.7975C-0.101866 82.2251 -0.0651948 83.8531 0.908631 84.8879C1.55649 85.5833 2.49772 85.9064 3.40635 86.1846C7.19979 87.3667 11.3477 88.7329 15.3164 89.0969C18.9835 89.4405 21.6075 89.915 24.8631 91.9398C29.4918 94.8235 33.2894 97.4004 39.0101 97.5641C41.3937 97.6336 44.0544 97.155 45.4805 95.2448C46.3973 94.0177 46.5969 92.4633 46.491 90.9008" fill="#F59D25"/>
<path d="M26.3789 47.9353C26.3654 47.7819 26.3283 47.6315 26.2689 47.4895C25.0465 44.8062 22.5691 42.5156 21.2123 39.8036C19.9369 37.2553 18.9794 34.5516 17.7285 31.991C15.7768 27.9947 11.5352 22.9348 8.91112 19.3517C8.46364 18.6712 7.90102 18.0745 7.24869 17.5887C5.01175 16.0998 1.7643 17.9077 0.924938 20.452C0.0855739 22.9962 1.01458 25.8104 2.294 28.1705C4.39648 32.036 9.03743 36.7604 12.3012 39.7055C13.8699 41.1207 15.5242 42.4992 16.6528 44.2908C18.0097 46.4464 18.7309 49.3056 20.4952 51.1872C22.6832 53.5146 22.4428 49.551 24.7572 49.1952C25.1416 49.1959 25.5237 49.1366 25.8899 49.0193C26.0694 48.9077 26.2117 48.7451 26.2988 48.552C26.3858 48.359 26.4137 48.1443 26.3789 47.9353Z" fill="#5EC4F1"/>
<path d="M38.517 42.3969C38.6554 42.5549 38.8023 42.7051 38.9571 42.8469C40.2039 43.9554 42.9543 43.0023 43.8466 41.7139C44.5678 40.6953 44.4578 39.3251 44.3152 38.0816C43.7855 33.3749 43.2544 28.6655 42.722 23.9534C41.9071 16.5907 42.5468 8.9498 38.3174 2.41744C36.6713 -0.134966 32.9593 0.0531918 30.8772 2.10248C28.7951 4.15177 29.1211 7.44044 29.61 10.2833C31.2449 19.4207 33.4219 28.452 36.1293 37.3289C36.6346 39.0183 37.2824 41.0348 38.5007 42.4133" fill="#EF869D"/>
<path d="M54.8235 41.4889C55.6385 42.4951 56.9953 43.3173 58.1199 43.3336C60.1572 43.3664 60.9721 41.1207 61.3306 39.4928C62.8328 32.6754 64.0701 25.809 65.0426 18.8935C65.4949 15.6908 65.8942 12.4512 65.6619 9.22384C65.5723 7.99672 65.3686 6.69598 64.6636 5.67338C63.7713 4.38082 62.2841 3.80816 60.7887 3.58319C59.4767 3.39094 58.1158 3.25596 56.9016 3.88179C54.8643 4.9412 55.394 9.1993 55.557 10.9663C55.8137 13.8664 55.6099 16.7256 55.7525 19.6339C56.0092 24.9418 55.5653 30.2604 54.4324 35.4514C54.086 37.0181 53.6745 38.6583 54.1064 40.2045C54.2538 40.6781 54.498 41.1155 54.8235 41.4889Z" fill="#DEDC06"/>
<path d="M69.7895 45.6897C69.7789 45.7105 69.7707 45.7325 69.765 45.7552C69.5776 46.2624 69.3861 46.8596 69.6632 47.33C69.9158 47.6582 70.2722 47.8904 70.6737 47.9885C71.7045 48.3607 72.8739 48.6921 73.8559 48.2094C75.6121 47.3586 76.3944 43.8613 76.9241 42.1761C77.777 39.4491 78.5512 36.7099 79.2466 33.9585C80.1715 30.2771 81.5161 26.9557 81.9032 23.1598C82.0132 22.4318 82.0132 21.6913 81.9032 20.9633C81.4387 18.6727 77.1889 15.4699 75.1516 17.9364C74.6749 18.5213 74.5934 19.3271 74.5323 20.0839C73.8111 28.7269 72.7802 37.5048 69.7936 45.6897" fill="#C0348B"/>
<path d="M69.7569 50.3568C68.6996 50.0042 67.6062 49.7723 66.4972 49.6655C65.6171 49.6042 64.7126 49.6655 63.8773 49.3915C63.3417 49.1748 62.8251 48.9135 62.333 48.6102C60.259 47.4935 57.8836 47.1909 55.667 46.4709C54.742 46.1683 53.54 45.8001 52.7659 45.2029C51.8817 44.528 51.4131 43.2763 50.6552 42.4501C50.6041 42.3744 50.5379 42.3102 50.4607 42.2616C50.3836 42.213 50.2972 42.1811 50.207 42.1678C49.9381 42.1678 49.7548 42.4296 49.6162 42.6628C48.5354 44.4654 46.831 45.8051 44.8286 46.4259C44.2844 46.5572 43.7516 46.7323 43.2354 46.9495C42.1597 47.4772 41.846 48.2094 40.4932 48.0457C40.1802 48.0241 39.8811 47.9078 39.6352 47.7121C39.3894 47.5164 39.2083 47.2506 39.116 46.9495C39.0345 46.5405 39.1608 46.1314 39.0793 45.751C39.0067 45.4992 38.8689 45.2711 38.6799 45.0901C38.491 44.909 38.2577 44.7814 38.0037 44.7203C37.492 44.6098 36.9629 44.6098 36.4512 44.7203C34.9871 44.9533 33.5658 45.4041 32.234 46.0578C31.9798 46.1615 31.7536 46.3241 31.574 46.5323C31.2154 47.0027 31.3743 47.6653 31.5088 48.2421C31.684 48.8351 31.723 49.4602 31.6229 50.0705C31.5694 50.3739 31.4362 50.6574 31.2371 50.8918C31.038 51.1263 30.7801 51.3031 30.4901 51.404C30.01 51.4772 29.5199 51.448 29.0518 51.3181C26.1262 50.8436 22.8992 52.8397 23.9952 56.1161C24.3592 57.1976 24.5557 58.3288 24.5779 59.4702C24.622 59.954 24.5332 60.4406 24.3212 60.8773C23.8363 61.7158 22.6914 61.8876 21.9905 62.5544C21.6946 62.8676 21.4759 63.2461 21.352 63.6596C21.2282 64.073 21.2027 64.5098 21.2775 64.935C21.4372 65.7857 21.7716 66.5936 22.2595 67.3074C22.7075 68.0871 23.2913 68.7798 23.983 69.3526C24.8587 69.9999 25.9212 70.3418 27.0085 70.3263C28.0958 70.3108 29.1483 69.9387 30.0052 69.2667C30.4942 68.8577 30.9954 68.3341 31.6351 68.3873C32.1187 68.4882 32.5466 68.7687 32.833 69.1726C33.5216 69.9253 34.0554 70.7106 34.9966 71.0665C35.9699 71.4587 36.9862 71.7333 38.024 71.8846C38.7534 71.9623 39.5235 71.8641 40.1917 72.1668C41.3896 72.7067 41.7645 74.2733 42.8361 75.0301C43.2843 75.3532 43.8303 75.5087 44.2948 75.8032C45.888 76.793 46.1976 78.9487 46.2954 80.8262C46.3443 81.7424 46.4462 82.7896 47.1837 83.3295C47.7949 83.7794 48.6261 83.7058 49.384 83.7794C50.3312 83.871 51.2354 84.2217 51.9979 84.7932C52.7605 85.3647 53.3523 86.1353 53.709 87.021C54.0657 87.9067 54.1736 88.8736 54.021 89.8166C53.8683 90.7596 53.461 91.6425 52.8433 92.3693C52.4197 92.7909 52.0326 93.248 51.6861 93.7354C51.5176 93.9835 51.4251 94.2756 51.4201 94.5758C51.415 94.876 51.4976 95.1711 51.6576 95.4248C52.118 96.0056 52.9941 95.932 53.6949 96.1242C54.0863 96.2297 54.4479 96.425 54.7512 96.6947C55.0546 96.9645 55.2914 97.3013 55.4429 97.6786C55.6751 98.2472 55.7485 98.9711 56.2822 99.2738C57.3416 99.2411 58.0547 98.2062 58.5844 97.2818C59.493 95.707 60.8906 93.9563 61.4366 92.2261C61.844 90.9172 61.8848 89.416 62.276 88.0621C62.464 87.283 62.7502 86.5311 63.1275 85.8246C63.8854 84.5362 65.1934 83.6731 66.5339 83.035C67.8744 82.3969 69.3005 81.9183 70.5759 81.1534C71.1164 80.8628 71.5856 80.4548 71.949 79.959C72.2288 79.4801 72.431 78.9596 72.548 78.4169C72.8088 77.4557 73.0655 76.4985 73.3222 75.5536C73.6172 74.5775 73.8325 73.5789 73.9659 72.5677C74.1493 70.8497 73.8885 69.0908 74.2797 67.4138C74.7564 65.3686 76.1458 63.6956 77.2378 61.904C78.2239 60.2924 78.9614 58.419 78.558 56.5047C78.1546 54.5904 77.5231 52.5738 75.6121 51.9316C74.1778 51.4571 72.6824 51.2853 71.2197 50.8436C70.7185 50.6963 70.2214 50.5327 69.7243 50.3814" fill="#338835"/>
<path d="M100.263 52.6147C98.2555 52.6211 96.2628 52.2664 94.3796 51.5676C92.4557 50.8348 90.6885 49.7409 89.1723 48.3444L91.9837 44.9902C93.1598 46.0313 94.4784 46.8977 95.8994 47.5631C97.3127 48.1791 98.8409 48.4845 100.381 48.4589C101.594 48.522 102.795 48.2015 103.816 47.5426C104.218 47.2751 104.546 46.9097 104.769 46.4805C104.992 46.0513 105.103 45.5724 105.092 45.0884V45.0107C105.099 44.5734 105.012 44.1397 104.839 43.7386C104.631 43.3171 104.318 42.9565 103.93 42.6914C103.368 42.2993 102.751 41.9907 102.101 41.7752C101.11 41.4394 100.099 41.1662 99.0735 40.9571C97.7886 40.6657 96.5241 40.2899 95.2882 39.8322C94.2821 39.4713 93.3389 38.9536 92.4931 38.2983C91.7556 37.7167 91.1674 36.9663 90.7777 36.11C90.3612 35.121 90.1598 34.0542 90.1868 32.9808V32.9031C90.1733 31.8417 90.3943 30.7904 90.834 29.825C91.2736 28.8596 91.9209 28.004 92.7294 27.3197C93.5739 26.6188 94.5412 26.082 95.5816 25.7367C96.7553 25.3488 97.9845 25.1567 99.2202 25.1682C101.01 25.1401 102.791 25.4295 104.48 26.0231C106.067 26.6131 107.549 27.4555 108.869 28.5182L106.359 32.0646C105.248 31.232 104.036 30.5448 102.753 30.0194C101.606 29.5583 100.382 29.3196 99.1469 29.3158C97.7887 29.3158 96.7252 29.6199 95.9565 30.228C95.6036 30.4857 95.3163 30.8234 95.1181 31.2136C94.9198 31.6039 94.8162 32.0356 94.8156 32.4736V32.5554C94.808 33.0204 94.8982 33.4818 95.0804 33.9094C95.3005 34.3477 95.6377 34.7159 96.0543 34.9729C96.6597 35.3539 97.3116 35.655 97.9938 35.8687C98.8087 36.155 99.8681 36.4454 101.135 36.7481C102.398 37.0583 103.638 37.4532 104.847 37.9302C105.839 38.2996 106.76 38.8379 107.569 39.5214C108.264 40.1156 108.82 40.8557 109.199 41.6893C109.581 42.5943 109.77 43.5697 109.753 44.5526V44.6262C109.773 45.7815 109.533 46.9265 109.052 47.9762C108.604 48.9525 107.941 49.8139 107.113 50.4959C106.23 51.2117 105.215 51.7442 104.126 52.0625C102.882 52.4275 101.592 52.6066 100.296 52.5943" fill="#868686"/>
<path d="M118.603 25.5486V52.2343H113.97V25.5486H118.603ZM118.411 17.0856L122.588 18.9508L117.955 23.3357H114.382L118.411 17.0856Z" fill="#848585"/>
<path d="M124.222 25.5486H143.967V29.7781H128.855V37.1367H142.26V41.3702H128.855V52.2343H124.222V25.5486Z" fill="#848585"/>
<path d="M185.015 25.5445H180.382V52.2302H185.015V25.5445Z" fill="#848585"/>
<path d="M199.977 52.6147C197.969 52.6214 195.976 52.2668 194.093 51.5676C192.168 50.8358 190.401 49.7418 188.885 48.3443L191.697 44.9902C192.872 46.0311 194.189 46.8975 195.609 47.5631C197.022 48.1784 198.55 48.4838 200.091 48.4589C201.303 48.522 202.504 48.2015 203.525 47.5426C203.927 47.2751 204.255 46.9097 204.478 46.4805C204.701 46.0513 204.812 45.5723 204.801 45.0884V45.0107C204.802 44.5828 204.715 44.1592 204.544 43.7672C204.335 43.3447 204.021 42.9839 203.631 42.7201C203.07 42.3286 202.455 42.0201 201.806 41.8038C200.815 41.4691 199.803 41.1959 198.779 40.9857C197.492 40.6943 196.226 40.3185 194.989 39.8609C193.99 39.499 193.053 38.9844 192.21 38.3352C191.475 37.7521 190.889 37.0021 190.499 36.1468C190.083 35.1578 189.881 34.091 189.908 33.0176V32.9399C189.895 31.8785 190.116 30.8272 190.555 29.8618C190.995 28.8964 191.642 28.0408 192.451 27.3565C193.296 26.656 194.263 26.1192 195.303 25.7736C196.478 25.3856 197.709 25.1935 198.946 25.205C200.736 25.1769 202.516 25.4663 204.206 26.0599C205.791 26.6499 207.272 27.4924 208.59 28.555L206.084 32.1014C204.973 31.2679 203.76 30.5806 202.474 30.0562C201.329 29.5945 200.107 29.3557 198.872 29.3526C197.514 29.3526 196.451 29.6567 195.682 30.2648C195.329 30.5225 195.042 30.8602 194.843 31.2504C194.645 31.6407 194.542 32.0724 194.541 32.5104V32.5922C194.533 33.0572 194.624 33.5186 194.806 33.9462C195.023 34.3862 195.361 34.7551 195.78 35.0097C196.385 35.3915 197.037 35.6927 197.719 35.9055C198.534 36.1918 199.589 36.4822 200.861 36.7849C202.123 37.0951 203.363 37.49 204.573 37.967C205.55 38.3386 206.458 38.8739 207.258 39.55C207.951 40.1453 208.507 40.8851 208.888 41.7179C209.27 42.6229 209.459 43.5984 209.442 44.5812V44.6548C209.462 45.8101 209.222 46.9551 208.741 48.0048C208.291 48.9803 207.628 49.8415 206.801 50.5245C205.92 51.2392 204.906 51.7716 203.819 52.0911C202.574 52.4558 201.282 52.6349 199.985 52.6229" fill="#848585"/>
<path d="M162.763 48.0007V25.5486H158.135V48.0457L165.783 50.3118C165.64 50.9826 165.497 51.6126 165.338 52.2139H176.747V48.0007H162.763Z" fill="#848585"/>
<path d="M149.285 49.8046C150.25 50.1687 151.155 50.4836 151.982 50.77L152.512 50.9377V25.5445H147.879V49.3342C148.36 49.4815 148.828 49.641 149.285 49.8046Z" fill="#848585"/>
<path d="M208.26 69.913C207.14 67.2684 205.51 64.872 203.464 62.8612C201.371 60.8195 198.902 59.2053 196.195 58.1081C190.304 55.7751 183.751 55.7751 177.86 58.1081C175.131 59.2156 172.641 60.8405 170.525 62.8939C166.551 66.7695 164.2 72.0218 163.953 77.5784L158.118 63.7202C157.227 64.0387 156.286 64.1952 155.339 64.1824C154.248 64.181 153.162 64.0352 152.108 63.7488C151.041 63.4761 150.021 63.1571 149.048 62.7916C148.079 62.4276 147.174 62.1086 146.347 61.8222C145.674 61.5738 144.965 61.4357 144.248 61.4132C143.249 61.4132 142.514 61.6859 142.044 62.2313C141.431 62.9687 140.935 63.7965 140.573 64.6855L130.028 89.7187V57.2205H118.383V79.9059L100.756 57.2205H89.6735V100.141H101.343V76.5967L119.646 100.141H138.128L141.184 92.4797H157.678L160.791 100.141H173.496L171.507 95.4207C173.375 97.0295 175.49 98.3238 177.77 99.2534C183.661 101.584 190.214 101.584 196.106 99.2534C198.832 98.1443 201.322 96.5212 203.44 94.4718C205.541 92.4208 207.208 89.9653 208.342 87.2524C209.475 84.5394 210.052 81.6247 210.037 78.6828V78.556C210.044 75.5829 209.44 72.6402 208.26 69.913ZM144.648 83.2804L149.472 71.0788L154.235 83.2804H144.648ZM197.907 78.8055C197.91 80.3147 197.634 81.8113 197.092 83.2191C196.591 84.5617 195.843 85.798 194.887 86.8636C193.93 87.9231 192.763 88.7702 191.461 89.3506C190.049 89.9758 188.521 90.2897 186.979 90.2709C185.433 90.292 183.901 89.9664 182.497 89.3179C181.184 88.7133 180.006 87.8494 179.033 86.7777C178.069 85.6987 177.311 84.4508 176.796 83.0964C176.267 81.6845 175.999 80.1873 176.006 78.6787V78.5519C175.996 77.0466 176.256 75.5518 176.772 74.1384C177.251 72.7883 177.997 71.5491 178.965 70.4948C179.932 69.4406 181.102 68.5931 182.403 68.0028C183.799 67.3752 185.315 67.0611 186.844 67.0825C188.39 67.0593 189.922 67.385 191.326 68.0355C192.647 68.6448 193.835 69.5094 194.822 70.5798C195.805 71.6497 196.572 72.8996 197.084 74.2611C197.626 75.6687 197.902 77.1654 197.898 78.6747L197.907 78.8055Z" fill="#DB0B2B"/>
<path d="M142.064 60.2065C142.537 59.6584 143.287 59.3884 144.269 59.3884C144.985 59.413 145.694 59.551 146.367 59.7975C147.182 60.0838 148.099 60.407 149.073 60.7628C150.047 61.1187 151.061 61.4418 152.129 61.7241C153.183 62.004 154.269 62.1415 155.36 62.1331C157.805 62.1331 159.728 61.2537 161.064 59.4948C162.401 57.7359 163.432 55.0649 164.194 51.4981L157.723 49.7147C157.372 50.5992 156.891 51.4264 156.297 52.1689C155.824 52.7129 155.075 52.987 154.093 52.987C153.375 52.9558 152.666 52.8095 151.994 52.5534C151.179 52.2712 150.267 51.948 149.293 51.5962C148.28 51.221 147.249 50.8974 146.204 50.6268C145.158 50.3541 144.082 50.2166 143.002 50.2178C140.538 50.2178 138.636 51.0972 137.297 52.8561C135.958 54.615 134.916 57.2805 134.172 60.8528L140.638 62.6403C140.993 61.7637 141.474 60.9438 142.064 60.2065Z" fill="#DB0B2B"/>
<path d="M99.9047 6.7369H98.3523V6.13561H100.003L100.528 3.10463H98.8698V2.50334H100.642L101.05 0.155457H101.665L101.257 2.50334H103.902L104.309 0.155457H104.921L104.513 2.50334H106.049V3.10463H104.419L103.877 6.13561H105.532V6.7369H103.78L103.372 9.13796H102.757L103.164 6.7369H100.52L100.113 9.13796H99.5054L99.9047 6.7369ZM103.266 6.13561L103.792 3.10463H101.143L100.642 6.13561H103.266Z" fill="#F49C25"/>
<path d="M110.491 0.756745H107.369V0.155457H114.272V0.756745H111.151V9.13387H110.491V0.756745Z" fill="#DB0B2B"/>
<path d="M117.377 9.29339C116.957 9.29308 116.541 9.20824 116.154 9.04388C115.769 8.88747 115.421 8.65202 115.131 8.3526C114.828 8.04509 114.59 7.67917 114.431 7.27683C114.255 6.83171 114.168 6.35653 114.174 5.87791V5.85337C114.17 5.39941 114.251 4.9487 114.41 4.52399C114.559 4.12533 114.78 3.7578 115.062 3.44004C115.337 3.13286 115.669 2.88273 116.04 2.70377C116.423 2.52544 116.84 2.43463 117.262 2.43789C117.684 2.43522 118.101 2.52454 118.485 2.69967C118.845 2.8718 119.164 3.11855 119.422 3.42367C119.696 3.73951 119.907 4.10454 120.045 4.49945C120.189 4.93621 120.26 5.39351 120.257 5.85337V5.98835C120.26 6.02785 120.26 6.06748 120.257 6.10697H114.834C114.852 6.48378 114.944 6.85338 115.103 7.19502C115.245 7.50039 115.441 7.77751 115.682 8.0131C115.908 8.23089 116.175 8.40183 116.468 8.51622C116.764 8.63059 117.079 8.68884 117.397 8.68801C117.849 8.70244 118.298 8.6011 118.701 8.3935C119.051 8.20146 119.369 7.95427 119.642 7.66132L120.078 8.04582C119.749 8.40231 119.365 8.70339 118.941 8.93753C118.458 9.18732 117.92 9.30977 117.377 9.29339ZM119.589 5.55886C119.566 5.23123 119.5 4.90805 119.393 4.59762C119.293 4.29973 119.14 4.02255 118.941 3.77954C118.747 3.54393 118.505 3.35168 118.232 3.21506C117.933 3.08154 117.61 3.01254 117.283 3.01254C116.956 3.01254 116.632 3.08154 116.333 3.21506C116.057 3.34225 115.807 3.52294 115.6 3.74682C115.382 3.98856 115.206 4.26503 115.078 4.56489C114.942 4.8858 114.859 5.2272 114.834 5.57522L119.589 5.55886Z" fill="#DB0B2B"/>
<path d="M124.193 9.26882C123.704 9.26689 123.22 9.1754 122.763 8.99885C122.314 8.83548 121.895 8.60069 121.52 8.30349L121.891 7.80037C122.233 8.06939 122.614 8.28457 123.02 8.43847C123.41 8.58798 123.824 8.66424 124.242 8.66344C124.641 8.67649 125.033 8.55874 125.359 8.32803C125.503 8.22743 125.621 8.09193 125.7 7.93399C125.779 7.77604 125.817 7.6007 125.811 7.42405V7.39542C125.814 7.22172 125.765 7.05105 125.672 6.90457C125.567 6.76386 125.437 6.64332 125.289 6.54871C125.117 6.44162 124.932 6.35644 124.739 6.2951C124.532 6.22557 124.332 6.15603 124.083 6.09058L123.289 5.84516C123.033 5.76806 122.789 5.65661 122.563 5.51384C122.357 5.39168 122.181 5.22549 122.046 5.02708C121.91 4.8094 121.842 4.55584 121.85 4.29899V4.27036C121.848 4.02 121.902 3.77231 122.009 3.54636C122.116 3.32896 122.266 3.13555 122.449 2.97779C122.649 2.8087 122.878 2.67956 123.126 2.59739C123.405 2.50532 123.696 2.45703 123.99 2.45422C124.819 2.47142 125.625 2.7285 126.312 3.19458L125.982 3.72634C125.683 3.52487 125.358 3.36396 125.016 3.24776C124.682 3.13055 124.331 3.06974 123.977 3.06778C123.589 3.04624 123.206 3.16204 122.894 3.39501C122.766 3.4889 122.662 3.61213 122.591 3.75444C122.52 3.89675 122.484 4.054 122.486 4.21309V4.23764C122.483 4.40818 122.539 4.57444 122.645 4.70803C122.756 4.84782 122.895 4.96334 123.052 5.04753C123.238 5.1495 123.433 5.23306 123.635 5.29705L124.311 5.50975C124.576 5.58747 124.837 5.66927 125.09 5.75926C125.336 5.84045 125.569 5.95613 125.782 6.10285C125.978 6.23685 126.144 6.40942 126.271 6.61006C126.403 6.82922 126.468 7.0823 126.459 7.33815V7.3627C126.462 7.63419 126.404 7.90289 126.288 8.14805C126.171 8.38132 126.007 8.58753 125.807 8.75343C125.593 8.92366 125.35 9.05389 125.09 9.13793C124.805 9.22799 124.508 9.27351 124.21 9.27291" fill="#DB0B2B"/>
<path d="M130.611 9.25247C130.368 9.25493 130.126 9.22046 129.894 9.15021C129.678 9.08496 129.479 8.97329 129.311 8.82298C129.137 8.66587 128.998 8.47348 128.904 8.2585C128.805 7.99736 128.758 7.71954 128.765 7.44042V3.17005H127.82V2.59331H128.765V0.499023H129.392V2.59331H131.678V3.17005H129.409V7.38316C129.389 7.56481 129.412 7.74859 129.476 7.91978C129.539 8.09096 129.642 8.2448 129.776 8.36894C130.048 8.56528 130.378 8.66332 130.713 8.64709C130.868 8.65006 131.022 8.63357 131.173 8.598C131.344 8.55979 131.51 8.50499 131.67 8.43439V9.0234C131.507 9.09639 131.338 9.15391 131.165 9.1952C130.983 9.23457 130.797 9.25378 130.611 9.25247Z" fill="#DB0B2B"/>
<path d="M136.307 9.29338C135.887 9.29262 135.472 9.2078 135.085 9.04386C134.698 8.88646 134.347 8.65121 134.054 8.35258C133.75 8.04594 133.513 7.67971 133.357 7.27681C133.18 6.83232 133.092 6.35671 133.1 5.8779V5.85335C133.097 5.39939 133.177 4.94868 133.337 4.52398C133.484 4.12456 133.705 3.75675 133.989 3.44002C134.262 3.13296 134.593 2.8828 134.962 2.70375C135.351 2.52983 135.772 2.43994 136.197 2.43994C136.622 2.43994 137.043 2.52983 137.432 2.70375C137.792 2.87587 138.111 3.12263 138.369 3.42775C138.638 3.74267 138.844 4.10649 138.976 4.49943C139.121 4.93571 139.193 5.39334 139.188 5.85335V5.98834C139.188 6.01697 139.188 6.05787 139.188 6.10696H133.765C133.784 6.48402 133.877 6.85362 134.038 7.195C134.178 7.50121 134.375 7.77858 134.616 8.01308C134.842 8.23261 135.109 8.4038 135.403 8.5162C135.698 8.63017 136.011 8.68841 136.327 8.688C136.781 8.70241 137.231 8.60108 137.635 8.39349C137.985 8.19935 138.302 7.9524 138.577 7.66131L139.009 8.04581C138.681 8.40325 138.297 8.70446 137.872 8.93751C137.389 9.18781 136.85 9.3103 136.307 9.29338ZM138.536 5.55885C138.512 5.23104 138.444 4.90786 138.336 4.5976C138.236 4.29971 138.083 4.02254 137.884 3.77952C137.692 3.54305 137.451 3.35058 137.179 3.21505C136.869 3.06925 136.531 2.99649 136.189 3.00235C135.876 3.00081 135.566 3.06635 135.28 3.1946C135.002 3.32169 134.752 3.50236 134.543 3.72635C134.326 3.96826 134.151 4.24474 134.025 4.54443C133.886 4.86446 133.801 5.20619 133.777 5.55476L138.536 5.55885Z" fill="#DB0B2B"/>
<path d="M143.128 0.756745H140.007V0.155457H146.909V0.756745H143.788V9.13387H143.128V0.756745Z" fill="#F49C25"/>
<path d="M147.765 2.59331H148.392V4.45035C148.517 4.15722 148.68 3.8821 148.877 3.63227C149.067 3.39521 149.289 3.18595 149.537 3.01053C150.045 2.65179 150.656 2.46939 151.277 2.49105V3.18232H151.212C150.843 3.18273 150.478 3.25496 150.136 3.39502C149.797 3.53908 149.492 3.75219 149.24 4.02086C148.969 4.31919 148.758 4.66799 148.62 5.04754C148.457 5.49803 148.378 5.9752 148.388 6.45464V9.13794H147.761L147.765 2.59331Z" fill="#F49C25"/>
<path d="M154.859 9.29336C154.553 9.29259 154.248 9.24853 153.954 9.16247C153.661 9.08342 153.385 8.95176 153.139 8.77388C152.902 8.60711 152.703 8.39085 152.557 8.13987C152.404 7.86486 152.327 7.5545 152.332 7.23999V7.21544C152.324 6.90675 152.392 6.60081 152.531 6.32518C152.67 6.04955 152.874 5.8129 153.127 5.63655C153.398 5.44816 153.7 5.30966 154.019 5.22751C154.4 5.13282 154.792 5.0861 155.185 5.08844C155.583 5.08545 155.98 5.11143 156.374 5.16616C156.701 5.21636 157.025 5.28602 157.344 5.37477V5.09253C157.365 4.81715 157.325 4.5405 157.227 4.28239C157.13 4.02428 156.976 3.7911 156.778 3.59954C156.329 3.2454 155.767 3.06794 155.197 3.10051C154.825 3.09899 154.455 3.14853 154.097 3.24776C153.771 3.34327 153.454 3.46926 153.151 3.62408L152.923 3.07188C153.273 2.90348 153.637 2.7666 154.011 2.66284C154.409 2.5524 154.821 2.4987 155.234 2.50331C155.607 2.47888 155.982 2.53002 156.335 2.65369C156.689 2.77735 157.014 2.97103 157.291 3.22322C157.522 3.47062 157.7 3.76241 157.815 4.08091C157.929 4.39941 157.979 4.73799 157.959 5.07617V9.16656H157.34V8.04579C157.217 8.2097 157.081 8.36295 156.933 8.50392C156.769 8.66106 156.587 8.79834 156.391 8.91296C156.17 9.03426 155.936 9.12899 155.694 9.19519C155.416 9.26954 155.13 9.30668 154.842 9.30564L154.859 9.29336ZM154.883 8.70026C155.205 8.70159 155.526 8.65189 155.832 8.553C156.115 8.46088 156.381 8.32269 156.619 8.14396C156.836 7.96964 157.018 7.75425 157.153 7.50995C157.285 7.25793 157.354 6.97691 157.352 6.69187V5.94333C157.079 5.8738 156.757 5.80835 156.391 5.7429C155.977 5.67513 155.559 5.64365 155.14 5.64882C154.579 5.61287 154.021 5.75606 153.547 6.05786C153.37 6.18139 153.227 6.34689 153.129 6.5396C153.032 6.73231 152.983 6.94623 152.988 7.16227V7.18681C152.984 7.40805 153.038 7.62653 153.143 7.82082C153.244 8.00494 153.383 8.16531 153.551 8.29122C153.736 8.42112 153.941 8.51926 154.158 8.58164C154.39 8.65128 154.632 8.68574 154.875 8.6839" fill="#F49C25"/>
<path d="M162.393 9.25247C162.15 9.25493 161.908 9.22046 161.675 9.15021C161.46 9.08496 161.261 8.97329 161.093 8.82298C160.919 8.66587 160.78 8.47348 160.685 8.2585C160.587 7.99736 160.54 7.71954 160.547 7.44042V3.17005H159.601V2.59331H160.547V0.499023H161.174V2.59331H163.46V3.17005H161.191V7.38316C161.17 7.5645 161.192 7.74817 161.255 7.9194C161.318 8.09062 161.42 8.2446 161.553 8.36894C161.827 8.56587 162.158 8.66393 162.494 8.64709C162.648 8.65007 162.801 8.63357 162.951 8.598C163.123 8.55987 163.291 8.50507 163.452 8.43439V9.0234C163.289 9.09639 163.12 9.15391 162.947 9.1952C162.765 9.23435 162.579 9.25355 162.393 9.25247Z" fill="#F49C25"/>
<path d="M168.085 9.29336C167.241 9.28951 166.433 8.95141 165.836 8.35257C165.535 8.04366 165.298 7.67804 165.139 7.2768C164.963 6.83168 164.876 6.35651 164.882 5.87789V5.85334C164.88 5.39912 164.961 4.94841 165.123 4.52396C165.268 4.12375 165.489 3.75565 165.774 3.44001C166.048 3.13295 166.379 2.88279 166.748 2.70374C167.131 2.52542 167.549 2.43461 167.971 2.43786C168.384 2.42719 168.795 2.51027 169.173 2.68094C169.55 2.8516 169.884 3.10546 170.151 3.42365C170.42 3.73979 170.626 4.10503 170.758 4.49942C170.9 4.93641 170.97 5.3937 170.965 5.85334V5.98833C170.965 6.01696 170.965 6.05786 170.965 6.10695H165.546C165.58 6.82302 165.883 7.49959 166.394 8.0008C166.621 8.21956 166.89 8.3906 167.184 8.50392C167.479 8.61862 167.793 8.67689 168.109 8.67571C168.562 8.68961 169.01 8.58829 169.413 8.38121C169.764 8.1882 170.083 7.94114 170.358 7.64903L170.79 8.03352C170.462 8.39097 170.078 8.69218 169.653 8.92523C169.169 9.17553 168.629 9.29799 168.085 9.28109V9.29336ZM170.318 5.55883C170.293 5.23103 170.226 4.90785 170.118 4.59759C170.016 4.30045 169.863 4.02356 169.666 3.77951C169.472 3.54294 169.23 3.35051 168.957 3.21504C168.659 3.08161 168.336 3.01265 168.009 3.01265C167.683 3.01265 167.36 3.08161 167.062 3.21504C166.784 3.34213 166.533 3.5228 166.325 3.74679C166.107 3.98853 165.93 4.26501 165.803 4.56487C165.665 4.88512 165.582 5.22686 165.559 5.5752L170.318 5.55883Z" fill="#F49C25"/>
<path d="M176.988 9.29336C176.394 9.29688 175.806 9.17985 175.258 8.94929C174.71 8.71873 174.215 8.3794 173.801 7.95171C173.399 7.52635 173.083 7.02612 172.872 6.47917C172.648 5.90175 172.535 5.2869 172.538 4.66713V4.64668C172.539 4.03621 172.654 3.43129 172.876 2.86326C173.095 2.3147 173.413 1.81135 173.814 1.37845C174.224 0.940471 174.72 0.592035 175.27 0.354872C175.82 0.117708 176.413 -0.00309725 177.012 -1.10912e-05C177.377 -0.00233756 177.742 0.0319188 178.1 0.102249C178.41 0.166365 178.712 0.26515 179.001 0.396757C179.277 0.520254 179.54 0.673883 179.783 0.854881C180.034 1.03492 180.275 1.22884 180.504 1.43572L180.031 1.92656C179.839 1.73872 179.635 1.56382 179.42 1.40299C179.207 1.24301 178.977 1.10591 178.736 0.993955C178.48 0.876829 178.214 0.783716 177.941 0.715808C177.638 0.647003 177.327 0.6127 177.016 0.613548C176.501 0.60779 175.991 0.713835 175.521 0.924418C175.068 1.12341 174.661 1.41289 174.323 1.77522C173.983 2.14796 173.715 2.58067 173.532 3.05142C173.336 3.55558 173.238 4.093 173.243 4.63441V4.65895C173.239 5.20235 173.34 5.74143 173.541 6.24602C173.723 6.71889 173.993 7.15315 174.335 7.52631C174.672 7.8892 175.078 8.18118 175.529 8.3853C175.999 8.59595 176.509 8.70333 177.024 8.70026C177.608 8.71483 178.187 8.593 178.715 8.34439C179.227 8.06826 179.693 7.71358 180.097 7.29316L180.545 7.72674C180.311 7.95053 180.066 8.16215 179.811 8.36075C179.557 8.55225 179.284 8.71803 178.996 8.85569C178.701 8.99395 178.393 9.1022 178.076 9.17883C177.717 9.25612 177.351 9.29451 176.984 9.29336" fill="#DB0B2B"/>
<path d="M184.709 9.29339C184.332 9.2988 183.959 9.22929 183.609 9.08887C183.299 8.96466 183.019 8.7746 182.789 8.53172C182.559 8.28885 182.384 7.9989 182.277 7.68177C182.159 7.33127 182.101 6.96347 182.105 6.59373V2.58923H182.729V6.4792C182.698 7.07292 182.89 7.65671 183.267 8.11536C183.463 8.32222 183.701 8.48359 183.966 8.58816C184.231 8.69273 184.515 8.73798 184.799 8.72073C185.103 8.72344 185.405 8.66503 185.687 8.54894C185.958 8.43935 186.203 8.27506 186.408 8.06627C186.62 7.8588 186.784 7.60755 186.889 7.33C187.009 7.02971 187.068 6.70859 187.064 6.38512V2.58923H187.692V9.13386H187.064V7.90675C186.839 8.29264 186.535 8.62593 186.172 8.88435C185.739 9.17029 185.227 9.31329 184.709 9.29339Z" fill="#DB0B2B"/>
<path d="M190.067 2.5933H190.691V4.45034C190.818 4.15788 190.983 3.88297 191.179 3.63226C191.37 3.39058 191.594 3.17713 191.844 2.99825C192.09 2.81697 192.366 2.67869 192.659 2.58921C192.959 2.4962 193.273 2.45471 193.588 2.4665V3.18232H193.522C193.155 3.18252 192.791 3.25477 192.451 3.39502C192.109 3.53787 191.801 3.75106 191.546 4.02085C191.276 4.31941 191.067 4.66822 190.931 5.04754C190.766 5.49773 190.686 5.97493 190.695 6.45463V9.13793H190.071L190.067 2.5933Z" fill="#DB0B2B"/>
<path d="M197.935 9.29338C197.091 9.28952 196.283 8.95142 195.686 8.35258C195.385 8.04469 195.149 7.67872 194.993 7.27681C194.814 6.83261 194.726 6.35699 194.733 5.8779V5.85335C194.729 5.39939 194.809 4.94868 194.969 4.52398C195.118 4.12532 195.339 3.75779 195.621 3.44002C195.896 3.13285 196.228 2.88271 196.599 2.70375C196.987 2.52983 197.408 2.43994 197.833 2.43994C198.259 2.43994 198.679 2.52983 199.068 2.70375C199.428 2.87587 199.747 3.12263 200.005 3.42775C200.271 3.74403 200.475 4.10753 200.608 4.49943C200.75 4.93642 200.82 5.39372 200.816 5.85335V5.98834C200.819 6.02782 200.819 6.06748 200.816 6.10696H195.397C195.416 6.48402 195.509 6.85362 195.67 7.195C195.809 7.50102 196.004 7.77841 196.244 8.01308C196.472 8.23184 196.74 8.40288 197.035 8.5162C197.329 8.63128 197.643 8.68956 197.96 8.688C198.412 8.70279 198.861 8.60142 199.263 8.39349C199.614 8.20145 199.932 7.95426 200.205 7.66131L200.641 8.04581C200.313 8.40325 199.929 8.70446 199.504 8.93751C199.019 9.18781 198.48 9.31027 197.935 9.29338ZM200.152 5.55885C200.129 5.23122 200.063 4.90804 199.956 4.5976C199.856 4.29971 199.703 4.02254 199.504 3.77952C199.189 3.41531 198.767 3.16196 198.298 3.05668C197.829 2.9514 197.339 2.99974 196.9 3.1946C196.621 3.32065 196.371 3.50146 196.163 3.72635C195.945 3.96809 195.769 4.24457 195.641 4.54443C195.505 4.86533 195.422 5.20673 195.397 5.55476L200.152 5.55885Z" fill="#DB0B2B"/>
<path d="M201.052 11.989H98.1241V12.4103H201.052V11.989Z" fill="#DB0B2B"/>
</g>
<defs>
<clipPath id="clip0_37_886">
<rect width="210" height="101" fill="white"/>
</clipPath>
</defs>
</svg>
