<svg width="34" height="34" viewBox="0 0 34 34" fill="none" xmlns="http://www.w3.org/2000/svg">
<path d="M17 0.680054C7.98659 0.680054 0.679993 7.98665 0.679993 17.0001C0.679993 26.0135 7.98659 33.3201 17 33.3201C26.0134 33.3201 33.32 26.0135 33.32 17.0001C33.32 7.98665 26.0134 0.680054 17 0.680054ZM23.6385 14.0489C23.6453 14.1883 23.647 14.3277 23.647 14.4637C23.647 18.7137 20.4153 23.6114 14.5027 23.6114C12.7556 23.6143 11.0448 23.1125 9.57609 22.1664C9.82599 22.197 10.0827 22.2089 10.3428 22.2089C11.849 22.2089 13.2345 21.6972 14.3344 20.8336C13.6641 20.8204 13.0146 20.5984 12.4765 20.1986C11.9383 19.7988 11.5383 19.2411 11.3322 18.6032C11.8136 18.6947 12.3094 18.6755 12.7823 18.5471C12.0548 18.3999 11.4005 18.0057 10.9305 17.4313C10.4605 16.8568 10.2036 16.1375 10.2034 15.3953V15.3562C10.6369 15.5959 11.1333 15.7421 11.6603 15.7591C10.9783 15.305 10.4954 14.6076 10.3106 13.8094C10.1257 13.0112 10.2528 12.1725 10.6658 11.4649C11.4732 12.4577 12.4801 13.2698 13.6214 13.8488C14.7626 14.4277 16.0127 14.7606 17.2907 14.8258C17.1282 14.1361 17.1981 13.412 17.4896 12.7662C17.7811 12.1204 18.2777 11.5889 18.9024 11.2545C19.5271 10.9201 20.2447 10.8014 20.9438 10.9169C21.6429 11.0324 22.2842 11.3756 22.7681 11.8933C23.4875 11.7509 24.1774 11.487 24.8081 11.113C24.5683 11.8578 24.0663 12.4903 23.3954 12.8929C24.0326 12.8161 24.6549 12.6448 25.2416 12.3846C24.8106 13.0304 24.2677 13.594 23.6385 14.0489Z" fill="#4A4951"/>
</svg>
