<svg width="34" height="34" viewBox="0 0 34 34" fill="none" xmlns="http://www.w3.org/2000/svg">
<path d="M19.7251 16.7162L15.9069 14.9346C15.5737 14.7799 15.3 14.9533 15.3 15.3222V18.678C15.3 19.0469 15.5737 19.2203 15.9069 19.0656L19.7234 17.284C20.0583 17.1276 20.0583 16.8726 19.7251 16.7162ZM17 0.680054C7.98659 0.680054 0.679993 7.98665 0.679993 17.0001C0.679993 26.0135 7.98659 33.3201 17 33.3201C26.0134 33.3201 33.32 26.0135 33.32 17.0001C33.32 7.98665 26.0134 0.680054 17 0.680054ZM17 23.6301C8.64619 23.6301 8.49999 22.877 8.49999 17.0001C8.49999 11.1232 8.64619 10.3701 17 10.3701C25.3538 10.3701 25.5 11.1232 25.5 17.0001C25.5 22.877 25.3538 23.6301 17 23.6301Z" fill="#4A4951"/>
</svg>
